<?xml version="1.0" encoding="UTF-8" standalone="no"?>
<svg width="26px" height="25px" viewBox="0 0 26 25" version="1.1" xmlns="http://www.w3.org/2000/svg" xmlns:xlink="http://www.w3.org/1999/xlink">
    <!-- Generator: Sketch 39.1 (31720) - http://www.bohemiancoding.com/sketch -->
    <title>cloner</title>
    <desc>Created with Sketch.</desc>
    <defs></defs>
    <g id="Page-1" stroke="none" stroke-width="1" fill="none" fill-rule="evenodd">
        <g id="Desktop-HD---Middle----5" transform="translate(-780.000000, -3074.000000)" fill="#34495E">
            <g id="FEATURES" transform="translate(0.000000, 857.000000)">
                <g id="THIRD" transform="translate(120.000000, 1724.000000)">
                    <g id="Policies-blocks" transform="translate(0.000000, 225.000000)">
                        <g id="Policy-1" transform="translate(624.602968, 230.000000)">
                            <g id="icon(1)" transform="translate(35.000000, 38.000000)">
                                <g id="Capa_1">
                                    <g id="Group">
                                        <path d="M24.2308808,12.2032047 C22.9659127,10.8285185 21.2494492,9.94957746 19.3879545,9.72107042 C19.3239701,9.59982299 19.2227366,9.42280056 19.1946796,9.37513615 L19.1200012,9.24524917 C19.4085617,8.81350722 19.554434,8.3650739 19.554434,7.91076335 L19.554434,5.26312607 C19.554434,4.87199583 19.4437681,4.4789261 19.2280236,4.09978543 L19.2050734,4.05629386 C19.2878625,3.85182473 19.3282958,3.6590513 19.3282958,3.46921648 C19.3282958,2.3957976 18.275828,1.49158442 16.2850428,0.854197879 C14.5893066,0.311376109 12.2897743,0 9.97564268,0 C7.6611506,0 5.36101746,0.311376109 3.66558172,0.854256651 C1.67455619,1.49176074 0.622328635,2.39615023 0.622328635,3.46998053 C0.622328635,3.65899252 0.662701874,3.85153086 0.745551126,4.05635263 L0.724223001,4.09543627 C0.50715676,4.48039541 0.397151698,4.87328882 0.397151698,5.26318484 L0.397151698,7.91082212 C0.397151698,8.3674248 0.543144216,8.81515284 0.831464418,9.24330969 L0.755163802,9.37366684 C0.517550466,9.77708051 0.39703154,10.188546 0.39703154,10.5966027 L0.39703154,13.2447101 C0.39703154,13.6892645 0.535574234,14.1268837 0.809054867,14.5462834 L0.755163802,14.637792 C0.517550466,15.0411469 0.39703154,15.4520835 0.39703154,15.8589059 L0.39703154,18.5087178 C0.39703154,19.7191351 1.40119571,20.8339885 3.22454012,21.64828 C5.00342591,22.4427063 7.40118779,22.8800904 9.97564268,22.8800904 C10.9209292,22.8800904 11.8752877,22.8154996 12.8139054,22.688081 C14.3012267,24.1734356 16.2837811,24.9904305 18.407041,24.9904305 C22.7275784,24.9904305 26.2425736,21.5520108 26.2425736,17.3254533 C26.2426337,15.4320421 25.5281715,13.6128604 24.2308808,12.2032047 L24.2308808,12.2032047 Z M4.05231169,2.12074283 C5.6122087,1.61447748 7.71588277,1.33566128 9.97576283,1.33566128 C12.2347417,1.33566128 14.3381154,1.6146538 15.8989136,2.12121301 C17.3236924,2.58369292 17.9613132,3.13192175 17.9613132,3.4700393 C17.9613132,3.80927352 17.3236924,4.35885411 15.8987934,4.82168666 C14.3387763,5.32842219 12.2352824,5.60747348 9.97576283,5.60747348 C7.71570253,5.60747348 5.61196838,5.32842219 4.05237177,4.82168666 C2.62813365,4.35897166 1.99075315,3.80933229 1.99075315,3.4700393 C1.99069307,3.13151035 2.62807357,2.58298765 4.05231169,2.12074283 L4.05231169,2.12074283 Z M1.76443471,6.06219544 C3.31760284,7.11339837 6.46731631,7.78005356 9.97576283,7.78005356 C13.481626,7.78005356 16.6321805,7.11316328 18.1883526,6.06166649 L18.1883526,7.91193879 C18.1883526,8.59399235 17.3540925,9.34686663 15.9566497,9.92571588 C14.3655716,10.584907 12.2414706,10.9480028 9.97564268,10.9480028 C7.71005509,10.9480028 5.58619439,10.584907 3.99535658,9.92577465 C2.59833436,9.3469254 1.76431455,8.59410989 1.76431455,7.91193879 L1.76443471,6.06219544 L1.76443471,6.06219544 L1.76443471,6.06219544 Z M9.97570275,21.5410791 C7.71071596,21.5410791 5.58673511,21.1782184 3.99535658,20.5192624 C2.59839444,19.9409421 1.76437463,19.1891845 1.76437463,18.5086002 L1.76437463,16.3963206 C3.44587199,17.6755017 6.53592679,18.4587025 9.97570275,18.4587025 C10.2077287,18.4587025 10.4343476,18.4478296 10.6541774,18.4361927 C10.8141684,19.5067317 11.2106913,20.5417134 11.809561,21.4554477 C11.1998771,21.5123394 10.5844855,21.5410791 9.97570275,21.5410791 L9.97570275,21.5410791 Z M10.6485901,16.2539739 C10.430923,16.2667863 10.2067074,16.2787171 9.97570275,16.2787171 C7.71041556,16.2787171 5.58649479,15.9157976 3.99541666,15.256724 C2.59845452,14.6780511 1.76437463,13.9258233 1.76437463,13.2445926 L1.76437463,11.1309612 C3.44238739,12.41073 6.53220187,13.1945185 9.97570275,13.1945185 C10.5775764,13.1945185 11.2018597,13.1631341 11.8740861,13.0988958 C11.2308779,14.0480111 10.8105637,15.1288941 10.6485901,16.2539739 L10.6485901,16.2539739 Z M18.4071011,23.1178247 C15.1422157,23.1178247 12.4860531,20.5193212 12.4860531,17.3254533 C12.4860531,14.1316442 15.1422157,11.533317 18.4071011,11.533317 C21.6721667,11.533317 24.3283293,14.1316442 24.3283293,17.3254533 C24.3282692,20.5193212 21.6721066,23.1178247 18.4071011,23.1178247 L18.4071011,23.1178247 Z" id="cloner"></path>
                                    </g>
                                </g>
                            </g>
                        </g>
                    </g>
                </g>
            </g>
        </g>
    </g>
</svg>