<?xml version="1.0" encoding="UTF-8" standalone="no"?>
<svg width="24px" height="24px" viewBox="0 0 24 24" version="1.1" xmlns="http://www.w3.org/2000/svg" xmlns:xlink="http://www.w3.org/1999/xlink">
    <!-- Generator: Sketch 39.1 (31720) - http://www.bohemiancoding.com/sketch -->
    <title>Shape</title>
    <desc>Created with Sketch.</desc>
    <defs></defs>
    <g id="Page-1" stroke="none" stroke-width="1" fill="none" fill-rule="evenodd">
        <g id="25px" transform="translate(-79.000000, -2444.000000)" fill="#000000">
            <path d="M101.417,2462.998 L100,2462.998 L100,2461.998 L101.2,2461.998 C101.642,2461.998 102,2461.64 102,2461.198 L102,2445.798 C102,2445.358 101.642,2444.998 101.2,2444.998 L85.8,2444.998 C85.358,2444.998 85,2445.357 85,2445.798 L85,2446.998 L84,2446.998 L84,2445.581 C84,2444.707 84.708,2443.998 85.583,2443.998 L101.416,2443.998 C102.291,2443.998 102.999,2444.707 102.999,2445.581 L102.999,2461.415 C103,2462.289 102.291,2462.998 101.417,2462.998 L101.417,2462.998 Z M98,2450.536 L98,2466.459 C98,2467.309 97.311,2467.998 96.461,2467.998 L80.538,2467.998 C79.688,2467.998 79,2467.309 79,2466.459 L79,2450.536 C79,2449.687 79.688,2448.998 80.538,2448.998 L96.461,2448.998 C97.311,2448.998 98,2449.688 98,2450.536 L98,2450.536 Z M80.772,2449.998 C80.345,2449.998 80,2450.345 80,2450.77 L80,2466.224 C80,2466.652 80.346,2466.997 80.772,2466.997 L96.227,2466.997 C96.654,2466.997 97,2466.651 97,2466.224 L97,2450.77 C97,2450.344 96.654,2449.998 96.227,2449.998 L80.772,2449.998 L80.772,2449.998 Z M89,2461.999 L88,2461.999 L88,2459 L85,2459 L85,2457.999 L88,2457.999 L88,2455 L89,2455 L89,2457.999 L92,2457.999 L92,2459 L89,2459 L89,2461.999 L89,2461.999 Z" id="Shape"></path>
        </g>
    </g>
</svg>