<?xml version="1.0" encoding="UTF-8" standalone="no"?>
<svg width="48px" height="26px" viewBox="0 0 48 26" version="1.1" xmlns="http://www.w3.org/2000/svg" xmlns:xlink="http://www.w3.org/1999/xlink">
    <!-- Generator: Sketch 39.1 (31720) - http://www.bohemiancoding.com/sketch -->
    <title>email</title>
    <desc>Created with Sketch.</desc>
    <defs></defs>
    <g id="Page-1" stroke="none" stroke-width="1" fill="none" fill-rule="evenodd">
        <g id="Desktop-HD---Middle----5" transform="translate(-144.000000, -2844.000000)" fill="#34495E">
            <g id="FEATURES" transform="translate(0.000000, 857.000000)">
                <g id="THIRD" transform="translate(120.000000, 1724.000000)">
                    <g id="Policies-blocks" transform="translate(0.000000, 225.000000)">
                        <g id="Policy-1">
                            <g id="email" transform="translate(24.000000, 38.500000)">
                                <g id="Layer_1">
                                    <g id="email">
                                        <path d="M19.1412245,24.9799197 L43.1216327,24.9799197 C45.7861224,24.9799197 47.9510204,22.7610442 47.9510204,20.0200803 L47.9510204,5.03012048 C47.9510204,2.29919679 45.7861224,0.0702811245 43.1216327,0.0702811245 L19.1412245,0.0702811245 C16.4767347,0.0702811245 14.3118367,2.28915663 14.3118367,5.03012048 L14.3118367,20.0301205 C14.3020408,22.7610442 16.4767347,24.9799197 19.1412245,24.9799197 L19.1412245,24.9799197 Z M16.084898,5.03012048 C16.084898,3.30321285 17.4563265,1.89759036 19.1412245,1.89759036 L43.1216327,1.89759036 C44.8065306,1.89759036 46.1779592,3.30321285 46.1779592,5.03012048 L46.1779592,20.0301205 C46.1779592,21.7570281 44.8065306,23.1626506 43.1216327,23.1626506 L29.5346939,23.1626506 L19.1412245,23.1626506 C17.4563265,23.1626506 16.084898,21.7570281 16.084898,20.0301205 L16.084898,5.03012048 L16.084898,5.03012048 L16.084898,5.03012048 Z" id="Shape"></path>
                                        <path d="M19.1706122,20.060241 C19.3469388,20.2610442 19.5918367,20.3714859 19.8367347,20.3714859 C20.042449,20.3714859 20.2579592,20.3012048 20.4244898,20.1405622 L28.0946939,13.2128514 L30.5828571,15.1907631 C30.7395918,15.3212851 30.9355102,15.3815261 31.1314286,15.3815261 C31.3273469,15.3815261 31.5134694,15.3212851 31.68,15.1907631 L34.2465306,13.1526104 L41.8383673,20.1305221 C42.004898,20.2911647 42.2204082,20.3614458 42.4261224,20.3614458 C42.6710204,20.3614458 42.9159184,20.2610442 43.0922449,20.060241 C43.4155102,19.688755 43.3861224,19.1064257 43.0236735,18.7751004 L35.6767347,12.0180723 L42.9844898,6.20481928 C43.3763265,5.8935743 43.444898,5.32128514 43.1412245,4.92971888 C42.837551,4.52811245 42.2791837,4.45783133 41.8971429,4.76907631 L31.1314286,13.3333333 L28.6040816,11.315261 L28.6040816,11.315261 L20.3853061,4.77911647 C19.9934694,4.46787149 19.444898,4.53815261 19.1412245,4.93975904 C18.837551,5.34136546 18.9061224,5.90361446 19.2979592,6.21485944 L26.6742857,12.0883534 L19.2587755,18.7851406 C18.8767347,19.1164659 18.8473469,19.688755 19.1706122,20.060241 L19.1706122,20.060241 Z" id="Shape"></path>
                                        <path d="M11.52,13.4437751 C12.0097959,13.4437751 12.4114286,13.0321285 12.4114286,12.5301205 C12.4114286,12.0281124 12.0097959,11.6164659 11.52,11.6164659 L4.46693878,11.6164659 C3.97714286,11.6164659 3.5755102,12.0281124 3.5755102,12.5301205 C3.5755102,13.0321285 3.97714286,13.4437751 4.46693878,13.4437751 L11.52,13.4437751 L11.52,13.4437751 Z" id="Shape"></path>
                                        <path d="M0.891428571,8.63453815 L11.52,8.63453815 C12.0097959,8.63453815 12.4114286,8.22289157 12.4114286,7.72088353 C12.4114286,7.2188755 12.0097959,6.80722892 11.52,6.80722892 L0.891428571,6.80722892 C0.401632653,6.80722892 0,7.2188755 0,7.72088353 C0.00979591837,8.22289157 0.401632653,8.63453815 0.891428571,8.63453815 L0.891428571,8.63453815 Z" id="Shape"></path>
                                        <path d="M12.4114286,17.3393574 C12.4114286,16.8373494 12.0097959,16.4257028 11.52,16.4257028 L6.87673469,16.4257028 C6.38693878,16.4257028 5.98530612,16.8373494 5.98530612,17.3393574 C5.98530612,17.8413655 6.38693878,18.253012 6.87673469,18.253012 L11.52,18.253012 C12.0097959,18.253012 12.4114286,17.8413655 12.4114286,17.3393574 L12.4114286,17.3393574 Z" id="Shape"></path>
                                    </g>
                                </g>
                            </g>
                        </g>
                    </g>
                </g>
            </g>
        </g>
    </g>
</svg>