<?xml version="1.0" encoding="UTF-8" standalone="no"?>
<svg width="249px" height="30px" viewBox="0 0 249 30" version="1.1" xmlns="http://www.w3.org/2000/svg" xmlns:xlink="http://www.w3.org/1999/xlink">
    <!-- Generator: Sketch 39.1 (31720) - http://www.bohemiancoding.com/sketch -->
    <title>Group 2</title>
    <desc>Created with Sketch.</desc>
    <defs></defs>
    <g id="Page-1" stroke="none" stroke-width="1" fill="none" fill-rule="evenodd">
        <g id="Desktop-HD---Middle----5" transform="translate(-596.000000, -3484.000000)" fill="#FFFFFF">
            <g id="Group-2" transform="translate(595.000000, 3484.000000)">
                <text id="Powered-by" font-family="AvenirNext-Regular, Avenir Next" font-size="16" font-weight="normal">
                    <tspan x="0" y="19">Powered by </tspan>
                </text>
                <g id="LogoBlancoHeader-Copy-2" transform="translate(144.000000, 5.000000)">
                    <g id="Wordmark">
                        <path d="M6.30769231,4.46292658 L6.30769231,5.91399258 C6.52991466,6.04516226 6.79914543,6.13944081 7.11538462,6.19682748 C7.4316238,6.25421414 7.73504287,6.28290766 8.02564103,6.28290766 C8.11111098,6.00417195 8.17948718,5.68854435 8.23076923,5.33602561 C8.28205128,4.98350688 8.30769231,4.63508695 8.30769231,4.29076621 L8.30769231,3.89725679 C8.30769231,3.7660871 8.29059816,3.64311541 8.25641026,3.5283417 C7.67521354,3.29879466 7.07692308,3.13483228 6.46153846,3.03645492 C5.84615385,2.93807757 5.23931611,2.88888889 4.64102564,2.88888889 C4.00854688,2.88888889 3.4316238,2.96677109 2.91025641,3.12253511 C2.38888902,3.27829913 1.94017107,3.49145019 1.56410256,3.76198792 C1.18803406,4.03252565 0.897435897,4.35635124 0.692307692,4.73346431 C0.487179487,5.11057738 0.384615385,5.52048316 0.384615385,5.96318126 C0.384615385,6.68461507 0.534187904,7.27487921 0.833333333,7.73397366 C1.13247876,8.19306811 1.50427363,8.57018118 1.94871795,8.86531325 C2.39316226,9.16044532 2.87606851,9.40638871 3.3974359,9.60314342 C3.91880329,9.79989813 4.40170953,10.00895 4.84615385,10.2302991 C5.29059816,10.4516481 5.66239303,10.7098887 5.96153846,11.0050207 C6.26068389,11.3001528 6.41025641,11.6936622 6.41025641,12.185549 C6.41025641,12.7430208 6.21367508,13.1898177 5.82051282,13.5259405 C5.42735056,13.8620632 4.90598278,14.0301244 4.25641026,14.0301244 C3.86324799,14.0301244 3.47863261,13.9809357 3.1025641,13.8825584 C2.7264956,13.784181 2.39316226,13.644813 2.1025641,13.4644546 L2.1025641,11.7674452 C1.8290597,11.6854642 1.52564103,11.6280772 1.19230769,11.5952849 C0.858974359,11.5624925 0.547008417,11.5460962 0.256410256,11.5460962 C0.188034058,11.7756432 0.128205128,12.046181 0.0769230769,12.3577094 C0.0256410256,12.6692378 0,12.9807658 0,13.2922943 C0,13.489049 0.0128205128,13.7022 0.0384615385,13.9317471 C0.0641025641,14.1612941 0.0940172244,14.3416528 0.128205128,14.4728225 C1.23931611,15.095879 2.54700842,15.4074074 4.05128205,15.4074074 C4.64957252,15.4074074 5.2264956,15.3418224 5.78205128,15.2106527 C6.33760697,15.079483 6.8290597,14.8745299 7.25641026,14.5957942 C7.68376081,14.3170585 8.02564103,13.9522422 8.28205128,13.5013461 C8.53846154,13.0504501 8.66666667,12.5052754 8.66666667,11.8658226 C8.66666667,11.1607848 8.51709415,10.578719 8.21794872,10.1196245 C7.91880329,9.66053008 7.55128205,9.27931783 7.11538462,8.97598778 C6.67948718,8.67265772 6.20085457,8.41441716 5.67948718,8.2012661 C5.15811979,7.98811504 4.67948718,7.77086517 4.24358974,7.54951612 C3.80769231,7.32816707 3.44017107,7.07402569 3.14102564,6.78709161 C2.84188021,6.50015753 2.69230769,6.12714364 2.69230769,5.66804919 C2.69230769,5.20895474 2.87606851,4.84413883 3.24358974,4.57360111 C3.61111098,4.30306338 4.12820513,4.16779451 4.79487179,4.16779451 C5.08546996,4.16779451 5.36324799,4.19648803 5.62820513,4.2538747 C5.89316226,4.31126137 6.11965825,4.38094558 6.30769231,4.46292658 L6.30769231,4.46292658 Z M12.7338776,0.391299236 L12.3154656,3.08148148 C12.0857493,3.13039389 11.8396246,3.19561055 11.5770915,3.2771311 C11.3145583,3.35865165 11.084842,3.44017257 10.8879423,3.52169312 C10.8059008,3.68473459 10.7361652,3.89261231 10.6787362,4.14532628 C10.6213073,4.39804024 10.5925926,4.61407028 10.5925926,4.79341564 L12.2908532,4.79341564 C12.2580366,5.41297264 12.237526,6.061062 12.229322,6.73768372 C12.2211179,7.41430543 12.2088117,8.07054674 12.1924033,8.706408 C12.1759948,9.34226925 12.1677908,9.93737005 12.1677908,10.4917108 L12.1677908,11.8612581 C12.1677908,13.1329806 12.4057115,14.0419362 12.8815525,14.5881246 C13.3573935,15.134313 14.0711552,15.4074074 15.0228375,15.4074074 C15.515087,15.4074074 16.0196426,15.3503431 16.5365046,15.236214 C17.0533665,15.1220849 17.5579221,14.9590438 18.0501716,14.7470899 C18.115805,14.6329609 18.1732339,14.4902998 18.2224589,14.3191064 C18.2716838,14.147913 18.2962963,13.9726434 18.2962963,13.7932981 L18.2962963,13.6465608 C18.2962963,13.5813442 18.2880923,13.5242798 18.2716838,13.4753674 C17.8942927,13.5731922 17.504595,13.650637 17.1025914,13.7077014 C16.7005878,13.7647657 16.3272985,13.7932981 15.9827239,13.7932981 C15.2935747,13.7932981 14.8546524,13.6139527 14.6659567,13.2552616 C14.4772609,12.8965705 14.3829133,12.317774 14.3829133,11.5188713 L14.3829133,4.79341564 L18.0255591,4.79341564 C18.0419675,4.59776602 18.0378653,4.34505205 18.0132529,4.03527337 C17.9886404,3.72549468 17.9681301,3.50538886 17.9517217,3.37495591 L14.3829133,3.37495591 L14.3829133,0 C14.1367885,0 13.8455411,0.0407604614 13.5091705,0.122281011 C13.1727999,0.203801561 12.914369,0.293474427 12.7338776,0.391299236 L12.7338776,0.391299236 Z M26.5493413,13.5382376 L26.6785981,13.5382376 C26.7130664,13.9317471 26.8380149,14.3047613 27.0534427,14.6572801 C27.2688705,15.0097988 27.5058414,15.2598414 27.764355,15.4074074 C28.212445,15.4074074 28.7165464,15.3336244 29.2766592,15.1860584 C29.836772,15.0384923 30.2633194,14.8745299 30.5563013,14.6941716 C30.7286438,14.3662472 30.8148148,13.9973321 30.8148148,13.5874263 C30.8148148,13.4726526 30.8061978,13.3824736 30.7889635,13.3168886 C30.5476843,13.3988696 30.237468,13.4685538 29.8583147,13.5259405 C29.4791614,13.5833271 29.1947965,13.6120207 29.00522,13.6120207 C28.9018146,13.5136433 28.8199518,13.3373838 28.7596321,13.0832424 C28.6993124,12.829101 28.6691524,12.5790584 28.6691524,12.333115 L28.6691524,7.56181329 C28.6691524,5.87300189 28.3460104,4.67197846 27.6997266,3.95874263 C27.0534427,3.2455068 26.0236972,2.88888889 24.6104897,2.88888889 C24.2658051,2.88888889 23.8909604,2.91348323 23.4859558,2.96267191 C23.0809511,3.01186058 22.6845638,3.07334643 22.2967934,3.14712945 C21.9090231,3.22091246 21.5471042,3.31109183 21.2110365,3.41766718 C20.8749689,3.52424252 20.6035297,3.63491704 20.3967189,3.74969075 C20.3105478,3.88086043 20.2416107,4.06121917 20.189908,4.29076621 C20.1382053,4.52031325 20.112354,4.74986066 20.112354,4.9794077 C20.112354,5.14337008 20.120971,5.29503492 20.1382053,5.43440297 C20.1554397,5.57377101 20.189908,5.70084152 20.2416107,5.81561522 C20.4656559,5.66804919 20.7370952,5.52048316 21.0559284,5.37291712 C21.3747617,5.22535109 21.706521,5.09828021 22.0512056,4.99170487 C22.3958902,4.88512952 22.7405752,4.79495016 23.0852598,4.72116714 C23.4299444,4.64738412 23.7401606,4.61049261 24.0159085,4.61049261 C25.6531609,4.61049261 26.4717872,5.52868114 26.4717872,7.36505858 L26.4717872,8.69315288 C26.1443366,8.5619832 25.7651837,8.45950666 25.3343276,8.38572364 C24.9034716,8.31194062 24.4812329,8.27504912 24.0676112,8.27504912 C23.4299444,8.27504912 22.8181292,8.35703012 22.2321651,8.52099251 C21.6462009,8.68495489 21.1334825,8.9267991 20.6940094,9.2465255 C20.2545364,9.56625191 19.9055431,9.96386051 19.6470296,10.4393509 C19.388516,10.9148414 19.2592593,11.4723132 19.2592593,12.111766 C19.2592593,12.6856338 19.3626647,13.1775206 19.5694755,13.5874263 C19.7762864,13.9973321 20.0477256,14.3375537 20.3837932,14.6080914 C20.7198608,14.8786291 21.1119398,15.079483 21.5600298,15.2106527 C22.0081198,15.3418224 22.4648272,15.4074074 22.9301516,15.4074074 C23.7056923,15.4074074 24.4166045,15.2475442 25.0628884,14.9278178 C25.7091723,14.6080914 26.2046567,14.1448981 26.5493413,13.5382376 L26.5493413,13.5382376 Z M26.962963,9.81305115 L26.962963,12.3580247 C26.7121914,12.7095825 26.3485725,12.9847148 25.8721065,13.1834215 C25.3956404,13.3821283 24.9149947,13.4814815 24.4301698,13.4814815 C23.8283179,13.4814815 23.2975179,13.3362729 22.8377701,13.0458554 C22.3780222,12.7554379 22.1481481,12.2892416 22.1481481,11.6472663 C22.1481481,11.0358611 22.4114583,10.5467372 22.9380787,10.1798942 C23.4646991,9.81305115 24.2211935,9.62962963 25.2075617,9.62962963 C25.4583333,9.62962963 25.7550796,9.64491487 26.0978009,9.67548501 C26.4405222,9.70605514 26.7289096,9.75191052 26.962963,9.81305115 L26.962963,9.81305115 Z M35.9145299,13.8553147 L35.9145299,6.24751581 C36.048243,6.07788806 36.2237416,5.89553862 36.4410256,5.70046673 C36.6583097,5.50539483 36.9006646,5.32728583 37.1680912,5.16613972 C37.4355177,5.00499361 37.7238368,4.87353207 38.0330484,4.7717555 C38.3422601,4.66997892 38.6556504,4.61909064 38.9732194,4.61909064 C39.8423553,4.61909064 40.4440647,4.90745746 40.7783476,5.48419151 C41.1126305,6.06092555 41.2797721,6.84121236 41.2797721,7.82505269 L41.2797721,13.7789822 C41.062488,13.8298705 40.8159544,13.9019621 40.5401709,13.9952575 C40.2643875,14.0885528 40.0345678,14.1776073 39.8507123,14.262421 C39.6668567,14.6016761 39.5498575,14.9833382 39.4997151,15.4074074 L45.2911681,15.4074074 C45.3245963,15.2208172 45.3329536,15.0087824 45.3162393,14.7713038 C45.299525,14.5338253 45.2744538,14.3387534 45.2410256,14.1860885 C45.0070277,14.1012748 44.7228869,14.0291828 44.388604,13.9698133 C44.0543211,13.9104438 43.7283952,13.8637959 43.4108262,13.8298705 L43.4108262,6.24751581 C43.5445393,6.07788806 43.7200379,5.89553862 43.9373219,5.70046673 C44.154606,5.50539483 44.3969609,5.32728583 44.6643875,5.16613972 C44.931814,5.00499361 45.2201331,4.87353207 45.5293447,4.7717555 C45.8385564,4.66997892 46.1519467,4.61909064 46.4695157,4.61909064 C47.3386516,4.61909064 47.940361,4.90745746 48.2746439,5.48419151 C48.6089267,6.06092555 48.7760684,6.84121236 48.7760684,7.82505269 L48.7760684,13.7789822 C48.5587843,13.8298705 48.3122507,13.9019621 48.0364672,13.9952575 C47.7606838,14.0885528 47.5308641,14.1776073 47.3470085,14.262421 C47.163153,14.6016761 47.0461538,14.9833382 46.9960114,15.4074074 L52.9378917,15.4074074 C52.954606,15.3225937 52.962963,15.2547425 52.962963,15.2038543 L52.962963,14.974857 C52.962963,14.6525644 52.9378917,14.3896417 52.8877493,14.1860885 C52.637037,14.1012748 52.3194681,14.0334237 51.9350427,13.9825354 C51.5506174,13.9316471 51.1912629,13.8892401 50.8569801,13.8553147 C50.957265,11.7688949 51.0074074,9.64006812 51.0074074,7.46883469 C51.0074074,6.48499435 50.9071225,5.69198548 50.7065527,5.08980729 C50.5059829,4.4876291 50.2343781,4.02539409 49.8917379,3.70310148 C49.5490977,3.38080886 49.1563154,3.16453365 48.7133903,3.05427582 C48.2704652,2.944018 47.8066475,2.88888889 47.3219373,2.88888889 C46.7536561,2.88888889 46.2438746,2.96522132 45.7925926,3.11788618 C45.3413105,3.27055104 44.9485279,3.46138211 44.614245,3.6903794 C44.2799621,3.91937669 44,4.16957731 43.774359,4.44098163 C43.5487179,4.71238596 43.385755,4.96682739 43.2854701,5.20430593 L43.160114,5.20430593 C43.0431148,4.72934846 42.8759735,4.34344588 42.6586895,4.04659741 C42.4414054,3.74974894 42.1865148,3.51651122 41.8940171,3.34688347 C41.6015193,3.17725572 41.2797721,3.05851664 40.9287749,2.99066546 C40.5777778,2.92281428 40.2100663,2.88888889 39.825641,2.88888889 C39.2740741,2.88888889 38.7768282,2.9609805 38.3339031,3.10516411 C37.890978,3.24934772 37.5065527,3.43169715 37.1806268,3.65221319 C36.8547009,3.87272923 36.583096,4.10596695 36.365812,4.35192713 C36.1485279,4.59788731 35.9813866,4.83112503 35.8643875,5.05164107 L35.6136752,5.05164107 L35.6136752,3.19421861 C35.2626781,3.09244204 34.8698954,3.04155375 34.4353276,3.04155375 C34.0509023,3.04155375 33.6748339,3.07547914 33.3071225,3.14333032 C32.9394111,3.2111815 32.6218425,3.29599518 32.354416,3.39777176 C32.2207029,3.58436201 32.1162393,3.80063723 32.0410256,4.04659741 C31.965812,4.29255759 31.9198482,4.52579531 31.9031339,4.74631135 L33.7333333,4.74631135 L33.7333333,13.7789822 C33.4826211,13.8298705 33.2026589,13.9019621 32.8934473,13.9952575 C32.5842356,14.0885528 32.3293447,14.1776073 32.1287749,14.262421 C31.9449194,14.6016761 31.8279202,14.9833382 31.7777778,15.4074074 L37.7948718,15.4074074 C37.8283,15.2208172 37.8366573,15.0087824 37.819943,14.7713038 C37.8032287,14.5338253 37.7781575,14.3387534 37.7447293,14.1860885 C37.5107314,14.1012748 37.2265906,14.0334237 36.8923077,13.9825354 C36.5580248,13.9316471 36.2320989,13.8892401 35.9145299,13.8553147 L35.9145299,13.8553147 Z M58.7407407,14.0924475 L58.7407407,6.34851562 C58.9943607,5.96299532 59.3351623,5.61099842 59.7631459,5.2925249 C60.1911294,4.97405138 60.7538486,4.81481481 61.4513032,4.81481481 C62.354824,4.81481481 63.0919067,5.22128756 63.6625514,6.03423267 C64.2331962,6.84717777 64.5185185,8.01631035 64.5185185,9.5416304 C64.5185185,10.9999033 64.2094193,12.1816072 63.5912209,13.0867421 C62.9730224,13.991877 62.0140224,14.4444444 60.7142204,14.4444444 C60.3496419,14.4444444 60.0009145,14.4109211 59.6680384,14.3438739 C59.3351623,14.2768267 59.0260631,14.1930181 58.7407407,14.0924475 L58.7407407,14.0924475 Z M58.0736278,19.565596 L58.0736278,15.162338 C58.3417622,15.3479158 58.685309,15.4955349 59.1042689,15.6051944 C59.5232288,15.714854 59.9170508,15.7696839 60.2857355,15.7696839 C61.1906887,15.7696839 62.0202291,15.6094122 62.7743567,15.2888684 C63.5284843,14.9683246 64.1778719,14.5085977 64.7225197,13.909687 C65.2671676,13.3107763 65.6903168,12.5937708 65.9919679,11.7586702 C66.2936189,10.9235695 66.4444444,9.99989755 66.4444444,8.98765432 C66.4444444,7.84044546 66.301998,6.8788144 66.0171055,6.10276113 C65.7322129,5.32670786 65.3593385,4.69827365 64.8984828,4.21745812 C64.4376272,3.73664259 63.926496,3.3950105 63.36509,3.19256186 C62.803684,2.99011321 62.2464674,2.88888889 61.6934404,2.88888889 C61.157172,2.88888889 60.696316,2.94371886 60.3108731,3.05337841 C59.9254302,3.16303797 59.5860728,3.30643922 59.2928008,3.48358178 C58.9995289,3.66072435 58.748153,3.8673908 58.5386732,4.10358076 C58.3291934,4.33977072 58.1490406,4.58439629 57.9982151,4.8374571 L57.7468392,4.8374571 L57.7468392,3.19256186 C57.394913,3.09133753 57.0010907,3.04072537 56.5653726,3.04072537 C56.1966879,3.04072537 55.8280035,3.07446668 55.4593188,3.1419497 C55.090634,3.20943271 54.7638454,3.29378618 54.4789528,3.3950105 C54.3448858,3.5805883 54.2401458,3.79568998 54.164733,4.04031556 C54.0893202,4.28494113 54.0432348,4.51691328 54.0264763,4.73623277 L55.8866577,4.73623277 L55.8866577,19.565596 C55.6352819,19.6162082 55.3545787,19.6879086 55.0445486,19.7806977 C54.7345184,19.8734868 54.4789528,19.9620581 54.2778521,20.0464116 C54.09351,20.3838258 53.9762011,20.763417 53.9259259,21.1851852 L60.5119738,21.1851852 C60.5454905,20.9996074 60.5538699,20.7971587 60.5371114,20.5778393 C60.5203529,20.3585198 60.4952153,20.172942 60.4616986,20.0211055 C60.3276316,19.9704933 60.1600476,19.924099 59.9589469,19.881922 C59.7578462,19.8397451 59.5441767,19.7975686 59.3179384,19.7553916 C59.0917001,19.7132147 58.8696516,19.6752556 58.6517924,19.6415143 C58.4339331,19.607773 58.2412119,19.5824669 58.0736278,19.565596 L58.0736278,19.565596 Z M71.5610835,9.43098305 L78.8911001,9.43098305 C78.9390087,8.98828495 78.962963,8.55378483 78.962963,8.12748308 C78.962963,7.35686059 78.8831154,6.64772356 78.7234199,6.00007276 C78.5637245,5.35242196 78.3201893,4.79904934 77.9928137,4.33995489 C77.6654381,3.88086043 77.2422457,3.52424252 76.7232357,3.27010114 C76.2042257,3.01595977 75.5854063,2.88888889 74.8667772,2.88888889 C74.020392,2.88888889 73.2578464,3.05695008 72.5791413,3.39307284 C71.9004362,3.72919559 71.3215404,4.19238885 70.8424544,4.78265299 C70.3633683,5.37291712 69.9920767,6.06155861 69.7285793,6.84857746 C69.465082,7.6355963 69.3333333,8.48000182 69.3333333,9.38179437 C69.3333333,10.2343982 69.4531048,11.0255159 69.6926479,11.7551481 C69.9321909,12.4847803 70.2835208,13.1201339 70.7466372,13.6612093 C71.2097536,14.2022848 71.7726797,14.6285865 72.4354155,14.940115 C73.0981513,15.2516434 73.8606965,15.4074074 74.7230514,15.4074074 C75.4736194,15.4074074 76.1842639,15.3008321 76.8549843,15.087681 C77.5257048,14.8745299 78.0766538,14.6449829 78.5078312,14.3990395 C78.6196181,14.2186812 78.7074503,13.9850349 78.7713285,13.6981009 C78.8352068,13.4111668 78.8511761,13.1775206 78.8192371,12.9971622 C78.5956638,13.0791432 78.3441436,13.1611246 78.0646766,13.2431056 C77.7852096,13.3250866 77.4937659,13.3988696 77.1903446,13.4644546 C76.8869233,13.5300397 76.5874945,13.5833271 76.2920582,13.6243178 C75.996622,13.6653085 75.7211475,13.6858037 75.4656348,13.6858037 C74.3317979,13.6858037 73.4055648,13.3086906 72.6869357,12.5544641 C71.9683066,11.8002376 71.5930224,10.7590773 71.5610835,9.43098305 L71.5610835,9.43098305 Z M76.9979099,8.66666667 L71.2592593,8.66666667 C71.3462084,7.50859356 71.6679209,6.57709998 72.224396,5.87218591 C72.780871,5.16727185 73.5286347,4.81481481 74.4676866,4.81481481 C75.0067721,4.81481481 75.4545605,4.93230062 75.8110526,5.16727185 C76.1675447,5.40224307 76.4414348,5.70854515 76.632723,6.08617768 C76.8240112,6.46381022 76.9457403,6.879206 76.9979099,7.33236504 C77.0500794,7.78552409 77.0500794,8.23029142 76.9979099,8.66666667 L76.9979099,8.66666667 Z M85.8765432,5.61141223 L85.6296296,5.61141223 L85.6296296,3.19421861 C85.2839506,3.09244204 84.8971192,3.04155375 84.4691358,3.04155375 C84.1069958,3.04155375 83.7448561,3.07547914 83.382716,3.14333032 C83.020576,3.2111815 82.6995884,3.29599518 82.4197531,3.39777176 C82.288066,3.58436201 82.1851852,3.80063723 82.1111111,4.04659741 C82.037037,4.29255759 81.9917697,4.52579531 81.9753086,4.74631135 L83.7777778,4.74631135 L83.7777778,13.7789822 C83.5308642,13.8298705 83.2551439,13.9019621 82.9506173,13.9952575 C82.6460907,14.0885528 82.3950617,14.1776073 82.1975309,14.262421 C82.016461,14.6016761 81.9012346,14.9833382 81.8518519,15.4074074 L88.4197531,15.4074074 C88.4526748,15.2208172 88.4609055,15.017264 88.4444444,14.796748 C88.4279834,14.5762319 88.4032921,14.3896417 88.3703704,14.2369768 C88.2222222,14.1860885 88.0452674,14.1352002 87.8395062,14.084312 C87.633745,14.0334237 87.4197531,13.9867762 87.1975309,13.9443692 C86.9753086,13.9019621 86.7489711,13.8680367 86.5185185,13.8425926 C86.288066,13.8171484 86.0905351,13.7959451 85.9259259,13.7789822 L85.9259259,6.95995182 C86.2386833,6.23055292 86.6460907,5.70046673 87.1481481,5.36969286 C87.6502056,5.038919 88.1893005,4.87353207 88.7654321,4.87353207 C89.0617284,4.87353207 89.3580247,4.91169828 89.654321,4.98803071 C89.9506173,5.06436314 90.2139919,5.17038054 90.4444444,5.30608251 C90.4938272,5.10252936 90.5185185,4.87353207 90.5185185,4.61909064 C90.5185185,4.29679802 90.4855968,3.99994994 90.4197531,3.72854562 C90.3539093,3.45714129 90.2798353,3.2451069 90.1975309,3.09244204 C90.0493827,3.02459086 89.8641975,2.97370257 89.6419753,2.93977718 C89.4197531,2.90585178 89.2345679,2.88888889 89.0864198,2.88888889 C88.2798353,2.88888889 87.5884772,3.14757114 87.0123457,3.66493526 C86.4362141,4.18229938 86.057613,4.83112503 85.8765432,5.61141223 L85.8765432,5.61141223 Z" id="stamper"></path>
                        <path d="M99.3139018,13.2992722 L99.142079,13.2992722 C99.109351,13.1538176 99.0725318,12.9719994 99.0316215,12.7538176 C98.9907112,12.5356358 98.9457101,12.317454 98.8966179,12.0992722 C98.8475257,11.8810903 98.7984334,11.6669491 98.7493412,11.4568479 C98.700249,11.2467468 98.6511567,11.0770498 98.6020645,10.947757 L97.0556593,6.70533277 C96.9247468,6.36593883 96.7815609,6.01038315 96.6261023,5.63866611 C96.4706437,5.26694906 96.3192758,4.94371649 96.1719992,4.66896914 C96.4501883,4.63664603 96.7611059,4.59624186 97.1047515,4.54775702 C97.4483971,4.49927217 97.7347686,4.44270663 97.9638655,4.37806005 C98.0129578,4.20028239 98.0579588,3.99422178 98.0988692,3.75987823 C98.1397795,3.52553467 98.1602344,3.31139338 98.1602344,3.11745398 L92.6128125,3.11745398 C92.6291767,3.31139338 92.6578136,3.52553467 92.6987239,3.75987823 C92.7396342,3.99422178 92.7928172,4.20028239 92.8582737,4.37806005 C93.0382784,4.458868 93.2387384,4.5356358 93.4596535,4.60836308 C93.6805685,4.68109035 93.9055747,4.74169641 94.1346716,4.79018126 L98.1356883,15.0932116 C97.7756785,15.9012922 97.2233909,16.6204843 96.4788256,17.2507873 C95.7342602,17.8810903 94.8055986,18.3497771 93.6928416,18.6568479 C93.7255696,19.0124036 93.8401183,19.3558377 94.0364872,19.687151 C94.2328561,20.0184642 94.4210431,20.2730097 94.6010478,20.4507873 C95.7138049,20.0629085 96.6751945,19.489171 97.4852163,18.7295752 C98.2952381,17.9699794 98.9866204,17.0083631 99.559363,15.8447267 C99.7884599,15.3922013 100.02983,14.858868 100.283473,14.2447267 C100.537116,13.6305854 100.786669,12.9962419 101.03213,12.3416964 C101.277591,11.687151 101.510779,11.0406862 101.731694,10.4023025 C101.952609,9.76391875 102.153069,9.19422178 102.333074,8.69321156 L103.732202,4.66896914 C103.895843,4.6528074 104.092212,4.62452482 104.321309,4.58412065 C104.550406,4.54371649 104.738593,4.49927217 104.88587,4.45078732 C104.951326,4.27300966 105.0086,4.05078732 105.057693,3.78412065 C105.106785,3.51745398 105.131331,3.29523164 105.131331,3.11745398 L100.443023,3.11745398 C100.443023,3.55381762 100.50848,3.96593883 100.639392,4.35381762 C100.819397,4.43462558 101.052585,4.49927217 101.338956,4.54775702 C101.625328,4.59624186 101.883062,4.63664603 102.112159,4.66896914 C102.030339,4.81442368 101.948518,4.98412065 101.866698,5.17806005 C101.784878,5.37199944 101.703057,5.57806005 101.621237,5.79624186 C101.539416,6.01442368 101.461687,6.22856497 101.388049,6.43866611 C101.31441,6.64876724 101.253045,6.84270663 101.203953,7.02048429 L99.9766469,10.8750297 C99.9275547,11.0204843 99.8702806,11.2023025 99.8048241,11.4204843 C99.7393677,11.6386661 99.6780024,11.8608885 99.6207283,12.087151 C99.5634541,12.3134135 99.5061796,12.5356358 99.4489055,12.7538176 C99.3916313,12.9719994 99.3466299,13.1538176 99.3139018,13.2992722 L99.3139018,13.2992722 Z" id="y"></path>
                    </g>
                </g>
                <path d="M117.973961,0 C117.316038,0 116.659617,0.20081141 116.10178,0.593837759 L114.521788,1.69816763 C113.975132,2.08314819 113.316139,2.2941227 112.638784,2.29200539 L110.690849,2.28158718 C109.308333,2.27674647 108.083508,3.13974367 107.660729,4.40690127 L107.065526,6.18841454 C106.85831,6.80919929 106.446142,7.3488367 105.896765,7.73030908 L104.316774,8.83463895 C103.195535,9.6133717 102.727235,10.9977329 103.158835,12.2622288 L103.764859,14.0437421 C103.976337,14.6631353 103.976337,15.3412385 103.764859,15.9606921 L103.158835,17.7422053 C102.72723,19.0066409 103.195651,20.3911831 104.316774,21.1697952 L105.896765,22.2741251 C106.446081,22.6556578 106.858419,23.1952955 107.065526,23.8160196 L107.660729,25.5975329 C108.083563,26.8646905 109.308333,27.727384 110.690849,27.722847 L112.638784,27.7124288 C113.316139,27.7099951 113.975071,27.9212253 114.521788,28.3062665 L116.10178,29.4105964 C117.217521,30.1964679 118.730401,30.1964679 119.846143,29.4105964 L121.426135,28.3062665 C121.972789,27.9212253 122.631783,27.7102508 123.309138,27.7124288 L125.257073,27.722847 C126.639589,27.7276877 127.86436,26.8646905 128.287194,25.5975329 L128.882396,23.8160196 C129.089546,23.1952955 129.501848,22.6556578 130.051157,22.2741251 L131.631149,21.1697952 C132.752326,20.3911831 133.220693,19.0066409 132.789088,17.7422053 L132.183064,15.9606921 C131.971592,15.3412989 131.971592,14.663256 132.183064,14.0437421 L132.789088,12.2622288 C133.2207,10.9977329 132.752271,9.61337203 131.631149,8.83463895 L130.051157,7.73030908 C129.501848,7.34877636 129.089485,6.80919929 128.882396,6.18841454 L128.287194,4.40690127 C127.86436,3.13974367 126.639589,2.27711085 125.257073,2.28158718 L123.309138,2.29200539 C122.631783,2.29443908 121.97285,2.08314819 121.426135,1.69816763 L119.846143,0.593837759 C119.2883,0.20081141 118.631886,0 117.973961,0 L117.973961,0 Z M117.973958,4.375 C123.822337,4.375 128.580512,9.14139425 128.580512,15 C128.580512,20.8586058 123.822337,25.625 117.973958,25.625 C112.12558,25.625 107.367405,20.8586058 107.367405,15 C107.367405,9.14139425 112.12558,4.375 117.973958,4.375 L117.973958,4.375 Z M109.239149,15 C109.239149,19.8344951 113.147779,23.75 117.973958,23.75 C122.800193,23.75 126.708767,19.8344951 126.708767,15 C126.708767,10.1655672 122.800193,6.25 117.973958,6.25 C113.147779,6.25 109.239149,10.1655672 109.239149,15 Z M119.505954,11.3853883 L119.505954,12.4582766 C119.606003,12.5093665 119.739401,12.5519414 119.906149,12.5860014 C120.072897,12.6200614 120.218801,12.6370913 120.343862,12.6370913 C120.368875,12.5093665 120.393887,12.3646118 120.418899,12.202827 C120.443911,12.0410422 120.46267,11.8749999 120.475176,11.7047003 C120.487682,11.5344006 120.498104,11.3662296 120.506442,11.2001873 C120.514779,11.0341451 120.518948,10.8830042 120.518948,10.7467643 C120.177115,10.6105245 119.797763,10.5040872 119.380893,10.4274523 C118.964024,10.3508174 118.572166,10.3125 118.205321,10.3125 C117.780114,10.3125 117.398678,10.3678473 117.061014,10.4785422 C116.723349,10.5892371 116.435709,10.7446355 116.198094,10.9447377 C115.960478,11.14484 115.77914,11.3853883 115.654079,11.6663828 C115.529018,11.9473774 115.466487,12.2581743 115.466487,12.5987738 C115.466487,13.1267029 115.56862,13.554581 115.772887,13.882408 C115.977153,14.2102351 116.233527,14.4805858 116.542011,14.6934605 C116.850495,14.9063352 117.18399,15.0851499 117.542498,15.2299046 C117.901006,15.3746593 118.234502,15.5321867 118.542985,15.7024864 C118.851469,15.872786 119.107844,16.0750171 119.31211,16.3091792 C119.516376,16.5433412 119.618509,16.856267 119.618509,17.2479564 C119.618509,17.7588556 119.472605,18.1569313 119.180796,18.4421832 C118.888987,18.7274352 118.442937,18.8700613 117.842644,18.8700613 C117.56751,18.8700613 117.286123,18.8381301 116.998483,18.7742677 C116.710843,18.7104053 116.454468,18.6146117 116.229359,18.4868869 L116.229359,17.184094 C116.170997,17.1670641 116.100129,17.150034 116.016755,17.1330041 C115.933381,17.1159742 115.847923,17.1010729 115.76038,17.0883004 C115.672838,17.0755279 115.589464,17.0670129 115.510259,17.0627554 C115.431053,17.058498 115.36227,17.0563692 115.303908,17.0563692 C115.278896,17.2011239 115.258052,17.3650375 115.241378,17.5481097 C115.224703,17.7311818 115.210112,17.9185116 115.197606,18.1100988 C115.1851,18.301686 115.176763,18.4911443 115.172594,18.6784741 C115.168426,18.8658039 115.166341,19.040361 115.166341,19.2021458 C115.508174,19.3469005 115.897947,19.4639816 116.335661,19.553389 C116.773374,19.6427963 117.213171,19.6875 117.655053,19.6875 C118.063585,19.6875 118.455443,19.6427963 118.830625,19.553389 C119.205808,19.4639816 119.53722,19.3149693 119.82486,19.1063522 C120.1125,18.8977351 120.343862,18.6252554 120.518948,18.2889135 C120.694033,17.9525716 120.781576,17.5332084 120.781576,17.0308243 C120.781576,16.5199251 120.679442,16.1026907 120.475176,15.7791213 C120.27091,15.4555518 120.01662,15.1830721 119.712305,14.9616826 C119.40799,14.740293 119.076579,14.5529632 118.718071,14.3996935 C118.359563,14.2464237 118.028151,14.0846389 117.723837,13.9143392 C117.419522,13.7440396 117.165231,13.5439373 116.960965,13.3140327 C116.756699,13.0841281 116.654566,12.781846 116.654566,12.4071866 C116.654566,12.0410422 116.802555,11.732374 117.098532,11.4811819 C117.39451,11.2299897 117.805126,11.1043937 118.330382,11.1043937 C118.547154,11.1043937 118.759758,11.1278099 118.968192,11.1746424 C119.176627,11.2214749 119.355881,11.2917235 119.505954,11.3853883 L119.505954,11.3853883 Z" id="Shape"></path>
            </g>
        </g>
    </g>
</svg>