<?xml version="1.0" encoding="UTF-8" standalone="no"?>
<svg
   xmlns:dc="http://purl.org/dc/elements/1.1/"
   xmlns:cc="http://creativecommons.org/ns#"
   xmlns:rdf="http://www.w3.org/1999/02/22-rdf-syntax-ns#"
   xmlns:svg="http://www.w3.org/2000/svg"
   xmlns="http://www.w3.org/2000/svg"
   xmlns:sodipodi="http://sodipodi.sourceforge.net/DTD/sodipodi-0.dtd"
   xmlns:inkscape="http://www.inkscape.org/namespaces/inkscape"
   width="249px"
   height="30px"
   viewBox="0 0 249 30"
   version="1.1"
   id="svg2"
   inkscape:version="0.91 r13725"
   sodipodi:docname="footer-logo.svg">
  <metadata
     id="metadata31">
    <rdf:RDF>
      <cc:Work
         rdf:about="">
        <dc:format>image/svg+xml</dc:format>
        <dc:type
           rdf:resource="http://purl.org/dc/dcmitype/StillImage" />
        <dc:title>github</dc:title>
      </cc:Work>
    </rdf:RDF>
  </metadata>
  <sodipodi:namedview
     pagecolor="#ffffff"
     bordercolor="#666666"
     borderopacity="1"
     objecttolerance="10"
     gridtolerance="10"
     guidetolerance="10"
     inkscape:pageopacity="0"
     inkscape:pageshadow="2"
     inkscape:window-width="1920"
     inkscape:window-height="1032"
     id="namedview29"
     showgrid="false"
     inkscape:zoom="1.8160433"
     inkscape:cx="118.28178"
     inkscape:cy="-91.183818"
     inkscape:window-x="0"
     inkscape:window-y="25"
     inkscape:window-maximized="1"
     inkscape:current-layer="svg2" />
  <!-- Generator: Sketch 39.1 (31720) - http://www.bohemiancoding.com/sketch -->
  <title
     id="title4">github</title>
  <desc
     id="desc6">Created with Sketch.</desc>
  <defs
     id="defs8" />
  <path
     style="font-style:normal;font-variant:normal;font-weight:600;font-stretch:normal;font-size:14.21143723px;line-height:125%;font-family:'Avenir Next LT Pro';-inkscape-font-specification:'Avenir Next LT Pro, Semi-Bold';text-align:start;writing-mode:lr-tb;text-anchor:start;fill:#ffffff;fill-rule:evenodd;stroke:none;stroke-width:1"
     d="M 64.154297 7.9277344 L 64.154297 12.716797 L 64.111328 12.716797 C 63.756042 12.276242 63.074825 11.652344 61.824219 11.652344 C 59.877252 11.652344 58.511719 13.214398 58.511719 15.232422 C 58.511719 17.222023 59.792318 18.871094 61.867188 18.871094 C 62.819354 18.871094 63.74196 18.430067 64.210938 17.648438 L 64.240234 17.648438 L 64.240234 18.671875 L 65.859375 18.671875 L 65.859375 7.9277344 L 64.154297 7.9277344 z M 71.527344 7.9277344 L 71.527344 18.671875 L 73.146484 18.671875 L 73.146484 17.648438 L 73.175781 17.648438 C 73.644759 18.430067 74.567365 18.871094 75.519531 18.871094 C 77.594401 18.871094 78.875 17.222023 78.875 15.232422 C 78.875 13.214398 77.509467 11.652344 75.5625 11.652344 C 74.311894 11.652344 73.630677 12.276242 73.275391 12.716797 L 73.232422 12.716797 L 73.232422 7.9277344 L 71.527344 7.9277344 z M 9.9355469 8.609375 L 9.9355469 18.671875 L 11.726562 18.671875 L 11.726562 14.507812 L 13.105469 14.507812 C 15.237184 14.507812 17.013672 13.740422 17.013672 11.523438 C 17.013672 9.4201448 15.521003 8.609375 13.21875 8.609375 L 9.9355469 8.609375 z M 11.726562 10.117188 L 13.033203 10.117188 C 14.141695 10.117188 15.208984 10.329677 15.208984 11.523438 C 15.208984 12.717198 14.1419 13.001953 12.976562 13.001953 L 11.726562 13.001953 L 11.726562 10.117188 z M 20.90625 11.652344 C 18.845592 11.652344 17.197266 13.086495 17.197266 15.232422 C 17.197266 17.378349 18.845592 18.871094 20.90625 18.871094 C 22.966908 18.871094 24.615234 17.378349 24.615234 15.232422 C 24.615234 13.086495 22.966908 11.652344 20.90625 11.652344 z M 40.902344 11.652344 C 38.841685 11.652344 37.292969 13.101915 37.292969 15.304688 C 37.292969 17.521672 38.855692 18.871094 40.958984 18.871094 C 42.252225 18.871094 43.218781 18.415391 43.886719 17.505859 L 42.75 16.597656 C 42.366291 17.137691 41.797999 17.478516 40.945312 17.478516 C 39.950512 17.478516 39.069104 16.767159 38.998047 15.800781 L 44.185547 15.800781 C 44.199758 15.644455 44.199219 15.502029 44.199219 15.345703 C 44.199219 12.887124 42.806676 11.652344 40.902344 11.652344 z M 49.503906 11.652344 C 48.608586 11.652344 47.883169 12.204699 47.513672 12.986328 L 47.486328 12.986328 L 47.486328 11.849609 L 45.851562 11.849609 L 45.851562 18.671875 L 47.556641 18.671875 L 47.556641 15.019531 C 47.556641 14.522131 47.85579 13.185547 49.390625 13.185547 C 49.546951 13.185547 49.688633 13.200967 49.916016 13.257812 L 49.916016 11.693359 C 49.802324 11.664937 49.631809 11.652344 49.503906 11.652344 z M 53.976562 11.652344 C 51.915904 11.652344 50.365234 13.101915 50.365234 15.304688 C 50.365234 17.521672 51.92991 18.871094 54.033203 18.871094 C 55.326444 18.871094 56.293 18.415391 56.960938 17.505859 L 55.824219 16.597656 C 55.44051 17.137691 54.870264 17.478516 54.017578 17.478516 C 53.022778 17.478516 52.143323 16.767159 52.072266 15.800781 L 57.257812 15.800781 C 57.272024 15.644455 57.273437 15.502029 57.273438 15.345703 C 57.273438 12.887124 55.880895 11.652344 53.976562 11.652344 z M 25.289062 11.849609 L 27.662109 18.671875 L 29.396484 18.671875 L 30.929688 13.896484 L 30.958984 13.896484 L 32.507812 18.671875 L 34.242188 18.671875 L 36.601562 11.849609 L 34.824219 11.849609 L 33.375 16.738281 L 33.345703 16.738281 L 31.869141 11.849609 L 30.048828 11.849609 L 28.585938 16.738281 L 28.556641 16.738281 L 27.136719 11.849609 L 25.289062 11.849609 z M 79.496094 11.849609 L 82.423828 18.671875 L 82.082031 19.539062 C 81.797803 20.249634 81.599783 20.605469 80.875 20.605469 C 80.690251 20.605469 80.461758 20.576917 80.234375 20.505859 L 80.09375 21.982422 C 80.39219 22.053479 80.690381 22.082031 80.974609 22.082031 C 82.481022 22.082031 83.077358 21.371161 83.560547 20.134766 L 86.787109 11.849609 L 85.009766 11.849609 L 83.318359 16.810547 L 83.291016 16.810547 L 81.386719 11.849609 L 79.496094 11.849609 z M 40.888672 12.929688 C 41.997164 12.929688 42.494141 13.697016 42.494141 14.578125 L 38.998047 14.578125 C 39.069104 13.625959 39.87966 12.929688 40.888672 12.929688 z M 53.960938 12.929688 C 55.06943 12.929688 55.568359 13.697016 55.568359 14.578125 L 52.072266 14.578125 C 52.143323 13.625959 52.951925 12.929688 53.960938 12.929688 z M 20.90625 13.044922 C 22.256337 13.044922 22.880859 14.166564 22.880859 15.232422 C 22.880859 16.29828 22.256337 17.449219 20.90625 17.449219 C 19.556163 17.449219 18.931641 16.29828 18.931641 15.232422 C 18.931641 14.166564 19.556163 13.044922 20.90625 13.044922 z M 62.207031 13.044922 C 63.457638 13.044922 64.210938 14.195861 64.210938 15.261719 C 64.210938 16.327577 63.457638 17.449219 62.207031 17.449219 C 60.885368 17.449219 60.246094 16.29828 60.246094 15.232422 C 60.246094 14.166564 60.885368 13.044922 62.207031 13.044922 z M 75.179688 13.044922 C 76.501351 13.044922 77.140625 14.166564 77.140625 15.232422 C 77.140625 16.29828 76.501351 17.449219 75.179688 17.449219 C 73.929081 17.449219 73.175781 16.327577 73.175781 15.261719 C 73.175781 14.195861 73.929081 13.044922 75.179688 13.044922 z "
     id="tspan14" />
  <g
     id="g4252">
    <path
       inkscape:connector-curvature="0"
       id="stamper-8"
       d="m 149.36104,9.642888 0,1.473572 c 0.2241,0.133205 0.49561,0.228945 0.81453,0.287222 0.31891,0.05828 0.6249,0.08742 0.91795,0.08742 0.0862,-0.283059 0.15515,-0.603582 0.20687,-0.961568 0.0517,-0.357987 0.0776,-0.7118107 0.0776,-1.061472 l 0,-0.3996128 c 0,-0.1332042 -0.0172,-0.2580832 -0.0517,-0.374637 -0.58611,-0.233107 -1.18946,-0.3996125 -1.81005,-0.4995156 -0.62059,-0.099903 -1.23256,-0.1498548 -1.83591,-0.1498548 -0.63783,0 -1.21963,0.07909 -1.74541,0.23727 -0.52578,0.1581801 -0.97829,0.3746371 -1.35754,0.6493709 -0.37925,0.2747339 -0.6723,0.603582 -0.87917,0.9865441 -0.20686,0.3829622 -0.31029,0.7992262 -0.31029,1.2487902 0,0.732623 0.15084,1.332043 0.45251,1.798257 0.30168,0.466216 0.67662,0.849178 1.12482,1.148888 0.4482,0.299709 0.93519,0.549467 1.46097,0.749273 0.52578,0.199807 1.01277,0.412101 1.46097,0.636884 0.44821,0.224782 0.82315,0.487028 1.12482,0.786737 0.30168,0.29971 0.45251,0.699323 0.45251,1.198839 0,0.566118 -0.19824,1.019845 -0.59473,1.361181 -0.39648,0.341336 -0.92226,0.512004 -1.57733,0.512004 -0.39649,0 -0.78435,-0.04995 -1.1636,-0.149854 -0.37925,-0.0999 -0.71541,-0.241433 -1.00846,-0.42459 l 0,-1.72333 c -0.27582,-0.08325 -0.58181,-0.141529 -0.91796,-0.174831 -0.33615,-0.0333 -0.65075,-0.04995 -0.94381,-0.04995 -0.069,0.233108 -0.12929,0.507841 -0.18101,0.824201 -0.0517,0.316361 -0.0776,0.632721 -0.0776,0.949081 0,0.199807 0.0129,0.416263 0.0388,0.649371 0.0258,0.233107 0.056,0.416263 0.0905,0.549467 1.12051,0.632721 2.43926,0.949081 3.95626,0.949081 0.60335,0 1.18515,-0.0666 1.74541,-0.199807 0.56025,-0.133203 1.05586,-0.341336 1.48683,-0.624395 0.43096,-0.283059 0.77573,-0.653533 1.03431,-1.111423 0.25858,-0.45789 0.38787,-1.01152 0.38787,-1.660891 0,-0.715973 -0.15084,-1.307066 -0.45251,-1.773282 -0.30168,-0.466214 -0.67231,-0.853339 -1.11189,-1.161374 -0.43959,-0.308035 -0.92227,-0.570281 -1.44805,-0.786738 -0.52577,-0.216457 -1.00845,-0.437076 -1.44804,-0.661859 -0.43958,-0.224782 -0.81021,-0.482865 -1.11189,-0.77425 -0.30167,-0.291384 -0.45251,-0.670183 -0.45251,-1.136399 0,-0.466215 0.18531,-0.836689 0.55594,-1.1114229 0.37063,-0.2747338 0.8921,-0.4121007 1.56441,-0.4121007 0.29305,0 0.57318,0.029138 0.84038,0.087415 0.2672,0.058276 0.49561,0.1290418 0.68523,0.2122943 l 0,0 0,0 z m 6.17649,-4.3730448 -0.43154,2.7745936 c -0.23693,0.050447 -0.49077,0.1177101 -0.76155,0.2017885 -0.27077,0.084078 -0.50769,0.1681574 -0.71077,0.2522359 -0.0846,0.1681572 -0.15654,0.3825577 -0.21577,0.6432012 -0.0592,0.2606434 -0.0889,0.483452 -0.0889,0.6684248 l 1.75155,0 c -0.0339,0.6389968 -0.055,1.3074218 -0.0635,2.0052748 -0.008,0.697852 -0.0212,1.374685 -0.0381,2.030497 -0.0169,0.655814 -0.0254,1.269587 -0.0254,1.841322 l 0,1.41252 c 0,1.311626 0.24538,2.249102 0.73616,2.812429 0.49076,0.563326 1.22692,0.84499 2.20847,0.84499 0.50769,0 1.02808,-0.05885 1.56116,-0.176565 0.53308,-0.117711 1.05346,-0.285867 1.56116,-0.504472 0.0677,-0.11771 0.12692,-0.264847 0.17769,-0.441412 0.0508,-0.176566 0.0762,-0.357335 0.0762,-0.542307 l 0,-0.151342 c 0,-0.06727 -0.008,-0.126117 -0.0254,-0.176565 -0.38923,0.100895 -0.79116,0.180769 -1.20577,0.239624 -0.41462,0.05885 -0.79962,0.08828 -1.15501,0.08828 -0.71077,0 -1.16347,-0.184973 -1.35808,-0.554919 -0.19462,-0.369946 -0.29193,-0.966904 -0.29193,-1.790874 l 0,-6.9364838 3.75695,0 c 0.0169,-0.2017886 0.0127,-0.4624321 -0.0127,-0.781931 -0.0254,-0.3194987 -0.0465,-0.5465109 -0.0635,-0.6810365 l -3.68079,0 0,-3.4808537 c -0.25386,0 -0.55424,0.042039 -0.90117,0.1261179 -0.34692,0.084079 -0.61346,0.176565 -0.79962,0.2774593 l 0,0 0,0 z m 14.34361,13.5891158 0.12442,0 c 0.0332,0.399613 0.15346,0.778413 0.36084,1.136399 0.20737,0.357986 0.43548,0.611907 0.68433,0.761762 0.43134,0 0.9166,-0.07493 1.45578,-0.224783 0.53917,-0.149854 0.94977,-0.31636 1.2318,-0.499515 0.1659,-0.333011 0.24885,-0.707648 0.24885,-1.123912 0,-0.116554 -0.008,-0.208131 -0.0249,-0.274734 -0.23226,0.08325 -0.53088,0.154019 -0.89586,0.212295 -0.36498,0.05828 -0.63871,0.08742 -0.8212,0.08742 -0.0995,-0.0999 -0.17834,-0.278896 -0.23641,-0.53698 -0.0581,-0.258082 -0.0871,-0.512003 -0.0871,-0.761761 l 0,-4.845306 c 0,-1.715005 -0.31106,-2.9346566 -0.93319,-3.6589549 -0.62212,-0.7242982 -1.61337,-1.0864473 -2.97375,-1.0864473 -0.3318,0 -0.69264,0.024976 -1.0825,0.074928 -0.38987,0.049951 -0.77144,0.1123912 -1.14471,0.1873185 -0.37328,0.074928 -0.72167,0.1665055 -1.04517,0.2747339 -0.32351,0.1082283 -0.5848,0.2206194 -0.78388,0.3371733 -0.0829,0.1332042 -0.14931,0.3163603 -0.19908,0.5494676 -0.0498,0.2331074 -0.0747,0.4662151 -0.0747,0.6993229 0,0.166505 0.008,0.320522 0.0249,0.462052 0.0166,0.14153 0.0498,0.270571 0.0995,0.387125 0.21567,-0.149855 0.47696,-0.29971 0.78388,-0.449565 0.30691,-0.149854 0.62627,-0.278896 0.95807,-0.387125 0.3318,-0.108228 0.6636,-0.1998059 0.9954,-0.2747333 0.3318,-0.074928 0.63042,-0.1123912 0.89586,-0.1123912 1.57605,0 2.36408,0.9324295 2.36408,2.7972895 l 0,1.348694 c -0.31521,-0.13321 -0.68019,-0.237275 -1.09494,-0.312203 -0.41475,-0.07493 -0.8212,-0.112391 -1.21936,-0.112391 -0.61383,0 -1.20278,0.08325 -1.76684,0.249758 -0.56406,0.166506 -1.05761,0.412101 -1.48066,0.736787 -0.42304,0.324685 -0.75899,0.72846 -1.00784,1.211326 -0.24885,0.482864 -0.37327,1.048983 -0.37327,1.698353 0,0.582769 0.0995,1.082285 0.29862,1.498548 0.19908,0.416264 0.46037,0.761763 0.78387,1.036496 0.32351,0.274734 0.70093,0.478704 1.13227,0.611907 0.43134,0.133204 0.87098,0.199807 1.31891,0.199807 0.74655,0 1.43089,-0.162343 2.05301,-0.487029 0.62213,-0.324685 1.09909,-0.795062 1.43089,-1.411132 l 0,0 0,0 z m 0.13331,-3.474461 0,2.624829 c -0.24829,0.362588 -0.60832,0.646354 -1.08008,0.851295 -0.47176,0.204942 -0.94766,0.307412 -1.42769,0.307412 -0.59591,0 -1.12147,-0.149765 -1.57668,-0.449294 -0.4552,-0.299531 -0.68281,-0.780355 -0.68281,-1.442474 0,-0.630589 0.26071,-1.135061 0.78213,-1.513414 0.52142,-0.378354 1.27044,-0.567531 2.24707,-0.567531 0.24829,0 0.54211,0.01576 0.88144,0.04729 0.33934,0.03153 0.62488,0.07883 0.85662,0.141882 l 0,0 0,4e-6 z m 9.75078,3.796456 0,-7.725797 c 0.1354,-0.172259 0.31312,-0.357437 0.53314,-0.555534 0.22003,-0.198098 0.46544,-0.378969 0.73625,-0.542615 0.2708,-0.163645 0.56276,-0.297146 0.87587,-0.400501 0.31312,-0.1033551 0.63047,-0.1550328 0.95205,-0.1550328 0.8801,0 1.48941,0.2928398 1.82791,0.8785188 0.33851,0.585679 0.50776,1.378069 0.50776,2.377168 l 0,6.046276 c -0.22003,0.05168 -0.46967,0.124888 -0.74894,0.21963 -0.27927,0.09474 -0.51199,0.185178 -0.69816,0.271307 -0.18618,0.344517 -0.30466,0.732099 -0.35543,1.162746 l 5.86457,0 c 0.0338,-0.189484 0.0423,-0.404808 0.0254,-0.64597 -0.0169,-0.241162 -0.0423,-0.439259 -0.0762,-0.594292 -0.23695,-0.08613 -0.52468,-0.159339 -0.86318,-0.219629 -0.33851,-0.06029 -0.66855,-0.107662 -0.99013,-0.142114 l 0,-7.699958 c 0.1354,-0.172259 0.31312,-0.357437 0.53315,-0.555534 0.22002,-0.198098 0.46544,-0.378969 0.73624,-0.542615 0.2708,-0.163645 0.56276,-0.297146 0.87588,-0.400501 0.31311,-0.1033551 0.63046,-0.1550328 0.95204,-0.1550328 0.88011,0 1.48941,0.2928398 1.82792,0.8785188 0.3385,0.585679 0.50775,1.378069 0.50775,2.377168 l 0,6.046276 c -0.22003,0.05168 -0.46967,0.124888 -0.74894,0.21963 -0.27926,0.09474 -0.51198,0.185178 -0.69816,0.271307 -0.18617,0.344517 -0.30465,0.732099 -0.35542,1.162746 l 6.01689,0 c 0.0169,-0.08613 0.0254,-0.155033 0.0254,-0.206711 l 0,-0.232549 c 0,-0.327291 -0.0254,-0.594292 -0.0762,-0.801002 -0.25387,-0.08613 -0.57545,-0.155033 -0.96473,-0.20671 -0.38928,-0.05168 -0.75317,-0.09474 -1.09167,-0.129194 0.10155,-2.118781 0.15232,-4.280626 0.15232,-6.485536 0,-0.999099 -0.10155,-1.804408 -0.30465,-2.415926 -0.2031,-0.6115183 -0.47813,-1.0809226 -0.8251,-1.4082141 -0.34696,-0.3272914 -0.7447,-0.546921 -1.19322,-0.658889 -0.44852,-0.1119679 -0.91819,-0.1679521 -1.40902,-0.1679521 -0.57546,0 -1.09168,0.077516 -1.54866,0.232549 -0.45697,0.1550328 -0.85472,0.3488236 -1.19322,0.5813727 -0.3385,0.2325491 -0.622,0.4866304 -0.85049,0.7622442 -0.22849,0.2756139 -0.39351,0.5340023 -0.49506,0.7751633 l -0.12694,0 c -0.11848,-0.4823238 -0.28773,-0.8742118 -0.50775,-1.1756644 -0.22003,-0.3014527 -0.47814,-0.538308 -0.77433,-0.7105667 -0.29619,-0.1722587 -0.622,-0.2928395 -0.97743,-0.361743 -0.35543,-0.068903 -0.72778,-0.1033551 -1.11706,-0.1033551 -0.55853,0 -1.06206,0.07321 -1.51057,0.2196297 -0.44852,0.1464199 -0.8378,0.3315976 -1.16784,0.5555339 -0.33004,0.2239362 -0.60507,0.4607915 -0.8251,0.7105666 -0.22003,0.2497751 -0.38928,0.48663 -0.50776,0.710567 l -0.25387,0 0,-1.8862318 c -0.35543,-0.1033551 -0.75317,-0.1550328 -1.19323,-0.1550328 -0.38928,0 -0.77009,0.034451 -1.14245,0.1033553 -0.37235,0.068904 -0.69393,0.1550326 -0.96473,0.2583878 -0.1354,0.1894843 -0.24119,0.409114 -0.31735,0.6588891 -0.0762,0.249775 -0.12271,0.4866303 -0.13963,0.7105666 l 1.8533,0 0,9.1727688 c -0.25387,0.05168 -0.53737,0.124888 -0.85048,0.21963 -0.31312,0.09474 -0.57123,0.185178 -0.77433,0.271307 -0.18618,0.344517 -0.30465,0.732099 -0.35543,1.162746 l 6.09306,0 c 0.0339,-0.189484 0.0423,-0.404808 0.0254,-0.64597 -0.0169,-0.241162 -0.0423,-0.439259 -0.0762,-0.594292 -0.23695,-0.08613 -0.52468,-0.155033 -0.86318,-0.20671 -0.33851,-0.05168 -0.66855,-0.09474 -0.99013,-0.129194 l 0,0 1e-5,0 z m 22.03093,-0.361439 0,-7.667441 c 0.27901,-0.381713 0.65394,-0.730233 1.12478,-1.04556 0.47084,-0.3153281 1.08991,-0.4729919 1.85721,-0.4729919 0.99399,0 1.80488,0.4024579 2.43267,1.2073729 0.62779,0.804915 0.94168,1.9625 0.94168,3.472753 0,1.443869 -0.34005,2.613901 -1.02015,3.510095 -0.68011,0.896194 -1.73514,1.344291 -3.16509,1.344291 -0.40109,0 -0.78474,-0.03319 -1.15095,-0.09958 -0.36621,-0.06639 -0.70626,-0.149366 -1.02015,-0.248943 l 0,0 0,0 z m 0.23932,5.881746 0,-4.398009 c 0.27229,0.185357 0.62117,0.3328 1.04663,0.442329 0.42545,0.109529 0.82538,0.164293 1.19979,0.164293 0.91899,0 1.76139,-0.160081 2.52722,-0.480242 0.76582,-0.320161 1.42528,-0.77934 1.97838,-1.377537 0.55309,-0.598197 0.9828,-1.314347 1.28913,-2.148452 0.30633,-0.834105 0.4595,-1.756676 0.4595,-2.767712 0,-1.145841 -0.14466,-2.106326 -0.43397,-2.881454 -0.28931,-0.775128 -0.66797,-1.4028128 -1.13597,-1.883055 -0.46801,-0.4802423 -0.98706,-0.8214671 -1.55718,-1.0236744 -0.57011,-0.2022072 -1.13597,-0.3033108 -1.69757,-0.3033108 -0.54459,0 -1.01259,0.054764 -1.40402,0.1642934 -0.39142,0.1095288 -0.73604,0.2527591 -1.03386,0.4296904 -0.29782,0.1769314 -0.55309,0.3833514 -0.76582,0.6192597 -0.21273,0.2359084 -0.39568,0.4802424 -0.54884,0.7330014 l -0.25528,0 0,-1.6429341 c -0.35738,-0.1011035 -0.75731,-0.1516554 -1.19979,-0.1516554 -0.3744,0 -0.74881,0.033701 -1.12321,0.1011036 -0.3744,0.067403 -0.70626,0.1516555 -0.99557,0.2527591 -0.13615,0.1853566 -0.24251,0.4002018 -0.31909,0.6445357 -0.0766,0.2443339 -0.12339,0.4760295 -0.1404,0.6950875 l 1.88903,0 0,14.8116829 c -0.25528,0.05055 -0.54033,0.122166 -0.85517,0.214845 -0.31484,0.09268 -0.57437,0.181144 -0.77859,0.265397 -0.1872,0.337012 -0.30633,0.716151 -0.35738,1.137416 l 6.68819,0 c 0.034,-0.185357 0.0426,-0.387564 0.0255,-0.606623 -0.017,-0.219057 -0.0426,-0.404414 -0.0766,-0.556069 -0.13614,-0.05055 -0.30633,-0.09689 -0.51055,-0.139018 -0.20422,-0.04213 -0.4212,-0.08425 -0.65095,-0.126379 -0.22974,-0.04213 -0.45524,-0.08004 -0.67647,-0.113742 -0.22124,-0.03371 -0.41695,-0.05898 -0.58714,-0.07583 l 0,0 0,4e-6 z M 215.30931,14.688 l 7.86242,0 c 0.0514,-0.449564 0.0771,-0.890804 0.0771,-1.323718 0,-0.782574 -0.0856,-1.50271 -0.25694,-2.160406 -0.17129,-0.657696 -0.43252,-1.2196519 -0.78367,-1.6858669 -0.35116,-0.4662151 -0.80509,-0.8283643 -1.36179,-1.0864474 -0.55671,-0.2580832 -1.22048,-0.3871249 -1.9913,-0.3871249 -0.90786,0 -1.72579,0.1706678 -2.45379,0.5120039 -0.72801,0.3413361 -1.34895,0.8117136 -1.86283,1.4111328 -0.51388,0.5994195 -0.91214,1.2987415 -1.19478,2.0979675 -0.28263,0.799226 -0.42395,1.656728 -0.42395,2.572508 0,0.865827 0.12847,1.669215 0.38541,2.410165 0.25694,0.740948 0.63379,1.386156 1.13054,1.935624 0.49676,0.549468 1.10057,0.982381 1.81144,1.298741 0.71087,0.316361 1.5288,0.474541 2.45379,0.474541 0.80509,0 1.56735,-0.108229 2.28678,-0.324685 0.71944,-0.216458 1.31041,-0.449565 1.7729,-0.699323 0.11991,-0.183156 0.21412,-0.420425 0.28264,-0.71181 0.0685,-0.291385 0.0856,-0.528655 0.0514,-0.711811 -0.23981,0.08325 -0.50961,0.166506 -0.80937,0.249759 -0.29976,0.08325 -0.61238,0.158179 -0.93784,0.224781 -0.32546,0.06661 -0.64663,0.120717 -0.96353,0.162344 -0.31689,0.04163 -0.61238,0.06244 -0.88645,0.06244 -1.21619,0 -2.20969,-0.382963 -2.98052,-1.148887 -0.77083,-0.765922 -1.17337,-1.823231 -1.20763,-3.171924 l 0,0 -2e-5,-4e-6 z m 5.51821,-1.081764 -5.52414,0 c 0.0837,-1.194411 0.39339,-2.155132 0.92906,-2.882165 0.53568,-0.7270326 1.25549,-1.0905489 2.15944,-1.0905489 0.51893,0 0.94998,0.1211722 1.29315,0.3635163 0.34316,0.2423446 0.60682,0.5582576 0.79095,0.9477386 0.18414,0.389482 0.30132,0.817912 0.35154,1.28529 0.0502,0.467378 0.0502,0.926101 0,1.376169 l 0,0 0,0 z m 8.06911,-2.797049 -0.249,0 0,-2.4546848 c -0.3486,-0.1033551 -0.73871,-0.1550328 -1.17031,-0.1550328 -0.3652,0 -0.73041,0.034451 -1.09561,0.1033553 -0.3652,0.068904 -0.68891,0.1550326 -0.97111,0.2583878 -0.1328,0.1894843 -0.23655,0.409114 -0.31125,0.6588891 -0.0747,0.249775 -0.12035,0.4866303 -0.13695,0.7105666 l 1.81771,0 0,9.1727688 c -0.249,0.05168 -0.52705,0.124888 -0.83415,0.21963 -0.30711,0.09474 -0.56026,0.185178 -0.75946,0.271307 -0.1826,0.344517 -0.2988,0.732099 -0.3486,1.162746 l 6.62345,0 c 0.0332,-0.189484 0.0415,-0.396195 0.0249,-0.620131 -0.0166,-0.223936 -0.0415,-0.413421 -0.0747,-0.568453 -0.1494,-0.05168 -0.32785,-0.103355 -0.53535,-0.155033 -0.2075,-0.05168 -0.42331,-0.09905 -0.64741,-0.142114 -0.2241,-0.04306 -0.45236,-0.07752 -0.68475,-0.103355 -0.23241,-0.02584 -0.4316,-0.04737 -0.59761,-0.0646 l 0,-6.924795 c 0.3154,-0.740712 0.72626,-1.27902 1.23256,-1.614924 0.50631,-0.335904 1.04996,-0.503856 1.63097,-0.503856 0.2988,0 0.5976,0.03876 0.8964,0.116274 0.2988,0.07752 0.5644,0.185179 0.79681,0.322985 0.0498,-0.20671 0.0747,-0.439259 0.0747,-0.697647 0,-0.3272914 -0.0332,-0.6287436 -0.0996,-0.9043575 -0.0664,-0.2756138 -0.1411,-0.490937 -0.22411,-0.6459696 -0.14939,-0.068904 -0.33614,-0.1205812 -0.56025,-0.1550328 -0.22407,-0.034452 -0.41082,-0.051678 -0.56022,-0.051678 -0.81341,0 -1.51061,0.2626945 -2.09162,0.7880829 -0.581,0.5253886 -0.96281,1.184278 -1.14541,1.976667 l 0,0 0,0 z"
       style="fill:#ffffff;fill-rule:evenodd;stroke:none;stroke-width:1" />
    <path
       inkscape:connector-curvature="0"
       id="y-4"
       d="m 242.76652,18.779097 -0.17449,0 c -0.0332,-0.153352 -0.0706,-0.345042 -0.11217,-0.575071 -0.0416,-0.230028 -0.0872,-0.460057 -0.1371,-0.690085 -0.0498,-0.230029 -0.0997,-0.455797 -0.14956,-0.677306 -0.0499,-0.221509 -0.0997,-0.40042 -0.14956,-0.536733 l -1.57039,-4.472775 c -0.13294,-0.357822 -0.27835,-0.732684 -0.43622,-1.124584 -0.15787,-0.3919 -0.31158,-0.7326831 -0.46115,-1.0223484 0.2825,-0.034078 0.59825,-0.076676 0.94723,-0.1277936 0.34897,-0.051118 0.63978,-0.1107543 0.87244,-0.178911 0.0498,-0.1874305 0.0956,-0.4046796 0.13709,-0.6517473 0.0416,-0.2470677 0.0623,-0.4728362 0.0623,-0.6773059 l -5.63347,0 c 0.0166,0.2044697 0.0457,0.4302382 0.0872,0.6773059 0.0416,0.2470677 0.0956,0.4643168 0.16203,0.6517473 0.18279,0.085196 0.38636,0.1661317 0.6107,0.2428078 0.22435,0.076676 0.45284,0.140573 0.68549,0.1916903 l 4.06307,10.8624539 c -0.36559,0.851957 -0.92644,1.610199 -1.68255,2.274726 -0.75612,0.664527 -1.69919,1.158662 -2.8292,1.482405 0.0332,0.374862 0.14956,0.736943 0.34898,1.086246 0.19941,0.349302 0.39051,0.617669 0.57332,0.8051 1.13001,-0.40894 2.10631,-1.01383 2.92889,-1.814669 0.82259,-0.80084 1.5247,-1.814669 2.10632,-3.041487 0.23265,-0.477097 0.47776,-1.039388 0.73534,-1.686876 0.25757,-0.647487 0.511,-1.316273 0.76026,-2.006359 0.24928,-0.690085 0.48608,-1.371651 0.71042,-2.044697 0.22434,-0.673047 0.42791,-1.273676 0.61071,-1.80189 l 1.42083,-4.2427464 c 0.16617,-0.017039 0.3656,-0.046857 0.59825,-0.089456 0.23265,-0.042598 0.42375,-0.089455 0.57331,-0.1405728 0.0665,-0.1874305 0.12464,-0.4217189 0.17449,-0.7028647 0.0498,-0.2811459 0.0748,-0.5154343 0.0748,-0.7028647 l -4.76103,0 c 0,0.4600569 0.0665,0.894555 0.19942,1.3034944 0.1828,0.085196 0.4196,0.1533523 0.71041,0.2044698 0.29081,0.051118 0.55255,0.093715 0.7852,0.1277936 -0.0831,0.1533523 -0.16618,0.3322638 -0.24927,0.5367328 -0.0831,0.20447 -0.16618,0.421719 -0.24927,0.651747 -0.0831,0.230029 -0.16203,0.455798 -0.2368,0.677306 -0.0748,0.221509 -0.1371,0.425979 -0.18696,0.61341 l -1.24633,4.063836 c -0.0499,0.153352 -0.10802,0.345043 -0.17449,0.575071 -0.0665,0.230028 -0.1288,0.464317 -0.18696,0.702865 -0.0582,0.238548 -0.11631,0.472836 -0.17447,0.702864 -0.0582,0.230029 -0.10387,0.421719 -0.1371,0.575071 l 0,0 0,0 z"
       style="fill:#ffffff;fill-rule:evenodd;stroke:none;stroke-width:1" />
    <path
       inkscape:connector-curvature="0"
       id="Shape"
       d="m 116.97396,0 c -0.65792,0 -1.31434,0.20081141 -1.87218,0.59383776 l -1.57999,1.10432984 c -0.54666,0.3849806 -1.20565,0.5959551 -1.88301,0.5938378 l -1.94793,-0.010418 c -1.38252,-0.00484 -2.60734,0.8581565 -3.03012,2.1253141 l -0.5952,1.7815132 c -0.20722,0.6207848 -0.61939,1.1604222 -1.16876,1.5418946 l -1.58,1.1043299 c -1.12123,0.7787327 -1.58954,2.1630938 -1.15794,3.4275898 l 0.60603,1.781513 c 0.21148,0.619393 0.21148,1.297496 0,1.91695 l -0.60603,1.781513 c -0.4316,1.264436 0.0368,2.648978 1.15794,3.42759 l 1.58,1.10433 c 0.54931,0.381533 0.96165,0.92117 1.16876,1.541895 l 0.5952,1.781513 c 0.42283,1.267157 1.6476,2.129851 3.03012,2.125314 l 1.94793,-0.01042 c 0.67736,-0.0024 1.33629,0.208796 1.88301,0.593837 l 1.57999,1.10433 c 1.11574,0.785872 2.62862,0.785872 3.74436,0 l 1.58,-1.10433 c 0.54665,-0.385041 1.20564,-0.596015 1.883,-0.593837 l 1.94793,0.01042 c 1.38252,0.0048 2.60729,-0.858157 3.03012,-2.125314 l 0.59521,-1.781513 c 0.20715,-0.620725 0.61945,-1.160362 1.16876,-1.541895 l 1.57999,-1.10433 c 1.12118,-0.778612 1.58954,-2.163154 1.15794,-3.42759 l -0.60603,-1.781513 c -0.21147,-0.619393 -0.21147,-1.297436 0,-1.91695 l 0.60603,-1.781513 c 0.43161,-1.264496 -0.0368,-2.6488568 -1.15794,-3.4275898 L 129.05116,7.7303091 C 128.50185,7.3487764 128.08948,6.8091993 127.8824,6.1884145 l -0.59521,-1.7815132 c -0.42283,-1.2671576 -1.6476,-2.1297904 -3.03012,-2.1253141 l -1.94793,0.010418 c -0.67736,0.00243 -1.33629,-0.2088572 -1.883,-0.5938378 l -1.58,-1.10432984 C 118.2883,0.20081141 117.63189,0 116.97396,0 l 0,0 0,0 z m 0,4.375 c 5.84838,0 10.60655,4.7663942 10.60655,10.625 0,5.858606 -4.75817,10.625 -10.60655,10.625 -5.84838,0 -10.60655,-4.766394 -10.60655,-10.625 0,-5.8586058 4.75817,-10.625 10.60655,-10.625 l 0,0 0,0 z M 108.23915,15 c 0,4.834495 3.90863,8.75 8.73481,8.75 4.82623,0 8.73481,-3.915505 8.73481,-8.75 0,-4.834433 -3.90858,-8.75 -8.73481,-8.75 -4.82618,0 -8.73481,3.915567 -8.73481,8.75 l 0,0 z m 10.2668,-3.614612 0,1.072889 c 0.10005,0.05109 0.23345,0.09366 0.4002,0.127724 0.16675,0.03406 0.31265,0.05109 0.43771,0.05109 0.025,-0.127724 0.05,-0.272479 0.075,-0.434264 0.025,-0.161785 0.0438,-0.327827 0.0563,-0.498127 0.0125,-0.170299 0.0229,-0.33847 0.0313,-0.504513 0.008,-0.166042 0.0125,-0.317183 0.0125,-0.453423 -0.34183,-0.136239 -0.72119,-0.242677 -1.13806,-0.319312 -0.41687,-0.07664 -0.80872,-0.114952 -1.17557,-0.114952 -0.42521,0 -0.80664,0.05535 -1.14431,0.166042 -0.33766,0.110695 -0.6253,0.266093 -0.86292,0.466196 -0.23761,0.200102 -0.41895,0.44065 -0.54401,0.721645 -0.12506,0.280994 -0.18759,0.591791 -0.18759,0.932391 0,0.527929 0.10213,0.955807 0.3064,1.283634 0.20426,0.327827 0.46064,0.598178 0.76912,0.811053 0.30848,0.212874 0.64198,0.391689 1.00049,0.536444 0.35851,0.144754 0.692,0.302282 1.00049,0.472581 0.30848,0.1703 0.56485,0.372531 0.76912,0.606693 0.20427,0.234162 0.3064,0.547088 0.3064,0.938777 0,0.5109 -0.1459,0.908975 -0.43771,1.194227 -0.29181,0.285252 -0.73786,0.427878 -1.33816,0.427878 -0.27513,0 -0.55652,-0.03193 -0.84416,-0.09579 -0.28764,-0.06386 -0.54401,-0.159656 -0.76912,-0.287381 l 0,-1.302793 c -0.0584,-0.01703 -0.12923,-0.03406 -0.2126,-0.05109 -0.0834,-0.01703 -0.16884,-0.03193 -0.25638,-0.0447 -0.0875,-0.01277 -0.17092,-0.02129 -0.25012,-0.02555 -0.0792,-0.0043 -0.14799,-0.0064 -0.20635,-0.0064 -0.025,0.144755 -0.0459,0.308668 -0.0625,0.491741 -0.0167,0.183072 -0.0313,0.370402 -0.0438,0.561989 -0.0125,0.191587 -0.0208,0.381045 -0.025,0.568375 -0.004,0.18733 -0.006,0.361887 -0.006,0.523672 0.34183,0.144754 0.73161,0.261836 1.16932,0.351243 0.43771,0.08941 0.87751,0.134111 1.31939,0.134111 0.40854,0 0.80039,-0.0447 1.17557,-0.134111 0.37519,-0.08941 0.7066,-0.23842 0.99424,-0.447037 0.28764,-0.208617 0.519,-0.481097 0.69409,-0.817439 0.17508,-0.336341 0.26263,-0.755705 0.26263,-1.258089 0,-0.510899 -0.10214,-0.928133 -0.3064,-1.251703 -0.20427,-0.323569 -0.45856,-0.596049 -0.76287,-0.817438 -0.30432,-0.22139 -0.63573,-0.40872 -0.99424,-0.561989 -0.35851,-0.15327 -0.68992,-0.315055 -0.99423,-0.485355 -0.30432,-0.170299 -0.55861,-0.370402 -0.76287,-0.600306 -0.20427,-0.229905 -0.3064,-0.532187 -0.3064,-0.906846 0,-0.366145 0.14798,-0.674813 0.44396,-0.926005 0.29598,-0.251192 0.7066,-0.376788 1.23185,-0.376788 0.21677,0 0.42938,0.02342 0.63781,0.07025 0.20844,0.04683 0.38769,0.117082 0.53776,0.210746 l 0,0 0,0 z"
       style="fill:#ffffff;fill-rule:evenodd;stroke:none;stroke-width:1" />
  </g>
</svg>
