<?xml version="1.0" encoding="UTF-8" standalone="no"?>
<svg width="249px" height="30px" viewBox="0 0 249 30" version="1.1" xmlns="http://www.w3.org/2000/svg" xmlns:xlink="http://www.w3.org/1999/xlink">
    <!-- Generator: Sketch 39.1 (31720) - http://www.bohemiancoding.com/sketch -->
    <title>github</title>
    <desc>Created with Sketch.</desc>
    <defs></defs>
    <g id="Page-1" stroke="none" stroke-width="1" fill="none" fill-rule="evenodd">
        <g id="github" transform="translate(-1.000000, 0.000000)" fill="#FFFFFF">
            <g id="svg2">
                <g id="Page-1">
                    <g id="Banner-Copy-6">
                        <g id="Group-2">
                            <g id="Powered-by" transform="translate(0.000000, 3.000000)" font-size="16" font-family="AvenirNext-Regular, Avenir Next" font-weight="normal">
                                <text id="tspan14">
                                    <tspan x="0" y="16">Powered by</tspan>
                                </text>
                            </g>
                            <g id="LogoBlancoHeader-Copy-2" transform="translate(144.000000, 4.000000)">
                                <g id="Wordmark">
                                    <g id="LogoStamperyFooter-0" transform="translate(0.000000, 0.866266)">
                                        <g id="Wordmark-9">
                                            <path d="M6.36104299,4.77662205 L6.36104299,6.25019435 C6.58514487,6.38339848 6.85665282,6.47913936 7.17556676,6.53741605 C7.4944807,6.59569258 7.80046608,6.6248314 8.09352251,6.6248314 C8.17971529,6.34177247 8.24866968,6.02124942 8.30038567,5.66326304 C8.35210245,5.30527667 8.37795687,4.95145267 8.37795687,4.60179143 L8.37795687,4.20217865 C8.37795687,4.06897444 8.3607153,3.94409545 8.32624009,3.8275416 C7.74013074,3.59443422 7.13677989,3.42792874 6.51619032,3.32802556 C5.89560075,3.22812239 5.28363039,3.17817076 4.68027954,3.17817076 C4.04245126,3.17817076 3.46064856,3.25726089 2.93487146,3.41544083 C2.40909436,3.57362085 1.95658108,3.79007788 1.57733179,4.06481175 C1.1980825,4.33954555 0.905026394,4.66839374 0.698163255,5.05135584 C0.491300062,5.43431803 0.387868473,5.85058157 0.387868473,6.30014598 C0.387868473,7.03276932 0.538706078,7.63218861 0.840381685,8.09840338 C1.14205731,8.56461879 1.51699684,8.94758121 1.96520028,9.24729066 C2.41340372,9.54700011 2.90039435,9.79675825 3.42617153,9.99656428 C3.95194863,10.1963711 4.43893934,10.408665 4.88714278,10.6334475 C5.33534622,10.8582299 5.71028575,11.1204759 6.01196129,11.4201853 C6.31363692,11.7198948 6.46447457,12.1195077 6.46447457,12.6190239 C6.46447457,13.185142 6.26623053,13.6388687 5.86974292,13.9802051 C5.47325523,14.3215414 4.94747773,14.4922092 4.29241113,14.4922092 C3.89592344,14.4922092 3.50805495,14.4422563 3.12880566,14.3423545 C2.74955637,14.242451 2.41340372,14.1009215 2.12034769,13.9177651 L2.12034769,12.1944354 C1.8445299,12.1111824 1.53854492,12.0529059 1.20239226,12.0196042 C0.8662396,11.9863034 0.551635027,11.9696529 0.258578984,11.9696529 C0.189624454,12.2027606 0.129289488,12.4774944 0.0775736977,12.7938543 C0.0258578992,13.110215 0,13.4265749 0,13.7429348 C0,13.9427416 0.0129289496,14.1591981 0.0387868488,14.3923058 C0.0646447481,14.6254127 0.0948124217,14.8085691 0.129289488,14.9417734 C1.24979825,15.5744939 2.56855105,15.8908538 4.08554789,15.8908538 C4.68889874,15.8908538 5.27070143,15.8242513 5.83095605,15.691047 C6.39121066,15.5578435 6.88682009,15.3497114 7.31778521,15.0666524 C7.74875033,14.7835934 8.09352251,14.4131188 8.35210086,13.9552294 C8.61068001,13.4973392 8.73996959,12.943709 8.73996959,12.294338 C8.73996959,11.5783653 8.58913202,10.9872716 8.28745608,10.5210562 C7.98578093,10.0548416 7.615151,9.66771657 7.17556676,9.3596819 C6.73598252,9.05164723 6.25330157,8.78940127 5.72752446,8.572944 C5.20174728,8.35648674 4.71906641,8.13586766 4.27948217,7.91108518 C3.83989785,7.68630293 3.46926816,7.42821981 3.16759254,7.13683534 C2.86591691,6.84545088 2.71507934,6.46665146 2.71507934,6.00043637 C2.71507934,5.53422129 2.90039435,5.16374701 3.27102412,4.88901313 C3.64165389,4.61427934 4.16312163,4.47691244 4.83542695,4.47691244 C5.12848298,4.47691244 5.40861052,4.50605071 5.67580863,4.56432771 C5.94300683,4.62260424 6.17141846,4.69336955 6.36104299,4.77662205 L6.36104299,4.77662205 L6.36104299,4.77662205 Z M12.5375285,0.403577241 L12.1059877,3.17817076 C11.869063,3.22861786 11.6152162,3.29588091 11.3444448,3.37995934 C11.0736742,3.46403784 10.8367503,3.54811667 10.6336723,3.63219518 C10.5490567,3.80035243 10.4771323,4.01475286 10.4179015,4.27539639 C10.3586708,4.53603985 10.329055,4.75884837 10.329055,4.94382116 L12.0806029,4.94382116 C12.0467554,5.58281838 12.0256046,6.25124315 12.0171428,6.94909563 C12.0086809,7.64694804 11.995992,8.32378098 11.9790683,8.97959334 C11.9621445,9.63540649 11.9536826,10.2491804 11.9536826,10.820915 L11.9536826,12.2334348 C11.9536826,13.5450611 12.1990692,14.4825372 12.6898407,15.045864 C13.1806083,15.60919 13.9167664,15.8908538 14.8983103,15.8908538 C15.4060048,15.8908538 15.9263921,15.832002 16.4594722,15.7142889 C16.9925516,15.5965782 17.5129389,15.428422 18.0206342,15.2098171 C18.0883293,15.0921072 18.1475584,14.9449698 18.1983273,14.7684049 C18.249097,14.5918393 18.2744819,14.4110705 18.2744819,14.2260978 L18.2744819,14.0747564 C18.2744819,14.0074905 18.26602,13.9486387 18.2490962,13.8981908 C17.8598633,13.9990858 17.4579383,14.0789604 17.0433205,14.1378153 C16.6287035,14.1966671 16.2437007,14.2260978 15.8883144,14.2260978 C15.1775412,14.2260978 14.7248465,14.041125 14.5302304,13.6711788 C14.3356136,13.3012334 14.2383059,12.7042752 14.2383059,11.880305 L14.2383059,4.94382116 L17.9952486,4.94382116 C18.0121723,4.74203259 18.0079454,4.48138906 17.9825597,4.16189025 C17.9571741,3.84239153 17.9360234,3.61537932 17.9190996,3.4808537 L14.2383107,3.4808537 L14.2383107,-8.8817842e-15 C13.9844591,-1.09988712e-14 13.6840727,0.0420394206 13.3371475,0.126117888 C12.9902232,0.210196348 12.7236827,0.302682929 12.5375285,0.403577241 L12.5375285,0.403577241 L12.5375285,0.403577241 Z M26.8811391,13.9926929 L27.0055637,13.9926929 C27.0387438,14.3923058 27.1590217,14.7711056 27.3663965,15.1290916 C27.5737714,15.4870783 27.8018838,15.7409991 28.0507346,15.8908538 C28.4820743,15.8908538 28.9673317,15.8159284 29.5065068,15.6660713 C30.0456819,15.5162166 30.4562849,15.3497114 30.7383149,15.1665558 C30.9042147,14.8335447 30.9871649,14.4589083 30.9871649,14.0426442 C30.9871649,13.9260904 30.9788699,13.834513 30.9622798,13.7679104 C30.7300199,13.8511634 30.4313998,13.9219285 30.0664194,13.9802051 C29.7014391,14.0384848 29.4277041,14.0676199 29.2452143,14.0676199 C29.1456748,13.9677172 29.066872,13.7887235 29.0088068,13.5306401 C28.9507417,13.2725575 28.9217091,13.0186368 28.9217091,12.7688787 L28.9217091,7.92357308 C28.9217091,6.20856786 28.6106472,4.98891639 27.9885219,4.26461811 C27.3663965,3.5403199 26.3751441,3.17817076 25.0147631,3.17817076 C24.6829637,3.17817076 24.3221308,3.20314641 23.9322654,3.25309852 C23.5424008,3.30304983 23.1608304,3.36548968 22.7875551,3.44041704 C22.4142805,3.5153448 22.0658902,3.60692252 21.742385,3.71515092 C21.4188798,3.82337923 21.1575873,3.93577031 20.9585075,4.05232424 C20.8755572,4.18552837 20.8091978,4.36868453 20.7594276,4.60179183 C20.7096575,4.83489921 20.6847724,5.06800692 20.6847724,5.3011143 C20.6847724,5.46761978 20.6930674,5.62163695 20.7096575,5.76316662 C20.7262475,5.90469628 20.7594276,6.03373764 20.8091978,6.15029157 C21.0248677,6.00043677 21.2861602,5.85058197 21.5930753,5.70072708 C21.8999897,5.55087228 22.2193482,5.42183052 22.5511476,5.31360221 C22.8829479,5.20537389 23.2147481,5.11379578 23.5465483,5.03886841 C23.8783478,4.96394065 24.1769679,4.92647725 24.4424087,4.92647725 C26.0184588,4.92647725 26.8064839,5.8589071 26.8064839,7.72376705 L26.8064839,9.07246028 C26.4912737,8.93925599 26.1262942,8.83519076 25.7115437,8.760263 C25.2967932,8.68533763 24.8903385,8.64787176 24.4921781,8.64787176 C23.8783478,8.64787176 23.2894033,8.73112474 22.7253432,8.8976299 C22.161283,9.06413586 21.6677298,9.30973059 21.2446851,9.63441649 C20.8216403,9.95910159 20.4856926,10.3628771 20.2368426,10.8457429 C19.9879926,11.3286072 19.8635672,11.894726 19.8635672,12.5440962 C19.8635672,13.1268646 19.9631076,13.6263809 20.1621874,14.0426442 C20.3612672,14.4589083 20.6225597,14.8044065 20.9460649,15.0791402 C21.2695701,15.353874 21.646993,15.5578435 22.0783328,15.691047 C22.5096725,15.8242513 22.9493081,15.8908538 23.3972379,15.8908538 C24.1437886,15.8908538 24.8281258,15.7285112 25.4502512,15.4038254 C26.0723765,15.0791402 26.5493389,14.608763 26.8811391,13.9926929 L26.8811391,13.9926929 L26.8811391,13.9926929 Z M27.0144515,10.5182316 L27.0144515,13.1430606 C26.7661569,13.5056494 26.4061297,13.7894147 25.93437,13.9943559 C25.4626103,14.1992978 24.9867126,14.3017684 24.5066761,14.3017684 C23.9107691,14.3017684 23.3852125,14.1520035 22.9300054,13.8524736 C22.4747984,13.5529429 22.2471953,13.0721191 22.2471953,12.4100004 C22.2471953,11.7794108 22.5079046,11.274939 23.0293233,10.8965857 C23.5507419,10.5182316 24.2997637,10.329055 25.2763893,10.329055 C25.5246839,10.329055 25.8184987,10.3448187 26.1578351,10.3763462 C26.4971716,10.4078736 26.7827104,10.4551727 27.0144515,10.5182284 L27.0144515,10.5182284 L27.0144515,10.5182316 Z M36.7652295,14.3146877 L36.7652295,6.58889058 C36.9006307,6.4166319 37.0783453,6.23145419 37.2983724,6.03335666 C37.5183996,5.83525921 37.7638147,5.65438768 38.0346171,5.49074216 C38.3054203,5.32709664 38.5973798,5.19359615 38.9104948,5.090241 C39.2236106,4.98688586 39.5409573,4.93520824 39.8625357,4.93520824 C40.7426451,4.93520824 41.3519513,5.22804768 41.6904543,5.81372702 C42.0289572,6.39940629 42.1982091,7.19179553 42.1982091,8.1908953 L42.1982091,14.2371713 C41.978182,14.2888484 41.7285359,14.3620591 41.4492708,14.4568012 C41.170005,14.5515432 40.9372842,14.6419789 40.751107,14.7281081 C40.5649305,15.072625 40.4464539,15.4602069 40.3956786,15.8908538 L46.2602499,15.8908538 C46.2940974,15.7013697 46.3025672,15.4860462 46.2856355,15.2448842 C46.2687117,15.0037223 46.2433181,14.8056245 46.2094706,14.6505917 C45.9725181,14.5644633 45.6847904,14.4912525 45.3462866,14.4309627 C45.0077836,14.3706728 44.6777425,14.3233005 44.3561648,14.2888492 L44.3561648,6.58889058 C44.4915652,6.4166319 44.6692798,6.23145419 44.889307,6.03335666 C45.1093349,5.83525921 45.3547493,5.65438768 45.6255525,5.49074216 C45.8963549,5.32709664 46.1883143,5.19359615 46.5014293,5.090241 C46.8145451,4.98688586 47.1318926,4.93520824 47.4534702,4.93520824 C48.3335796,4.93520824 48.9428858,5.22804768 49.2813888,5.81372702 C49.6198918,6.39940629 49.7891437,7.19179553 49.7891437,8.1908953 L49.7891437,14.2371713 C49.5691165,14.2888484 49.3194704,14.3620591 49.0402053,14.4568012 C48.7609395,14.5515432 48.5282187,14.6419789 48.3420423,14.7281081 C48.155869,15.072625 48.0373932,15.4602069 47.9866171,15.8908538 L54.0035149,15.8908538 C54.0204402,15.8047246 54.0289029,15.735821 54.0289029,15.6841432 L54.0289029,15.4515941 C54.0289029,15.1243028 54.0035173,14.8573023 53.9527381,14.6505917 C53.6988602,14.5644633 53.3772818,14.495559 52.9880035,14.4438819 C52.5987261,14.3922041 52.2348351,14.3491391 51.8963313,14.3146877 C51.9978826,12.1959069 52.0486578,10.0340619 52.0486578,7.82915233 C52.0486578,6.83005248 51.9471073,6.0247439 51.7440047,5.41322578 C51.5409029,4.80170775 51.2658688,4.33230337 50.9189031,4.00501193 C50.5719367,3.67772049 50.1741957,3.45809085 49.7256788,3.34612286 C49.277161,3.23415495 48.8074878,3.17817076 48.3166582,3.17817076 C47.7412019,3.17817076 47.2249844,3.25568714 46.7680055,3.41071982 C46.3110259,3.56575258 45.9132842,3.75954345 45.5747804,3.99209251 C45.2362774,4.22464164 44.9527806,4.47872289 44.7242908,4.75433672 C44.495801,5.02995063 44.3307808,5.28833845 44.2292295,5.52950035 L44.102291,5.52950035 C43.9838143,5.04717623 43.8145632,4.65528823 43.5945361,4.35383556 C43.3745081,4.05238288 43.1164002,3.81552764 42.8202089,3.64326888 C42.5240185,3.47101019 42.1982091,3.35042944 41.8427808,3.28152591 C41.4873525,3.21262237 41.114998,3.17817076 40.7257197,3.17817076 C40.1671888,3.17817076 39.6636648,3.25138072 39.2151479,3.39780048 C38.7666309,3.54422039 38.3773519,3.7293981 38.0473116,3.95333439 C37.7172704,4.17727061 37.4422363,4.41412593 37.2222092,4.66390099 C37.002182,4.91367606 36.8329309,5.15053138 36.7144543,5.37446759 L36.4605764,5.37446759 L36.4605764,3.4882362 C36.1051481,3.38488105 35.7074064,3.33320344 35.2673521,3.33320344 C34.8780738,3.33320344 34.4972575,3.36765481 34.124903,3.43655866 C33.7525493,3.5054622 33.4309716,3.59159134 33.1601685,3.69494649 C33.0247673,3.88443078 32.918985,4.10406049 32.8428217,4.35383556 C32.7666569,4.60361062 32.7201142,4.84046594 32.7031888,5.06440216 L34.5564954,5.06440216 L34.5564954,14.2371713 C34.3026176,14.2888484 34.0191207,14.3620591 33.7060058,14.4568012 C33.39289,14.5515432 33.1347812,14.6419789 32.9316786,14.7281081 C32.7455022,15.072625 32.6270255,15.4602069 32.5762503,15.8908538 L38.6693113,15.8908538 C38.7031589,15.7013697 38.7116287,15.4860462 38.694697,15.2448842 C38.6777732,15.0037223 38.6523796,14.8056245 38.6185321,14.6505917 C38.3815796,14.5644633 38.0938511,14.495559 37.7553481,14.4438819 C37.4168451,14.3922049 37.086804,14.3491391 36.7652255,14.3146877 L36.7652255,14.3146877 L36.7652295,14.3146877 Z M58.7961591,13.9532486 L58.7961591,6.28580766 C59.0751754,5.90409545 59.4501034,5.55557542 59.9209439,5.24024764 C60.3917835,4.92491987 61.0108515,4.76725614 61.7781461,4.76725614 C62.7721421,4.76725614 63.5830333,5.16971394 64.2108205,5.97462907 C64.838607,6.77954428 65.1525006,7.9371287 65.1525006,9.44738193 C65.1525006,10.8912511 64.8124498,12.0612828 64.1323467,12.9574769 C63.4522444,13.853671 62.397214,14.3017684 60.9672549,14.3017684 C60.566169,14.3017684 60.1825216,14.2685764 59.8163129,14.2021916 C59.4501034,14.1358067 59.1100527,14.0528255 58.7961591,13.9532486 L58.7961591,13.9532486 L58.7961591,13.9532486 Z M59.0354793,19.8349947 L59.0354793,15.4369864 C59.3077722,15.6223429 59.656648,15.7697862 60.0821057,15.8793147 C60.5075635,15.988844 60.9074942,16.0436078 61.281897,16.0436078 C62.2008865,16.0436078 63.0432933,15.8835273 63.8091172,15.5633656 C64.5749411,15.2432046 65.2344012,14.7840256 65.7874967,14.1858288 C66.3405922,13.5876319 66.7703047,12.8714819 67.0766343,12.0373766 C67.3829639,11.203272 67.5361286,10.2807015 67.5361286,9.26966498 C67.5361286,8.12382398 67.3914726,7.16333914 67.1021614,6.38821118 C66.8128501,5.61308314 66.4341925,4.98539823 65.9661886,4.50515597 C65.4981854,4.02491371 64.9791266,3.68368893 64.4090128,3.48148163 C63.838899,3.27927441 63.27304,3.17817076 62.7114358,3.17817076 C62.1668499,3.17817076 61.698846,3.23293533 61.3074249,3.34246415 C60.9160037,3.45199297 60.5713828,3.59522328 60.2735619,3.77215459 C59.9757411,3.94908598 59.7204665,4.15550602 59.5077372,4.39141433 C59.2950087,4.62732271 59.1120613,4.87165667 58.9588965,5.12441571 L58.7036219,5.12441571 L58.7036219,3.48148163 C58.3462373,3.38037806 57.9463067,3.32982624 57.5038306,3.32982624 C57.1294278,3.32982624 56.755025,3.36352756 56.3806214,3.43092981 C56.0062185,3.49833245 55.6743611,3.58258528 55.3850498,3.68368893 C55.2489034,3.86904549 55.1425387,4.08389071 55.0659567,4.32822458 C54.9893708,4.57255854 54.9425738,4.8042541 54.9255555,5.02331206 L56.8145887,5.02331206 L56.8145887,19.8349947 C56.559314,19.8855435 56.2742567,19.9571612 55.9594184,20.0498398 C55.6445793,20.1425185 55.3850498,20.2309837 55.1808301,20.315237 C54.9936287,20.6522486 54.8745005,21.0313877 54.8234456,21.4526526 L61.5116446,21.4526526 C61.5456828,21.2672961 61.5541923,21.065089 61.5371732,20.8460304 C61.5201541,20.6269726 61.4946255,20.4416161 61.4605952,20.289961 C61.3244487,20.2394122 61.1542648,20.1930697 60.9500451,20.150943 C60.7458254,20.1088164 60.5288421,20.0666905 60.2990946,20.0245638 C60.0693478,19.9824372 59.843855,19.9445232 59.6226169,19.9108219 C59.4013781,19.8771174 59.205668,19.851843 59.0354849,19.8349907 L59.0354849,19.8349907 L59.0354793,19.8349947 Z M72.3093145,9.8217339 L80.1717331,9.8217339 C80.2231162,9.37216973 80.2488117,8.93092998 80.2488117,8.49801624 C80.2488117,7.71544151 80.1631679,6.99530568 79.9918725,6.3376097 C79.820577,5.67991372 79.5593552,5.11795815 79.2081975,4.65174306 C78.8570438,4.18552798 78.4031144,3.82337883 77.846407,3.56529572 C77.2897003,3.30721252 76.6259338,3.17817076 75.855109,3.17817076 C74.9472486,3.17817076 74.1293178,3.34883861 73.4013165,3.69017471 C72.6733151,4.0315108 72.0523729,4.50188826 71.5384889,5.10130747 C71.0246057,5.70072669 70.6263459,6.40004915 70.3437104,7.1992748 C70.0610749,7.99850076 69.9197567,8.85600302 69.9197567,9.77178259 C69.9197567,10.6376101 70.0482279,11.4409984 70.3051695,12.1819476 C70.5621111,12.922896 70.9389587,13.5681044 71.4357124,14.117572 C71.932466,14.6670396 72.5362796,15.0999533 73.2471513,15.4163132 C73.9580231,15.7326739 74.775954,15.8908538 75.7009439,15.8908538 C76.5060278,15.8908538 77.2682882,15.7826252 77.9877251,15.5661687 C78.7071621,15.3497114 79.2981279,15.1166037 79.7606208,14.8668456 C79.8805253,14.68369 79.9747421,14.4464205 80.0432556,14.1550355 C80.1117451,13.8636512 80.1289073,13.6263809 80.0946625,13.4432253 C79.8548536,13.5264775 79.5850587,13.6097305 79.285296,13.6929835 C78.9855309,13.7762356 78.6729189,13.8511634 78.3474591,13.9177651 C78.0219993,13.9843717 77.7008229,14.0384816 77.3839283,14.0801085 C77.0670337,14.1217346 76.7715504,14.1425516 76.4974793,14.1425516 C75.2812887,14.1425516 74.2877806,13.7595892 73.5169558,12.9936651 C72.746131,12.2277403 72.3435887,11.1704312 72.3093304,9.82173787 L72.3093304,9.82173787 L72.3093145,9.8217339 Z M77.8275191,8.73996959 L72.3033848,8.73996959 C72.3870835,7.54555899 72.69677,6.58483746 73.2324436,5.85780491 C73.7681171,5.13077237 74.4879291,4.76725614 75.3918779,4.76725614 C75.910812,4.76725614 76.3418617,4.88842835 76.6850279,5.13077237 C77.0281941,5.37311647 77.2918456,5.68902951 77.4759832,6.07851124 C77.6601209,6.46799296 77.7773,6.89642286 77.8275191,7.36380091 C77.8777342,7.83117897 77.8777342,8.28990168 77.8275191,8.73996959 L77.8275191,8.73996959 L77.8275191,8.73996959 Z M85.8966277,5.94292094 L85.647626,5.94292094 L85.647626,3.4882362 C85.2990283,3.38488105 84.9089237,3.33320344 84.4773202,3.33320344 C84.1121166,3.33320344 83.746913,3.36765481 83.3817094,3.43655866 C83.0165058,3.5054622 82.6928012,3.59159134 82.4106034,3.69494649 C82.2778036,3.88443078 82.1740522,4.10406049 82.0993493,4.35383556 C82.0246623,4.60361062 81.9789999,4.84046594 81.9624019,5.06440216 L83.780109,5.06440216 L83.780109,14.2371713 C83.5311073,14.2888484 83.2530571,14.3620591 82.9459584,14.4568012 C82.6388517,14.5515432 82.3857025,14.6419789 82.1865027,14.7281081 C82.0039009,15.072625 81.887699,15.4602069 81.8378971,15.8908538 L88.461348,15.8908538 C88.4945598,15.7013697 88.5028231,15.4946591 88.4862171,15.2707228 C88.4696112,15.0467865 88.444742,14.8573023 88.4115301,14.7022696 C88.2621323,14.6505925 88.083678,14.5989147 87.8761832,14.5472368 C87.6686804,14.4955598 87.4528746,14.4481883 87.2287739,14.4051233 C87.0046731,14.3620591 86.7764169,14.3276077 86.5440211,14.3017684 C86.3116174,14.2759299 86.1124176,14.2543978 85.9464138,14.2371721 L85.9464138,7.3123774 C86.2618154,6.57166537 86.6726734,6.03335745 87.1789719,5.69745325 C87.6852784,5.36154904 88.2289283,5.19359694 88.8099377,5.19359694 C89.1087413,5.19359694 89.407545,5.23235473 89.7063407,5.30987143 C90.0051444,5.38738781 90.2707441,5.49504954 90.5031479,5.63285629 C90.5529657,5.426146 90.5778349,5.19359694 90.5778349,4.93520904 C90.5778349,4.6079176 90.544623,4.3064654 90.478231,4.03085149 C90.4118072,3.75523766 90.3371361,3.53991453 90.2541302,3.38488185 C90.1047324,3.31597831 89.9179831,3.2643007 89.6938744,3.22984909 C89.4698054,3.19539676 89.2830561,3.17817076 89.1336582,3.17817076 C88.3202451,3.17817076 87.6230419,3.44086525 87.0420405,3.96625374 C86.4610311,4.49164231 86.0792295,5.15053138 85.8966277,5.94292094 L85.8966277,5.94292094 L85.8966277,5.94292094 Z" id="stamper-8"></path>
                                            <path d="M99.7665225,13.912831 L99.5920329,13.912831 C99.558821,13.7594787 99.5213981,13.567789 99.4798594,13.3377601 C99.4383048,13.107732 99.3926186,12.8777032 99.3427611,12.6476751 C99.2929432,12.4176463 99.2430539,12.1918778 99.1932043,11.9703688 C99.143307,11.7488599 99.0934971,11.5699487 99.0436396,11.4336362 L97.4732498,6.96086074 C97.3403069,6.60303868 97.1948976,6.22817741 97.0370299,5.83627726 C96.8791623,5.44437702 96.72545,5.10359393 96.5758853,4.81392861 C96.858385,4.77985067 97.1741283,4.73725206 97.5231073,4.686135 C97.8720784,4.6350173 98.162889,4.57538068 98.395547,4.50722401 C98.4453648,4.31979353 98.4910987,4.10254443 98.5326374,3.85547669 C98.574184,3.60840903 98.5949613,3.38264052 98.5949613,3.17817076 L92.9614947,3.17817076 C92.9781007,3.38264052 93.0071809,3.60840903 93.0487355,3.85547669 C93.0902901,4.10254443 93.1442872,4.31979353 93.2107666,4.50722401 C93.3935591,4.59241956 93.5971289,4.67335565 93.821468,4.75003181 C94.0458151,4.82670756 94.2743097,4.89060476 94.5069597,4.94172214 L98.5700286,15.8041763 C98.2044356,16.6561335 97.6435838,17.4143751 96.8874732,18.078902 C96.1313546,18.7434289 95.188288,19.2375637 94.0582735,19.5613073 C94.0914854,19.9361694 94.2078382,20.2982504 94.4072526,20.6475529 C94.6066669,20.9968553 94.7977703,21.2652224 94.9805707,21.4526526 C96.1105852,21.0437134 97.0868875,20.4388233 97.9094696,19.6379839 C98.7320517,18.8371444 99.4341652,17.8233151 100.015786,16.5964967 C100.248436,16.1194 100.493553,15.5571085 100.751128,14.9096214 C101.008703,14.2621342 101.26213,13.5933478 101.511394,12.903262 C101.760666,12.2131771 101.997471,11.5316112 102.22181,10.8585652 C102.446149,10.1855184 102.649719,9.58488867 102.83252,9.0566751 L104.253353,4.81392861 C104.419523,4.79688964 104.618946,4.76707125 104.851596,4.72447304 C105.084246,4.68187522 105.275349,4.63501754 105.424906,4.58390016 C105.491409,4.39646968 105.549546,4.16218129 105.599395,3.88103546 C105.649253,3.59988955 105.674178,3.36560124 105.674178,3.17817076 L100.913151,3.17817076 C100.913151,3.63822766 100.979654,4.0727258 101.112565,4.48166524 C101.295366,4.56686087 101.532171,4.63501754 101.822982,4.686135 C102.113792,4.7372527 102.375531,4.77985044 102.608181,4.81392861 C102.525087,4.96728091 102.442002,5.1461919 102.358909,5.35066158 C102.275823,5.55513135 102.19273,5.77238045 102.109637,6.00240882 C102.026551,6.23243728 101.947614,6.45820587 101.872839,6.67971483 C101.798073,6.9012238 101.735741,7.10569356 101.685883,7.29312404 L100.439548,11.3569596 C100.389651,11.5103119 100.33153,11.7020025 100.265058,11.9320313 C100.198555,12.1620594 100.136263,12.3963478 100.078102,12.6348957 C100.019942,12.8734437 99.9617813,13.107732 99.9036208,13.3377601 C99.8454603,13.567789 99.7997582,13.7594787 99.7665225,13.912831 L99.7665225,13.912831 L99.7665225,13.912831 Z" id="y-4"></path>
                                        </g>
                                    </g>
                                </g>
                            </g>
                            <path d="M117.973961,0 C117.316038,0 116.659617,0.20081141 116.10178,0.593837759 L114.521788,1.69816763 C113.975132,2.08314819 113.316139,2.2941227 112.638784,2.29200539 L110.690849,2.28158718 C109.308333,2.27674647 108.083508,3.13974367 107.660729,4.40690127 L107.065526,6.18841454 C106.85831,6.80919929 106.446142,7.3488367 105.896765,7.73030908 L104.316774,8.83463895 C103.195535,9.6133717 102.727235,10.9977329 103.158835,12.2622288 L103.764859,14.0437421 C103.976337,14.6631353 103.976337,15.3412385 103.764859,15.9606921 L103.158835,17.7422053 C102.72723,19.0066409 103.195651,20.3911831 104.316774,21.1697952 L105.896765,22.2741251 C106.446081,22.6556578 106.858419,23.1952955 107.065526,23.8160196 L107.660729,25.5975329 C108.083563,26.8646905 109.308333,27.727384 110.690849,27.722847 L112.638784,27.7124288 C113.316139,27.7099951 113.975071,27.9212253 114.521788,28.3062665 L116.10178,29.4105964 C117.217521,30.1964679 118.730401,30.1964679 119.846143,29.4105964 L121.426135,28.3062665 C121.972789,27.9212253 122.631783,27.7102508 123.309138,27.7124288 L125.257073,27.722847 C126.639589,27.7276877 127.86436,26.8646905 128.287194,25.5975329 L128.882396,23.8160196 C129.089546,23.1952955 129.501848,22.6556578 130.051157,22.2741251 L131.631149,21.1697952 C132.752326,20.3911831 133.220693,19.0066409 132.789088,17.7422053 L132.183064,15.9606921 C131.971592,15.3412989 131.971592,14.663256 132.183064,14.0437421 L132.789088,12.2622288 C133.2207,10.9977329 132.752271,9.61337203 131.631149,8.83463895 L130.051157,7.73030908 C129.501848,7.34877636 129.089485,6.80919929 128.882396,6.18841454 L128.287194,4.40690127 C127.86436,3.13974367 126.639589,2.27711085 125.257073,2.28158718 L123.309138,2.29200539 C122.631783,2.29443908 121.97285,2.08314819 121.426135,1.69816763 L119.846143,0.593837759 C119.2883,0.20081141 118.631886,0 117.973961,0 L117.973961,0 L117.973961,0 Z M117.973958,4.375 C123.822337,4.375 128.580512,9.14139425 128.580512,15 C128.580512,20.8586058 123.822337,25.625 117.973958,25.625 C112.12558,25.625 107.367405,20.8586058 107.367405,15 C107.367405,9.14139425 112.12558,4.375 117.973958,4.375 L117.973958,4.375 L117.973958,4.375 Z M109.239149,15 C109.239149,19.8344951 113.147779,23.75 117.973958,23.75 C122.800193,23.75 126.708767,19.8344951 126.708767,15 C126.708767,10.1655672 122.800193,6.25 117.973958,6.25 C113.147779,6.25 109.239149,10.1655672 109.239149,15 L109.239149,15 Z M119.505954,11.3853883 L119.505954,12.4582766 C119.606003,12.5093665 119.739401,12.5519414 119.906149,12.5860014 C120.072897,12.6200614 120.218801,12.6370913 120.343862,12.6370913 C120.368875,12.5093665 120.393887,12.3646118 120.418899,12.202827 C120.443911,12.0410422 120.46267,11.8749999 120.475176,11.7047003 C120.487682,11.5344006 120.498104,11.3662296 120.506442,11.2001873 C120.514779,11.0341451 120.518948,10.8830042 120.518948,10.7467643 C120.177115,10.6105245 119.797763,10.5040872 119.380893,10.4274523 C118.964024,10.3508174 118.572166,10.3125 118.205321,10.3125 C117.780114,10.3125 117.398678,10.3678473 117.061014,10.4785422 C116.723349,10.5892371 116.435709,10.7446355 116.198094,10.9447377 C115.960478,11.14484 115.77914,11.3853883 115.654079,11.6663828 C115.529018,11.9473774 115.466487,12.2581743 115.466487,12.5987738 C115.466487,13.1267029 115.56862,13.554581 115.772887,13.882408 C115.977153,14.2102351 116.233527,14.4805858 116.542011,14.6934605 C116.850495,14.9063352 117.18399,15.0851499 117.542498,15.2299046 C117.901006,15.3746593 118.234502,15.5321867 118.542985,15.7024864 C118.851469,15.872786 119.107844,16.0750171 119.31211,16.3091792 C119.516376,16.5433412 119.618509,16.856267 119.618509,17.2479564 C119.618509,17.7588556 119.472605,18.1569313 119.180796,18.4421832 C118.888987,18.7274352 118.442937,18.8700613 117.842644,18.8700613 C117.56751,18.8700613 117.286123,18.8381301 116.998483,18.7742677 C116.710843,18.7104053 116.454468,18.6146117 116.229359,18.4868869 L116.229359,17.184094 C116.170997,17.1670641 116.100129,17.150034 116.016755,17.1330041 C115.933381,17.1159742 115.847923,17.1010729 115.76038,17.0883004 C115.672838,17.0755279 115.589464,17.0670129 115.510259,17.0627554 C115.431053,17.058498 115.36227,17.0563692 115.303908,17.0563692 C115.278896,17.2011239 115.258052,17.3650375 115.241378,17.5481097 C115.224703,17.7311818 115.210112,17.9185116 115.197606,18.1100988 C115.1851,18.301686 115.176763,18.4911443 115.172594,18.6784741 C115.168426,18.8658039 115.166341,19.040361 115.166341,19.2021458 C115.508174,19.3469005 115.897947,19.4639816 116.335661,19.553389 C116.773374,19.6427963 117.213171,19.6875 117.655053,19.6875 C118.063585,19.6875 118.455443,19.6427963 118.830625,19.553389 C119.205808,19.4639816 119.53722,19.3149693 119.82486,19.1063522 C120.1125,18.8977351 120.343862,18.6252554 120.518948,18.2889135 C120.694033,17.9525716 120.781576,17.5332084 120.781576,17.0308243 C120.781576,16.5199251 120.679442,16.1026907 120.475176,15.7791213 C120.27091,15.4555518 120.01662,15.1830721 119.712305,14.9616826 C119.40799,14.740293 119.076579,14.5529632 118.718071,14.3996935 C118.359563,14.2464237 118.028151,14.0846389 117.723837,13.9143392 C117.419522,13.7440396 117.165231,13.5439373 116.960965,13.3140327 C116.756699,13.0841281 116.654566,12.781846 116.654566,12.4071866 C116.654566,12.0410422 116.802555,11.732374 117.098532,11.4811819 C117.39451,11.2299897 117.805126,11.1043937 118.330382,11.1043937 C118.547154,11.1043937 118.759758,11.1278099 118.968192,11.1746424 C119.176627,11.2214749 119.355881,11.2917235 119.505954,11.3853883 L119.505954,11.3853883 L119.505954,11.3853883 Z" id="Shape"></path>
                        </g>
                    </g>
                </g>
            </g>
        </g>
    </g>
</svg>