<?xml version="1.0" encoding="UTF-8" standalone="no"?>
<svg width="256px" height="54px" viewBox="0 0 256 54" version="1.1" xmlns="http://www.w3.org/2000/svg" xmlns:xlink="http://www.w3.org/1999/xlink">
    <!-- Generator: Sketch 39.1 (31720) - http://www.bohemiancoding.com/sketch -->
    <title>Trailbot</title>
    <desc>Created with Sketch.</desc>
    <defs></defs>
    <g id="Page-1" stroke="none" stroke-width="1" fill="none" fill-rule="evenodd">
        <g id="Artboard-1" transform="translate(-446.000000, -804.000000)">
            <g id="Trailbot" transform="translate(446.000000, 806.000000)">
                <g id="FIRST-Copy">
                    <g id="Group">
                        <rect id="Rectangle-7" fill="#D8D8D8" x="0" y="14.7272727" width="19" height="3.5" rx="1.75"></rect>
                        <rect id="Rectangle-7" fill="#D8D8D8" x="0" y="3.72727273" width="24" height="3.5" rx="1.75"></rect>
                        <rect id="Rectangle-7" fill="#D8D8D8" x="0" y="36.789978" width="35" height="3.5" rx="1.75"></rect>
                        <rect id="Rectangle-7-Copy" fill="#D8D8D8" x="0" y="25.7600098" width="25" height="3.5" rx="1.75"></rect>
                        <rect id="Rectangle-7" fill="#D8D8D8" x="0" y="47.8484848" width="70" height="3.5" rx="1.75"></rect>
                        <ellipse id="Oval-3" stroke="#F37E83" stroke-width="3" cx="48.3999939" cy="14.2999878" rx="14" ry="14"></ellipse>
                        <rect id="Rectangle-2" fill="#F37E83" transform="translate(65.239504, 30.894017) rotate(42.000000) translate(-65.239504, -30.894017) " x="56.739504" y="29.3940166" width="17" height="3"></rect>
                    </g>
                    <path d="M101.63,19.06 L95.12,19.06 L95.12,15.76 L111.92,15.76 L111.92,19.06 L105.41,19.06 L105.41,37 L101.63,37 L101.63,19.06 Z M117.107273,15.76 L124.487273,15.76 C125.487278,15.76 126.457268,15.8649989 127.397273,16.075 C128.337278,16.285001 129.172269,16.6299976 129.902273,17.11 C130.632277,17.5900024 131.217271,18.2199961 131.657273,19 C132.097275,19.7800039 132.317273,20.7299944 132.317273,21.85 C132.317273,23.3900077 131.882277,24.6449951 131.012273,25.615 C130.142269,26.5850048 128.95728,27.2399983 127.457273,27.58 L133.127273,37 L128.567273,37 L123.647273,28 L120.887273,28 L120.887273,37 L117.107273,37 L117.107273,15.76 Z M123.977273,24.91 C124.517276,24.91 125.05727,24.8700004 125.597273,24.79 C126.137276,24.7099996 126.622271,24.5600011 127.052273,24.34 C127.482275,24.1199989 127.837272,23.805002 128.117273,23.395 C128.397274,22.9849979 128.537273,22.4600032 128.537273,21.82 C128.537273,21.2399971 128.407274,20.7650018 128.147273,20.395 C127.887272,20.0249981 127.557275,19.7300011 127.157273,19.51 C126.757271,19.2899989 126.302276,19.1400004 125.792273,19.06 C125.28227,18.9799996 124.787275,18.94 124.307273,18.94 L120.887273,18.94 L120.887273,24.91 L123.977273,24.91 Z M145.364546,15.76 L148.634546,15.76 L157.784546,37 L153.464546,37 L151.484546,32.14 L142.274546,32.14 L140.354546,37 L136.124546,37 L145.364546,15.76 Z M150.164546,28.9 L146.894546,20.26 L143.564546,28.9 L150.164546,28.9 Z M162.611819,15.76 L166.391819,15.76 L166.391819,37 L162.611819,37 L162.611819,15.76 Z M173.799092,15.76 L177.579092,15.76 L177.579092,33.64 L186.609092,33.64 L186.609092,37 L173.799092,37 L173.799092,15.76 Z" id="TRAIL" fill="#FFFFFF"></path>
                    <path d="M191.34,15.76 L199.62,15.76 C200.420004,15.76 201.209996,15.8549991 201.99,16.045 C202.770004,16.235001 203.464997,16.5449979 204.075,16.975 C204.685003,17.4050022 205.179998,17.9599966 205.56,18.64 C205.940002,19.3200034 206.13,20.1399952 206.13,21.1 C206.13,22.300006 205.790003,23.2899961 205.11,24.07 C204.429997,24.8500039 203.540006,25.4099983 202.44,25.75 L202.44,25.81 C203.780007,25.9900009 204.879996,26.5099957 205.74,27.37 C206.600004,28.2300043 207.03,29.3799928 207.03,30.82 C207.03,31.9800058 206.800002,32.9549961 206.34,33.745 C205.879998,34.535004 205.275004,35.1699976 204.525,35.65 C203.774996,36.1300024 202.915005,36.474999 201.945,36.685 C200.974995,36.8950011 199.990005,37 198.99,37 L191.34,37 L191.34,15.76 Z M195.12,24.4 L198.48,24.4 C199.740006,24.4 200.699997,24.1500025 201.36,23.65 C202.020003,23.1499975 202.35,22.4400046 202.35,21.52 C202.35,20.5599952 202.010003,19.880002 201.33,19.48 C200.649997,19.079998 199.590007,18.88 198.15,18.88 L195.12,18.88 L195.12,24.4 Z M195.12,33.82 L198.51,33.82 C198.990002,33.82 199.509997,33.7850004 200.07,33.715 C200.630003,33.6449997 201.144998,33.5000011 201.615,33.28 C202.085002,33.0599989 202.474998,32.7400021 202.785,32.32 C203.095002,31.8999979 203.25,31.3400035 203.25,30.64 C203.25,29.5199944 202.870004,28.7400022 202.11,28.3 C201.349996,27.8599978 200.200008,27.64 198.66,27.64 L195.12,27.64 L195.12,33.82 Z M212.457273,26.32 C212.457273,24.6199915 212.74227,23.0850069 213.312273,21.715 C213.882276,20.3449932 214.672268,19.1800048 215.682273,18.22 C216.692278,17.2599952 217.892266,16.5200026 219.282273,16 C220.67228,15.4799974 222.187265,15.22 223.827273,15.22 C225.487281,15.22 227.017266,15.4799974 228.417273,16 C229.81728,16.5200026 231.027268,17.2599952 232.047273,18.22 C233.067278,19.1800048 233.86227,20.3449932 234.432273,21.715 C235.002276,23.0850069 235.287273,24.6199915 235.287273,26.32 C235.287273,27.9800083 235.002276,29.4949932 234.432273,30.865 C233.86227,32.2350069 233.067278,33.4149951 232.047273,34.405 C231.027268,35.395005 229.81728,36.1649973 228.417273,36.715 C227.017266,37.2650028 225.487281,37.54 223.827273,37.54 C222.187265,37.54 220.67228,37.2650028 219.282273,36.715 C217.892266,36.1649973 216.692278,35.395005 215.682273,34.405 C214.672268,33.4149951 213.882276,32.2350069 213.312273,30.865 C212.74227,29.4949932 212.457273,27.9800083 212.457273,26.32 L212.457273,26.32 Z M216.567273,26.32 C216.567273,27.4600057 216.742271,28.5049953 217.092273,29.455 C217.442275,30.4050048 217.94227,31.2299965 218.592273,31.93 C219.242276,32.6300035 220.012269,33.1749981 220.902273,33.565 C221.792277,33.955002 222.777268,34.15 223.857273,34.15 C224.937278,34.15 225.927268,33.955002 226.827273,33.565 C227.727277,33.1749981 228.50227,32.6300035 229.152273,31.93 C229.802276,31.2299965 230.302271,30.4050048 230.652273,29.455 C231.002275,28.5049953 231.177273,27.4600057 231.177273,26.32 C231.177273,25.2199945 231.002275,24.2000047 230.652273,23.26 C230.302271,22.3199953 229.807276,21.5000035 229.167273,20.8 C228.52727,20.0999965 227.757277,19.550002 226.857273,19.15 C225.957268,18.749998 224.957278,18.55 223.857273,18.55 C222.757267,18.55 221.762277,18.749998 220.872273,19.15 C219.982269,19.550002 219.217276,20.0999965 218.577273,20.8 C217.93727,21.5000035 217.442275,22.3199953 217.092273,23.26 C216.742271,24.2000047 216.567273,25.2199945 216.567273,26.32 L216.567273,26.32 Z M245.064546,19.06 L238.554546,19.06 L238.554546,15.76 L255.354546,15.76 L255.354546,19.06 L248.844546,19.06 L248.844546,37 L245.064546,37 L245.064546,19.06 Z" id="BOT" fill="#F37E83"></path>
                </g>
            </g>
        </g>
    </g>
</svg>