<?xml version="1.0" encoding="UTF-8" standalone="no"?>
<svg width="26px" height="26px" viewBox="0 0 26 26" version="1.1" xmlns="http://www.w3.org/2000/svg" xmlns:xlink="http://www.w3.org/1999/xlink">
    <!-- Generator: Sketch 39.1 (31720) - http://www.bohemiancoding.com/sketch -->
    <title>rotate</title>
    <desc>Created with Sketch.</desc>
    <defs></defs>
    <g id="Page-1" stroke="none" stroke-width="1" fill="none" fill-rule="evenodd">
        <g id="Desktop-HD---Middle----5" transform="translate(-155.000000, -2959.000000)" fill="#34495E">
            <g id="FEATURES" transform="translate(0.000000, 857.000000)">
                <g id="THIRD" transform="translate(120.000000, 1724.000000)">
                    <g id="Policies-blocks" transform="translate(0.000000, 225.000000)">
                        <g id="Policy-1" transform="translate(0.000000, 115.000000)">
                            <g id="rotate-left" transform="translate(35.000000, 38.000000)">
                                <path d="M13,0 C8.125,0 3.9,2.6 1.7875,6.6625 L0,4.875 L0,11.375 L6.5,11.375 L4.0625,8.9375 C5.6875,5.6875 9.1,3.25 13,3.25 C18.3625,3.25 22.75,7.6375 22.75,13 C22.75,18.3625 18.3625,22.75 13,22.75 C10.075,22.75 7.475,21.45 5.6875,19.3375 L3.25,21.45 C5.525,24.2125 9.1,26 13,26 C20.15,26 26,20.15 26,13 C26,5.85 20.15,0 13,0 L13,0 Z" id="rotate"></path>
                            </g>
                        </g>
                    </g>
                </g>
            </g>
        </g>
    </g>
</svg>