<?xml version="1.0" encoding="UTF-8" standalone="no"?>
<svg width="27px" height="27px" viewBox="0 0 27 27" version="1.1" xmlns="http://www.w3.org/2000/svg" xmlns:xlink="http://www.w3.org/1999/xlink">
    <!-- Generator: Sketch 39.1 (31720) - http://www.bohemiancoding.com/sketch -->
    <title>Shutdown</title>
    <desc>Created with Sketch.</desc>
    <defs></defs>
    <g id="Page-1" stroke="none" stroke-width="1" fill="none" fill-rule="evenodd">
        <g id="Desktop-HD---Middle----5" transform="translate(-779.000000, -2958.000000)" fill="#34495E">
            <g id="FEATURES" transform="translate(0.000000, 857.000000)">
                <g id="THIRD" transform="translate(120.000000, 1724.000000)">
                    <g id="Policies-blocks" transform="translate(0.000000, 225.000000)">
                        <g id="Policy-1" transform="translate(624.489796, 115.000000)">
                            <g id="icon" transform="translate(35.010204, 37.500000)">
                                <g id="Capa_1">
                                    <path d="M11.09052,12.20184 L11.09052,2.03364 C11.09052,0.91152 12.00204,0 13.12416,0 C14.24628,0 15.1578,0.91152 15.1578,2.03364 L15.1578,12.20184 C15.1578,13.32396 14.24628,14.23548 13.12416,14.23548 C12.00204,14.23548 11.09052,13.32396 11.09052,12.20184 L11.09052,12.20184 Z M21.18528,2.98188 C20.52648,2.46024 19.56528,2.57472 19.04364,3.2346 C18.522,3.89556 18.6354,4.8546 19.29636,5.37732 C21.71556,7.28568 23.10228,10.14336 23.10228,13.2192 C23.10228,18.72072 18.62568,23.19732 13.12524,23.19732 C7.62372,23.19732 3.14712,18.72072 3.14712,13.2192 C3.14712,10.14444 4.53276,7.28784 6.9498,5.38056 C7.61076,4.85892 7.72416,3.89988 7.20252,3.23784 C6.68088,2.57688 5.72292,2.46456 5.0598,2.98512 C1.90512,5.47452 0.09612,9.20484 0.09612,13.2192 C0.09612,20.40336 5.94108,26.24724 13.12416,26.24724 C20.30724,26.24724 26.1522,20.40228 26.1522,13.2192 C26.1522,9.20268 24.34104,5.47236 21.18528,2.98188 L21.18528,2.98188 Z" id="Shutdown"></path>
                                </g>
                            </g>
                        </g>
                    </g>
                </g>
            </g>
        </g>
    </g>
</svg>