<?xml version="1.0" encoding="UTF-8" standalone="no"?>
<svg width="13px" height="26px" viewBox="0 0 13 26" version="1.1" xmlns="http://www.w3.org/2000/svg" xmlns:xlink="http://www.w3.org/1999/xlink">
    <!-- Generator: Sketch 39.1 (31720) - http://www.bohemiancoding.com/sketch -->
    <title>stamper</title>
    <desc>Created with Sketch.</desc>
    <defs></defs>
    <g id="Page-1" stroke="none" stroke-width="1" fill="none" fill-rule="evenodd">
        <g id="Desktop-HD---Middle----5" transform="translate(-786.000000, -2844.000000)" fill="#34495E">
            <g id="FEATURES" transform="translate(0.000000, 857.000000)">
                <g id="THIRD" transform="translate(120.000000, 1724.000000)">
                    <g id="Policies-blocks" transform="translate(0.000000, 225.000000)">
                        <g id="Policy-1" transform="translate(624.602968, 0.000000)">
                            <g id="logo-stamp" transform="translate(41.397032, 38.000000)">
                                <g id="Group-5">
                                    <g id="Page-1">
                                        <g id="Desktop-HD">
                                            <g id="Group-5">
                                                <path d="M8.58119196,0.417340765 C10.4240375,1.15398807 11.421006,2.30756734 11.849246,4.11012537 C12.0359751,4.87831021 12.0819211,4.8913303 11.548241,4.88293958 C11.4139374,4.88062489 10.1801704,4.87831021 10.0455723,4.87831021 C9.39584923,4.87831021 9.53692697,5.03194718 9.09307715,3.80343011 C8.28018698,1.68925812 5.51694952,1.76043456 4.35298507,2.79075705 C3.4900256,3.55431254 3.41079826,4.84908736 4.37124564,5.66819519 C5.50104514,6.63168126 6.77545663,7.43429698 8.00510025,8.28118099 C9.16906467,9.08292875 10.4110783,9.78369843 11.5217337,10.6493892 C13.6408441,12.300625 13.4947595,16.0449112 10.9986566,17.3003365 C10.7391797,17.4224359 10.5497999,17.5326726 10.0697234,17.7658768 C10.3689612,18.0910895 10.7100217,18.4183275 10.9627245,18.6743892 C13.0079089,20.7471862 12.3514118,24.2235481 9.65355898,25.3586099 C7.5120647,26.2595996 5.34553573,26.2326914 3.27207679,25.1421873 C1.90754053,24.4246361 1.19184376,23.200459 0.881413979,21.7364231 C0.855201213,21.6117197 0.846365451,21.3753329 0.887599007,21.3617341 C1.45102613,21.1777169 2.03477551,21.0460695 2.59967526,20.8935898 C2.94309189,20.8010026 3.02084661,21.2671215 3.15456115,21.5150817 C3.48590224,22.1299189 3.61490438,22.3741178 4.22957892,22.9689909 C5.48013384,24.1792799 8.05840935,24.0563124 9.01915127,23.1680535 C9.93247459,22.3234841 9.95279679,20.8724683 8.88278595,20.019219 C7.61397049,19.0068352 6.21526929,18.1530072 4.8887268,17.2089066 C3.65319268,16.3299064 2.35374654,15.5139813 1.23337185,14.5073842 C-0.758798074,12.7184249 -0.308763237,9.27794062 2.37436332,7.93021745 C2.50955048,7.86251301 2.50955048,7.86251301 2.84825471,7.66923713 C2.63766904,7.38713536 2.42531621,7.09953621 2.2362309,6.85533734 C0.361871139,4.43186606 1.39005937,1.37822282 4.33207376,0.366128441 C6.81197778,-0.486542265 8.58119196,0.417340765 8.58119196,0.417340765 L8.58119196,0.417340765 L8.58119196,0.417340765 Z M10.777468,14.2576879 C10.6466987,13.2690297 9.99550301,12.4875355 9.1502151,11.9004745 C7.63635442,10.8493199 6.07154088,9.86905235 4.51202879,8.88415545 C4.34621099,8.7794161 4.01457536,8.7441172 3.85818237,8.8367045 C1.69695485,10.1184593 1.5850352,12.0300966 3.32685851,13.3164808 C4.95499502,14.5186683 6.71272271,15.5524628 8.42538801,16.6418097 C8.57913028,16.739605 8.84037431,16.7685385 9.0182677,16.7176155 C9.87975456,16.4696553 10.7848311,15.2234887 10.777468,14.2576879 L10.777468,14.2576879 L10.777468,14.2576879 Z" id="stamper"></path>
                                            </g>
                                        </g>
                                    </g>
                                </g>
                            </g>
                        </g>
                    </g>
                </g>
            </g>
        </g>
    </g>
</svg>