<?xml version="1.0" encoding="UTF-8" standalone="no"?>
<svg
   xmlns:dc="http://purl.org/dc/elements/1.1/"
   xmlns:cc="http://creativecommons.org/ns#"
   xmlns:rdf="http://www.w3.org/1999/02/22-rdf-syntax-ns#"
   xmlns:svg="http://www.w3.org/2000/svg"
   xmlns="http://www.w3.org/2000/svg"
   xmlns:xlink="http://www.w3.org/1999/xlink"
   xmlns:sodipodi="http://sodipodi.sourceforge.net/DTD/sodipodi-0.dtd"
   xmlns:inkscape="http://www.inkscape.org/namespaces/inkscape"
   width="860"
   height="259.30847"
   viewBox="0 0 860 259.30847"
   version="1.1"
   id="svg2"
   inkscape:version="0.91 r13725"
   sodipodi:docname="zapier-illustration.svg">
  <metadata
     id="metadata50">
    <rdf:RDF>
      <cc:Work
         rdf:about="">
        <dc:format>image/svg+xml</dc:format>
        <dc:type
           rdf:resource="http://purl.org/dc/dcmitype/StillImage" />
        <dc:title>Zapier</dc:title>
      </cc:Work>
    </rdf:RDF>
  </metadata>
  <sodipodi:namedview
     pagecolor="#ffffff"
     bordercolor="#666666"
     borderopacity="1"
     objecttolerance="10"
     gridtolerance="10"
     guidetolerance="10"
     inkscape:pageopacity="0"
     inkscape:pageshadow="2"
     inkscape:window-width="1920"
     inkscape:window-height="1032"
     id="namedview48"
     showgrid="false"
     showguides="true"
     inkscape:guide-bbox="true"
     borderlayer="true"
     inkscape:showpageshadow="false"
     inkscape:zoom="1.4142136"
     inkscape:cx="362.69966"
     inkscape:cy="13.055001"
     inkscape:window-x="0"
     inkscape:window-y="25"
     inkscape:window-maximized="1"
     inkscape:current-layer="svg2"
     fit-margin-top="0"
     fit-margin-left="0"
     fit-margin-right="0"
     fit-margin-bottom="0"
     inkscape:snap-bbox="true"
     inkscape:bbox-paths="true"
     inkscape:bbox-nodes="true"
     inkscape:snap-global="false">
    <sodipodi:guide
       position="455.99766,195.74221"
       orientation="0,1"
       id="guide4997" />
    <sodipodi:guide
       position="413.1662,230.14366"
       orientation="0,1"
       id="guide4999" />
  </sodipodi:namedview>
  <!-- Generator: Sketch 39.1 (31720) - http://www.bohemiancoding.com/sketch -->
  <title
     id="title4">Zapier</title>
  <desc
     id="desc6">Created with Sketch.</desc>
  <defs
     id="defs8">
    <linearGradient
       inkscape:collect="always"
       id="linearGradient5943">
      <stop
         style="stop-color:#0091e5;stop-opacity:1;"
         offset="0"
         id="stop5945" />
      <stop
         style="stop-color:#0079bf;stop-opacity:0.90196079"
         offset="1"
         id="stop5947" />
    </linearGradient>
    <circle
       id="path-1"
       cx="720"
       cy="437.69995"
       r="9" />
    <mask
       id="mask-2"
       maskContentUnits="userSpaceOnUse"
       maskUnits="objectBoundingBox"
       x="-18"
       y="-18"
       width="54"
       height="54">
      <rect
         x="693"
         y="410.69995"
         width="54"
         height="54"
         id="rect12"
         style="fill:#ffffff" />
      <use
         xlink:href="#path-1"
         id="use14"
         style="fill:#000000"
         x="0"
         y="0"
         width="100%"
         height="100%" />
    </mask>
    <linearGradient
       inkscape:collect="always"
       xlink:href="#linearGradient5943"
       id="linearGradient5949"
       x1="-11.875"
       y1="1.0001301"
       x2="-11.875"
       y2="59.00013"
       gradientUnits="userSpaceOnUse"
       gradientTransform="translate(69.875,199.30833)" />
    <filter
       inkscape:collect="always"
       style="color-interpolation-filters:sRGB"
       id="filter6283"
       x="-0.168"
       width="1.336"
       y="-0.168"
       height="1.336">
      <feGaussianBlur
         inkscape:collect="always"
         stdDeviation="2.3275"
         id="feGaussianBlur6285" />
    </filter>
  </defs>
  <g
     style="fill:none;fill-rule:evenodd;stroke:none;stroke-width:1"
     id="g5921"
     transform="translate(0,199.30846)">
    <path
       inkscape:connector-curvature="0"
       id="path5931"
       d="m 345.54631,59.51756 c 0.0296,-0.01193 0.065,-0.01046 0.0786,0.0033 0.0136,0.01372 -0.0106,0.02348 -0.0538,0.02169 -0.0478,-0.002 -0.0575,-0.01177 -0.0248,-0.02495 z m -70.96854,-1.737106 c -0.051,-0.0655 -0.0496,-0.06695 0.0155,-0.01559 0.0683,0.05395 0.09,0.08786 0.0563,0.08786 -0.009,0 -0.0408,-0.03252 -0.0718,-0.07227 z m 21.43375,-44.702451 -16.87878,-12.60312344 16.93363,-0.010373 c 9.3135,-0.005705 24.55146,-0.005705 33.86214,0 l 16.9285,0.010373 -1.48175,1.09865784 C 333.06442,10.701491 313.16902,25.462278 313.0374,25.565626 l -0.14711,0.1155 -16.87877,-12.603123 z m 55.6694,-10.5694001 -0.12042,-0.1342051 0.13325,0.1212839 c 0.12421,0.1130536 0.1521,0.1471263 0.12042,0.1471263 -0.007,0 -0.067,-0.060392 -0.13325,-0.1342051 z m -0.26702,-0.2684102 -0.0994,-0.1135582 0.11275,0.1001094 c 0.062,0.05506 0.11275,0.1061613 0.11275,0.1135581 0,0.032386 -0.0332,0.00603 -0.1261,-0.1001093 z M 274.583,2.2142785 c 0,-0.00857 0.0323,-0.041094 0.0717,-0.072264 0.065,-0.051364 0.0665,-0.049904 0.0155,0.015591 -0.0536,0.068785 -0.0872,0.09066 -0.0872,0.056673 z"
       style="fill:#f6f3eb" />
    <path
       inkscape:connector-curvature="0"
       id="path5929"
       d="m 278.47031,59.51756 c 0.0296,-0.01193 0.065,-0.01046 0.0786,0.0033 0.0136,0.01372 -0.0106,0.02348 -0.0538,0.02169 -0.0478,-0.002 -0.0575,-0.01177 -0.0248,-0.02495 z m 4.0317,-0.704759 c 19.40779,-13.603928 30.34931,-21.255076 30.39067,-21.251471 0.0287,0.0025 7.04332,4.900079 15.58801,10.883504 8.5447,5.983421 15.60928,10.928895 15.69908,10.98994 l 0.16327,0.110993 -31.44335,0 -31.44335,0 1.04567,-0.732966 z m 62.85802,0.70435 c 0.0399,-0.01047 0.0952,-0.0098 0.123,0.0015 0.0278,0.01131 -0.005,0.01987 -0.0725,0.01904 -0.0677,-8.26e-4 -0.0904,-0.0101 -0.0505,-0.02057 z m 0.80128,-0.04088 c 0.0296,-0.01193 0.065,-0.01046 0.0786,0.0033 0.0136,0.01372 -0.0106,0.02348 -0.0538,0.02169 -0.0478,-0.002 -0.0575,-0.01177 -0.0248,-0.02495 z M 281.471,37.290988 c 0,-17.403911 0.0103,-21.763369 0.0512,-21.739462 0.0282,0.01645 7.06564,4.944835 15.63879,10.951973 l 15.58754,10.92207 -0.31504,0.213707 c -0.48193,0.326919 -30.8528,21.333147 -30.91129,21.380011 -0.041,0.03284 -0.0512,-4.318435 -0.0512,-21.728299 z m -6.64723,20.695936 c -0.051,-0.0655 -0.0496,-0.06695 0.0155,-0.01559 0.0395,0.03117 0.0718,0.06369 0.0718,0.07226 0,0.03399 -0.0337,0.01211 -0.0872,-0.05667 z M 351.745,57.795832 c 0,-0.0086 0.0323,-0.04109 0.0718,-0.07226 0.065,-0.05136 0.0665,-0.0499 0.0155,0.01559 -0.0536,0.06878 -0.0872,0.09066 -0.0872,0.05667 z m -77.38943,-0.242494 -0.16207,-0.175499 0.17425,0.163231 c 0.16205,0.151804 0.19309,0.187767 0.16207,0.187767 -0.007,0 -0.0851,-0.07897 -0.17425,-0.175499 z M 352.114,57.424187 c 0,-0.0086 0.0323,-0.04109 0.0718,-0.07226 0.065,-0.05136 0.0665,-0.0499 0.0155,0.01559 -0.0536,0.06878 -0.0872,0.09066 -0.0872,0.05667 z m -79.65653,-3.948619 c 0,-0.05678 0.009,-0.08001 0.0207,-0.05162 0.0114,0.02839 0.0114,0.07485 0,0.103235 -0.0114,0.02839 -0.0207,0.0052 -0.0207,-0.05162 z m 81.05376,-0.02409 c 0.002,-0.04811 0.0117,-0.05789 0.0248,-0.02495 0.0118,0.02981 0.0104,0.06543 -0.003,0.07915 -0.0136,0.01372 -0.0233,-0.01067 -0.0215,-0.0542 z m 0,-46.7859612 c 0.002,-0.048105 0.0117,-0.05789 0.0248,-0.024949 0.0118,0.029809 0.0104,0.065425 -0.003,0.079147 -0.0136,0.013721 -0.0233,-0.010668 -0.0215,-0.054198 z M 272.45747,6.5244322 c 0,-0.056779 0.009,-0.080007 0.0207,-0.051617 0.0114,0.028389 0.0114,0.074845 0,0.1032347 -0.0114,0.028389 -0.0207,0.00516 -0.0207,-0.051617 z m 79.4873,-3.7061252 c -0.051,-0.065494 -0.0496,-0.066955 0.0155,-0.015591 0.0683,0.053945 0.09,0.087855 0.0563,0.087855 -0.009,0 -0.0408,-0.032519 -0.0718,-0.072264 z M 274.3575,2.4363386 c 0.11105,-0.1135581 0.21114,-0.2064694 0.22242,-0.2064694 0.0113,0 -0.0704,0.092911 -0.18142,0.2064694 -0.11105,0.1135582 -0.21114,0.2064694 -0.22242,0.2064694 -0.0113,0 0.0704,-0.092911 0.18142,-0.2064694 z m 4.11281,-1.96902053 c 0.0296,-0.0119286 0.065,-0.0104615 0.0786,0.00326 0.0136,0.0137216 -0.0106,0.0234814 -0.0538,0.0216884 -0.0478,-0.001981 -0.0575,-0.0117663 -0.0248,-0.0249484 z m 69.003,0 c 0.0296,-0.0119286 0.065,-0.0104615 0.0786,0.00326 0.0136,0.0137216 -0.0106,0.0234814 -0.0538,0.0216884 -0.0478,-0.001981 -0.0575,-0.0117663 -0.0248,-0.0249484 z"
       style="fill:#e6e2d6" />
    <path
       inkscape:connector-curvature="0"
       id="path5927"
       d="m 278.59331,59.51756 c 0.0296,-0.01193 0.065,-0.01046 0.0786,0.0033 0.0136,0.01372 -0.0106,0.02348 -0.0538,0.02169 -0.0478,-0.002 -0.0575,-0.01177 -0.0248,-0.02495 z m 2.84688,-21.987696 0.0102,-22.024014 0.0206,21.766074 0.0206,21.766073 15.334,-10.607554 c 8.4337,-5.834151 15.47102,-10.699499 15.63849,-10.811879 0.22622,-0.151807 0.31797,-0.193055 0.35695,-0.160472 0.0289,0.02412 0.0763,0.02974 0.10551,0.01248 0.0292,-0.01726 7.09437,-4.915279 15.70043,-10.884491 8.60606,-5.969211 15.65857,-10.853112 15.67225,-10.853112 0.0137,0 0.0249,9.848589 0.0249,21.885754 0,12.037164 -0.0138,21.885118 -0.0308,21.884337 -0.0169,-7.84e-4 -7.08715,-4.943901 -15.71165,-10.984712 -8.62449,-6.04081 -15.69539,-10.978402 -15.71311,-10.972428 -0.0177,0.006 -7.04562,4.925866 -15.61755,10.933092 -8.57193,6.007226 -15.63834,10.956574 -15.70314,10.998549 l -0.1178,0.07632 0.0102,-22.024013 z m 63.67306,21.98744 c 0.0395,-0.01039 0.10404,-0.01039 0.1435,0 0.0395,0.01038 0.007,0.01888 -0.0718,0.01888 -0.0789,0 -0.11121,-0.0085 -0.0718,-0.01888 z m 0.86178,-0.04145 c 0.0399,-0.01047 0.0952,-0.0098 0.123,0.0015 0.0278,0.01131 -0.005,0.01987 -0.0725,0.01904 -0.0677,-8.26e-4 -0.0904,-0.0101 -0.0505,-0.02057 z m 0.59372,-0.04003 c 0.0282,-0.01145 0.0743,-0.01145 0.1025,0 0.0282,0.01145 0.005,0.02083 -0.0512,0.02083 -0.0564,0 -0.0794,-0.0094 -0.0512,-0.02083 z m 0.41256,-0.04215 c 0.0296,-0.01193 0.065,-0.01046 0.0786,0.0033 0.0136,0.01372 -0.0106,0.02348 -0.0538,0.02169 -0.0478,-0.002 -0.0575,-0.01177 -0.0248,-0.02495 z m 4.88669,-1.719056 c 0,-0.0071 0.06,-0.0675 0.13325,-0.134205 l 0.13325,-0.121284 -0.12042,0.134205 c -0.11225,0.1251 -0.14608,0.153188 -0.14608,0.121284 z m 1.60223,-3.851496 c 0.002,-0.04811 0.0117,-0.05789 0.0248,-0.02495 0.0118,0.02981 0.0104,0.06543 -0.003,0.07915 -0.0136,0.01372 -0.0233,-0.01067 -0.0215,-0.0542 z m -81.01599,-0.495527 c 0.002,-0.04811 0.0117,-0.05789 0.0248,-0.02495 0.0118,0.02981 0.0104,0.06543 -0.003,0.07915 -0.0136,0.01372 -0.0233,-0.01067 -0.0215,-0.0542 z m 81.06023,-0.01721 c 0,-0.05678 0.009,-0.08001 0.0207,-0.05162 0.0114,0.02839 0.0114,0.07485 0,0.103235 -0.0114,0.02839 -0.0207,0.0052 -0.0207,-0.05162 z m 0.004,-46.4349619 c 4.5e-4,-0.090846 0.009,-0.1231486 0.0187,-0.071783 0.01,0.051366 0.009,0.1256948 -8.2e-4,0.1651754 -0.0103,0.039481 -0.0183,-0.00255 -0.0178,-0.093393 z M 272.45424,6.6655198 c 0.002,-0.048105 0.0117,-0.05789 0.0248,-0.024949 0.0118,0.029809 0.0104,0.065425 -0.003,0.079147 -0.0136,0.013721 -0.0233,-0.010668 -0.0215,-0.054198 z m 6.13651,-6.19734145 c 0.0282,-0.0114554 0.0743,-0.0114554 0.1025,0 0.0282,0.0114555 0.005,0.020828 -0.0512,0.020828 -0.0564,0 -0.0794,-0.009373 -0.0512,-0.020828 z m 68.75956,-8.6015e-4 c 0.0296,-0.0119286 0.065,-0.0104616 0.0786,0.00326 0.0136,0.0137216 -0.0106,0.0234814 -0.0538,0.0216884 -0.0478,-0.001981 -0.0575,-0.0117663 -0.0248,-0.0249484 z"
       style="fill:#b6b5ac" />
    <path
       inkscape:connector-curvature="0"
       id="path5925"
       d="m 278.396,59.499977 c -1.10697,-0.126273 -2.21158,-0.547788 -3.12556,-1.192704 -0.48762,-0.344064 -1.24608,-1.108749 -1.59769,-1.610783 -0.64843,-0.925854 -1.0505,-2.013923 -1.17816,-3.188325 -0.0613,-0.563665 -0.0613,-46.4526651 0,-47.0163306 0.1282,-1.1792985 0.53121,-2.2705024 1.1772,-3.1873577 0.33869,-0.4807169 1.0229,-1.1866696 1.47231,-1.5190961 1.08258,-0.80079266 2.36637,-1.2640973 3.60182,-1.2998606 l 0.36758,-0.0106404 16.86509,12.5946314 c 9.27579,6.927048 16.88671,12.592778 16.91313,12.590511 0.0264,-0.0023 2.51084,-1.83113 5.52092,-4.064141 3.01007,-2.23301 8.01896,-5.948948 11.13086,-8.257638 3.1119,-2.308691 7.55835,-5.6070712 9.881,-7.3297336 2.32265,-1.7226627 4.96075,-3.6801122 5.86244,-4.3498882 l 1.63944,-1.21777448 0.51306,0.0485722 c 0.9117,0.0863118 1.62726,0.28836557 2.39819,0.67717558 1.28253,0.646829 2.29044,1.6457051 2.94793,2.9214991 0.41847,0.8120127 0.64841,1.6428962 0.72142,2.6068456 0.0272,0.3587872 0.0383,3.9647968 0.0318,10.2974898 l -0.01,9.745355 -0.0206,-8.799925 -0.0206,-8.7999247 -4.551,3.2765377 c -2.50305,1.802096 -4.59832,3.301418 -4.65615,3.331827 -0.0578,0.03041 -7.09651,4.905136 -15.6415,10.832728 -8.54499,5.927591 -15.58617,10.810102 -15.64706,10.850025 -0.10909,0.07153 -0.11357,0.07062 -0.3075,-0.06258 -0.16942,-0.116366 -22.04195,-15.441405 -28.82378,-20.195444 -1.29029,-0.904491 -2.365,-1.64453 -2.38825,-1.64453 -0.029,0 -0.0423,6.925656 -0.0423,22.009635 l 0,22.009635 -1.36325,-0.0054 c -0.74979,-0.0029 -1.50162,-0.02114 -1.67075,-0.04044 z m 66.32848,0.01586 c 0.0737,-0.0092 0.1844,-0.009 0.246,4.13e-4 0.0616,0.0094 10e-4,0.01694 -0.13398,0.01671 -0.1353,-4.13e-4 -0.18571,-0.0079 -0.11202,-0.01713 z m 1.06527,-0.03872 c 0.0282,-0.01145 0.0743,-0.01145 0.1025,0 0.0282,0.01145 0.005,0.02083 -0.0512,0.02083 -0.0564,0 -0.0794,-0.0094 -0.0512,-0.02083 z m 0.65856,-0.04215 c 0.0296,-0.01193 0.065,-0.01046 0.0786,0.0033 0.0136,0.01372 -0.0106,0.02348 -0.0538,0.02169 -0.0478,-0.002 -0.0575,-0.01177 -0.0248,-0.02495 z m 7.02192,-5.735728 c 0.002,-0.04811 0.0117,-0.05789 0.0248,-0.02495 0.0118,0.02981 0.0104,0.06543 -0.003,0.07915 -0.0136,0.01372 -0.0233,-0.01067 -0.0215,-0.0542 z m 0.0473,-0.595321 c 0,-0.07949 0.008,-0.11201 0.0188,-0.07226 0.0103,0.03975 0.0103,0.104783 0,0.144528 -0.0103,0.03975 -0.0188,0.0072 -0.0188,-0.07226 z"
       style="fill:#e5594c" />
    <path
       inkscape:connector-curvature="0"
       id="path5923"
       d="m 344.34366,59.495926 c -0.0111,-0.02936 -0.0154,-9.89213 -0.01,-21.917249 l 0.0105,-21.863855 4.5715,-3.28852 4.5715,-3.2885196 0.0247,9.8942886 c 0.0429,17.162465 0.0398,33.666177 -0.006,34.319615 -0.19118,2.702631 -1.01971,4.211368 -2.80633,5.110291 -1.14268,0.574934 -2.99012,0.945935 -5.084,1.020966 -0.3608,0.01293 -0.79004,0.03316 -0.95386,0.04494 -0.2216,0.01595 -0.30301,0.0078 -0.31798,-0.03196 z"
       style="fill:#b1382e" />
  </g>
  <g
     id="g6149">
    <path
       style="fill:#674b45"
       d="m 461.42624,258.0723 c -6.99903,-0.88283 -13.4505,-5.00421 -17.68854,-11.29991 l -0.76287,-1.13327 -0.58563,-0.002 c -0.95497,-0.003 -2.13856,-0.31057 -3.18542,-0.82698 -0.78836,-0.3889 -1.17705,-0.68171 -1.97,-1.48406 -1.04823,-1.06066 -1.59609,-1.95375 -2.07486,-3.38233 -0.37266,-1.11197 -0.44113,-3.24403 -0.14123,-4.39782 l 0.22165,-0.85273 -1.34866,-1.02447 c -1.53162,-1.16344 -1.87174,-1.52668 -2.31969,-2.47734 -1.83483,-3.89397 1.26564,-11.72242 7.79731,-19.68762 1.38779,-1.69236 4.79878,-5.10042 6.36384,-6.35835 4.29439,-3.45165 8.1716,-5.00399 10.80073,-4.32435 0.94278,0.24372 1.42641,0.53005 2.83113,1.67617 l 1.12561,0.91839 1.63387,-0.84693 c 2.99472,-1.55234 5.39471,-2.20563 7.75782,-2.1117 1.45451,0.0578 2.28923,0.27882 3.17752,0.8413 0.53866,0.34108 1.31344,1.19992 1.60999,1.78466 0.83646,1.64932 0.77272,4.23914 -0.16914,6.87281 -0.33658,0.94117 -1.49362,3.29675 -1.93685,3.94319 l -0.27295,0.39809 0.56017,0.74448 c 0.30809,0.40947 0.66317,0.94759 0.78907,1.19583 0.12589,0.24824 0.46182,0.69243 0.7465,0.98708 0.64942,0.67218 1.27614,1.94687 1.50415,3.05929 0.1444,0.70453 0.63545,4.96641 0.63545,5.51515 0,0.0864 0.68894,0.50609 1.53099,0.93272 0.87183,0.44173 1.90409,1.07484 2.39758,1.47049 0.47663,0.38214 1.15258,0.82948 1.5021,0.99408 1.88374,0.88714 2.47971,2.88827 1.31665,4.42101 -0.37156,0.48966 -0.38547,0.53975 -0.23246,0.83752 0.0895,0.17419 0.27578,0.69116 0.41394,1.14883 0.19472,0.64504 0.30783,0.84652 0.50311,0.89619 0.13855,0.0352 0.49434,0.219 0.79063,0.40835 1.19051,0.76085 1.51611,2.1804 0.85624,3.73308 -0.1766,0.41553 -0.54937,1.38316 -0.8284,2.1503 -2.47261,6.79811 -7.06062,11.81347 -12.87069,14.06953 -1.07396,0.41702 -2.43324,0.78958 -3.87234,1.06134 -1.09973,0.20768 -5.37878,0.30484 -6.60632,0.15 z"
       id="path6153"
       inkscape:connector-curvature="0"
       sodipodi:nodetypes="csccsssscsssssscsssssscscssssscscsccsssscc" />
    <path
       style="opacity:1;fill:#ffffff;fill-opacity:1;stroke:none;stroke-width:5;stroke-linecap:round;stroke-linejoin:round;stroke-miterlimit:4;stroke-dasharray:none;stroke-dashoffset:0;stroke-opacity:1"
       d="m 472.57284,244.81567 c 3.83868,-0.9303 9.1388,-4.37235 9.23204,-5.39544 -0.17678,-5.30914 -0.31402,-6.04611 -1.93674,-4.15349 -4.01524,4.43588 -12.1413,5.53095 -14.41502,5.29891 -1.1936,0.80444 -1.10285,1.59148 -1.18352,2.14502 -0.39973,2.74279 6.3635,2.9896 8.30324,2.105 z"
       id="rect6167"
       inkscape:connector-curvature="0"
       sodipodi:nodetypes="ccccsc" />
    <path
       style="fill:#f3dab8"
       d="m 466.05587,252.14493 c -1.57084,-0.28252 -3.30792,-1.05463 -4.1285,-1.83506 -0.40589,-0.38602 -1.46351,-1.99875 -1.75084,-2.66979 -0.23147,-0.54059 -0.39915,-0.47876 -0.40552,0.14954 -0.008,0.74783 -0.19417,0.67665 -0.50546,-0.19282 -0.35871,-1.00193 -0.53446,-1.88241 -0.53446,-2.6776 0,-0.71045 -0.12279,-0.6514 -0.59271,0.28505 -0.25492,0.50799 -0.38226,0.66283 -0.44708,0.54363 -0.20711,-0.3809 -0.37051,-1.61875 -0.36579,-2.77096 l 0.005,-1.23035 -0.22153,0.29006 c -0.12185,0.15954 -0.22269,0.32929 -0.22411,0.37724 -10e-4,0.048 -0.0546,0.0872 -0.11811,0.0872 -0.15271,0 -0.14825,-1.37016 0.008,-2.51964 0.16755,-1.23099 0.55371,-2.30387 1.21676,-3.38054 1.38907,-2.25563 3.36409,-3.65964 5.86508,-4.16942 0.7317,-0.14914 1.21107,-0.35334 2.33071,-0.99284 l 1.40956,-0.80509 0.0604,-0.6697 c 0.11687,-1.29645 1.02664,-2.50925 2.33178,-3.10846 0.54754,-0.25139 0.85017,-0.31336 1.5021,-0.30762 1.04114,0.009 1.73098,0.26417 2.34023,0.86503 l 0.4839,0.47724 0.53169,-0.14974 0.53169,-0.14975 1.46668,0.7229 c 1.53334,0.75576 2.59645,1.45419 3.23544,2.12558 l 0.37826,0.39744 -0.27839,0.6309 c -0.38006,0.86135 -1.18169,1.92638 -1.93298,2.56814 -2.08044,1.77712 -6.33569,3.60356 -9.84025,4.22362 -3.27245,0.57899 -3.61155,0.65652 -4.14201,0.94695 -1.02816,0.56291 -1.24009,1.11848 -1.14611,3.00442 0.0709,1.42264 0.28409,2.03411 0.94704,2.71622 2.14796,2.21003 7.94922,1.79616 13.02674,-0.92936 2.455,-1.31779 4.45682,-2.9736 5.36932,-4.44123 0.26308,-0.42311 0.18762,-0.4934 -0.20023,-0.18651 l -0.3065,0.24253 0,-0.64772 0,-0.64771 0.74461,0 c 0.61424,0 0.79968,0.0476 1.05917,0.27218 0.43164,0.37349 0.43677,1.12099 0.0126,1.83485 -0.34183,0.5753 -1.67499,2.08083 -2.6252,2.96465 -2.0472,1.90415 -4.73637,3.50728 -7.49984,4.47095 l -1.08703,0.37907 0.79816,0.76417 c 0.43899,0.4203 1.09701,0.92083 1.46228,1.1123 0.36526,0.19146 0.66424,0.38212 0.66439,0.42367 5.8e-4,0.15353 -2.06294,0.94634 -3.35057,1.28732 -1.1997,0.3177 -1.53081,0.35544 -3.40861,0.38855 -1.14391,0.0202 -2.34539,-0.0111 -2.66997,-0.0695 z m 5.08819,-21.56602 c 0.0999,-0.10045 0.18157,-0.27558 0.18157,-0.38916 0,-0.12854 0.17474,-0.28577 0.46284,-0.41646 0.44471,-0.20173 0.47784,-0.20182 0.84591,-0.002 0.47075,0.25502 0.78337,0.1273 1.00483,-0.41053 0.16726,-0.40621 0.0579,-0.89626 -0.23375,-1.0471 -0.34951,-0.18079 -1.46568,-0.46456 -1.62594,-0.41337 -0.0908,0.029 -0.30401,0.0832 -0.47387,0.1205 -0.39134,0.0859 -1.00846,0.60352 -1.14257,0.95835 -0.0565,0.14951 -0.17907,0.27183 -0.27237,0.27183 -0.3108,0 -0.52299,0.44863 -0.39157,0.82788 0.20709,0.59758 1.23691,0.91092 1.64492,0.50049 z m -29.8015,13.06409 c -1.91073,-0.36653 -3.65592,-1.98 -4.35428,-4.02563 -0.37645,-1.10268 -0.37645,-2.89349 0,-3.99618 0.91215,-2.67189 3.40057,-4.37572 6.00552,-4.11201 0.88983,0.0901 1.86619,0.4438 2.19071,0.79365 0.39153,0.42211 0.82057,1.39003 1.04996,2.36872 l 0.21414,0.91366 0.2195,-0.72629 c 0.12072,-0.39946 0.25186,-0.72636 0.29142,-0.72645 0.0953,-2.3e-4 0.42178,1.69405 0.53745,2.78942 l 0.092,0.87174 0.3083,-0.58116 0.3083,-0.58116 0.005,0.99261 c 0.01,1.77302 -0.55348,3.20303 -1.73762,4.41285 -1.3466,1.37578 -3.24083,1.96879 -5.13082,1.60623 z m 3.37586,-2.43327 c 1.00513,-0.48946 1.49809,-2.01169 0.97511,-3.0111 -0.11656,-0.22275 -0.46753,-0.5737 -0.77993,-0.7799 -1.00653,-0.66433 -1.08797,-0.73653 -1.08797,-0.96452 0,-0.1234 0.1369,-0.31459 0.30423,-0.42488 0.2977,-0.19622 0.30957,-0.19378 0.55318,0.11355 0.32028,0.40405 0.47792,0.39666 0.62553,-0.0293 0.17352,-0.50071 -0.0309,-1.10142 -0.57812,-1.69857 -1.53692,-1.67726 -4.5714,-1.11228 -5.67339,1.05632 -0.48953,0.96334 -0.4645,2.51067 0.056,3.45981 0.24614,0.44884 0.79195,0.81109 0.96294,0.63908 0.0373,-0.0376 -0.0136,-0.34447 -0.11329,-0.68201 -0.22788,-0.77193 -0.23036,-1.52508 -0.007,-2.28 0.27327,-0.92567 0.45964,-0.96993 0.47286,-0.11229 0.0255,1.65353 1.36997,3.2062 3.17574,3.6675 l 0.81962,0.20938 -0.42233,0.2016 c -0.25264,0.1206 -0.61224,0.18622 -0.895,0.16332 -0.60833,-0.0493 -0.6922,0.16943 -0.18442,0.48086 0.49521,0.30371 1.16164,0.30043 1.79675,-0.009 z m 21.49882,2.135 c 0.39968,-0.0228 1.02363,-0.0226 1.38655,4.6e-4 0.36293,0.023 0.0359,0.0416 -0.72669,0.0414 -0.7626,-2.3e-4 -1.05954,-0.019 -0.65986,-0.0418 z m -1.49941,-0.10946 c 0.0834,-0.0336 0.18307,-0.0294 0.22146,0.009 0.0384,0.0386 -0.0299,0.0661 -0.15165,0.0611 -0.13461,-0.006 -0.16198,-0.0331 -0.0698,-0.0702 z m 4.21242,-0.001 c 0.11242,-0.0295 0.26841,-0.0275 0.34663,0.004 0.0782,0.0318 -0.0138,0.0559 -0.2044,0.0536 -0.19065,-0.002 -0.25466,-0.0284 -0.14223,-0.0579 z m 0.87161,-0.11508 c 0.0834,-0.0336 0.18307,-0.0294 0.22147,0.009 0.0384,0.0386 -0.0299,0.0661 -0.15166,0.061 -0.1346,-0.006 -0.16198,-0.0331 -0.0698,-0.0702 z m 0.69328,-0.11624 c 0.0834,-0.0336 0.18307,-0.0294 0.22147,0.009 0.0384,0.0386 -0.0299,0.0661 -0.15166,0.061 -0.1346,-0.006 -0.16198,-0.0331 -0.0698,-0.0702 z m -4.5691,-0.46607 c 0.11243,-0.0295 0.26841,-0.0275 0.34664,0.004 0.0782,0.0318 -0.0137,0.0559 -0.2044,0.0536 -0.19065,-0.002 -0.25466,-0.0284 -0.14224,-0.0579 z m 2.13676,-0.002 c 0.14373,-0.0278 0.35171,-0.0267 0.46218,0.002 0.11047,0.0291 -0.007,0.0518 -0.26132,0.0505 -0.25421,-0.001 -0.34459,-0.0251 -0.20086,-0.0529 z m -2.88278,-0.11342 c 0.0834,-0.0336 0.18306,-0.0294 0.22146,0.009 0.0384,0.0386 -0.0299,0.0661 -0.15165,0.061 -0.13461,-0.006 -0.16199,-0.0331 -0.0698,-0.0702 z m 4.03689,0.002 c 0.0794,-0.0322 0.20943,-0.0322 0.28887,0 0.0794,0.0322 0.0144,0.0586 -0.14444,0.0586 -0.15887,0 -0.22387,-0.0264 -0.14443,-0.0586 z m 0.81605,-0.11866 c 0.0834,-0.0336 0.18307,-0.0294 0.22146,0.009 0.0384,0.0386 -0.0298,0.0661 -0.15165,0.061 -0.13461,-0.006 -0.16199,-0.0331 -0.0698,-0.0702 z m 0.69327,-0.11623 c 0.0834,-0.0336 0.18307,-0.0294 0.22147,0.009 0.0384,0.0386 -0.0299,0.0661 -0.15166,0.061 -0.1346,-0.006 -0.16198,-0.0331 -0.0698,-0.0702 z m 5.15738,-1.18923 c 0.0359,-0.0585 -10e-6,-0.13159 -0.0798,-0.1625 -0.0798,-0.0309 -0.0308,-0.0506 0.10893,-0.0438 0.19394,0.009 0.22478,0.048 0.13029,0.1625 -0.14157,0.1716 -0.25748,0.20342 -0.15938,0.0438 z m -19.62488,-14.94578 c 0.21884,-2.50043 1.61919,-4.36168 3.85892,-5.12898 0.55554,-0.19032 0.93627,-0.21352 3.02575,-0.1844 3.41647,0.0476 4.34797,-0.22052 6.05187,-1.74203 0.94701,-0.84563 1.3829,-1.04599 2.27559,-1.04599 0.53451,0 0.77012,0.0633 1.13152,0.30385 0.53386,0.35539 0.5586,0.4042 0.16667,0.32883 -0.51195,-0.0984 -0.97961,0.21609 -1.8122,1.21883 -0.90609,1.09127 -1.39919,1.49251 -2.56197,2.0847 -1.31992,0.67222 -2.30902,0.87315 -4.11757,0.83645 -3.81543,-0.0774 -4.40404,-0.0505 -5.11691,0.234 -1.23651,0.49349 -2.40919,1.85261 -2.80987,3.25659 l -0.15283,0.53555 0.061,-0.6974 z"
       id="path6165"
       inkscape:connector-curvature="0"
       sodipodi:nodetypes="csscssscccscscsssccscscccssccsssssscccccscssscsscsccccsscsccccsccccssccsccccccccscccscsssccsscccsscsccccccccccccccccccccccccccccccccccccccccccccccsccccccccccccccccccssssccsssscccc" />
    <path
       style="fill:#e8bc8c"
       d="m 475.48502,250.56099 c -1.2e-4,-0.054 -0.29913,-0.25488 -0.66439,-0.44634 -0.36527,-0.19147 -1.02329,-0.692 -1.46228,-1.1123 l -0.79816,-0.76417 1.08703,-0.37907 c 3.49942,-1.22032 6.53648,-3.24764 8.96852,-5.98675 0.42621,-0.48002 0.78996,-0.85764 0.80834,-0.83916 0.063,0.0633 -0.52503,1.68538 -0.88914,2.45282 -1.24063,2.61494 -3.7343,5.24403 -6.5008,6.85382 -0.30187,0.17565 -0.54897,0.27517 -0.54912,0.22115 z m -8.34072,-4.30387 c 0.0834,-0.0336 0.18307,-0.0294 0.22147,0.009 0.0384,0.0386 -0.0299,0.0661 -0.15166,0.061 -0.1346,-0.006 -0.16198,-0.0331 -0.0698,-0.0702 z m 2.54202,0 c 0.0834,-0.0336 0.18307,-0.0294 0.22146,0.009 0.0384,0.0386 -0.0299,0.0661 -0.15165,0.061 -0.13461,-0.006 -0.16199,-0.0331 -0.0698,-0.0702 z m -5.03348,-3.01962 c -0.35099,-0.0505 -0.37553,-0.0839 -0.37553,-0.51155 0,-0.25167 0.013,-0.45757 0.0289,-0.45757 0.0159,0 0.39288,0.0776 0.83771,0.17233 2.18133,0.46479 5.64586,0.0117 9.70584,-1.26929 1.11595,-0.3521 1.23577,-0.3713 0.98214,-0.15742 -0.7076,0.59671 -3.1468,1.52393 -5.1418,1.95457 -0.90413,0.19517 -1.64557,0.25741 -3.40862,0.28617 -1.23923,0.0202 -2.42214,0.0125 -2.62867,-0.0172 z m -1.55869,-1.91986 c -0.1236,-0.84721 0.31898,-1.64506 1.17147,-2.1118 0.53047,-0.29043 0.86957,-0.36796 4.14201,-0.94695 3.50456,-0.62006 7.75981,-2.4465 9.84026,-4.22362 0.75111,-0.64161 1.55289,-1.70675 1.93272,-2.56755 l 0.27813,-0.63032 -0.32023,-0.35765 -0.32023,-0.35766 0.35748,0.32399 c 0.19662,0.1782 0.55423,0.37865 0.7947,0.44544 0.60016,0.1667 0.98532,0.57926 0.98582,1.05595 3.5e-4,0.33735 -0.17534,0.55654 -1.47321,1.8379 -2.28177,2.25273 -4.58371,3.67556 -7.51086,4.64246 -2.09054,0.69055 -4.9625,1.16135 -7.13503,1.16966 -1.18404,0.005 -1.92668,0.47649 -2.42662,1.54219 l -0.26115,0.55667 -0.0553,-0.37871 z m -19.78241,-1.21787 c -1.59252,-0.49158 -2.86008,-2.07527 -2.88368,-3.60284 -0.007,-0.44264 -0.0551,-0.68907 -0.12659,-0.64643 -0.0636,0.0379 0.0144,-0.076 0.17332,-0.25318 1.1514,-1.28378 3.70464,-1.08709 4.20286,0.32377 0.0649,0.18384 0.0496,0.19648 -0.0933,0.0772 -0.094,-0.0785 -0.22518,-0.10894 -0.29151,-0.0677 -0.0663,0.0412 -0.12061,0.0196 -0.12061,-0.0481 0,-0.20122 -0.64252,-0.13977 -0.83969,0.0803 -0.52711,0.58838 -0.30278,1.2848 0.63937,1.98495 0.87225,0.64819 0.93151,0.74458 0.8678,1.41159 -0.0918,0.9613 -0.3723,1.09721 -1.52801,0.74046 z m 2.4873,-0.45631 c 0.006,-0.1354 0.0329,-0.16294 0.0698,-0.0702 0.0334,0.0839 0.0293,0.18416 -0.009,0.22278 -0.0384,0.0386 -0.0657,-0.03 -0.0607,-0.15256 z m -6.49445,-0.36806 c -0.14373,-0.18435 -0.13964,-0.18846 0.0436,-0.0439 0.11122,0.0877 0.20221,0.17927 0.20221,0.20341 0,0.0957 -0.0949,0.0341 -0.24583,-0.15953 z m 5.95439,-1.56911 -0.22011,-0.26153 0.25997,0.22142 c 0.24432,0.20809 0.31258,0.30163 0.22012,0.30163 -0.0219,0 -0.13892,-0.11769 -0.25998,-0.26152 z m -6.61469,-0.55211 c 0,-0.15982 0.0262,-0.2252 0.0583,-0.14529 0.0321,0.0799 0.0321,0.21067 0,0.29058 -0.032,0.0799 -0.0583,0.0145 -0.0583,-0.14529 z m 5.28215,-0.31966 c -0.14373,-0.18435 -0.13964,-0.18846 0.0436,-0.0439 0.19247,0.15184 0.25368,0.24729 0.15858,0.24729 -0.024,0 -0.11498,-0.0915 -0.2022,-0.20341 z m -0.20723,-0.39258 c -0.005,-0.10405 0.0819,-0.26096 0.19308,-0.3487 0.17571,-0.13862 0.18531,-0.13668 0.0733,0.0148 -0.0709,0.0959 -0.15779,0.2528 -0.19309,0.3487 -0.0537,0.14584 -0.0657,0.14341 -0.0733,-0.0148 z m 15.61909,-1.67541 0.43264,-0.46979 -0.66436,-0.32256 c -0.76489,-0.37138 -1.76149,-1.02171 -1.76182,-1.14968 -1.1e-4,-0.0479 0.16117,-0.0872 0.35842,-0.0872 l 0.35864,0 -0.85958,-0.91917 c -0.89464,-0.95666 -1.61539,-2.20604 -1.77078,-3.06959 l -0.0798,-0.44366 0.33206,0.30973 c 0.18264,0.17035 0.4173,0.35566 0.52148,0.4118 0.16703,0.09 0.17759,0.0509 0.0894,-0.33099 -0.14887,-0.64476 -0.12352,-1.74942 0.0557,-2.42644 0.37936,-1.43323 1.5434,-2.80423 2.81015,-3.30979 0.71287,-0.2845 1.30148,-0.31142 5.11691,-0.234 1.87274,0.038 2.84564,-0.1735 4.30834,-0.93658 0.94241,-0.49165 1.53313,-1.00776 2.79775,-2.4444 0.91746,-1.04224 1.60799,-1.05162 2.16292,-0.0294 0.42557,0.78395 0.62496,1.78711 0.89699,4.51276 0.25315,2.5364 0.35392,3.04185 0.69293,3.47539 l 0.22789,0.29144 -0.51823,0.14596 -0.51823,0.14595 -0.55637,-0.50939 c -0.49891,-0.45679 -0.56958,-0.58454 -0.68419,-1.23688 -0.14434,-0.82149 -0.56958,-1.81729 -0.94265,-2.20739 -0.31967,-0.33427 -0.75409,-0.33568 -0.9856,-0.003 -0.31293,0.44942 -0.1882,2.31057 0.16976,2.53311 0.0675,0.042 -0.0668,0.0835 -0.29854,0.0923 -0.6075,0.023 -1.64751,0.53808 -2.22731,1.10317 -0.65755,0.64086 -1.07008,1.47132 -1.14528,2.30556 l -0.0604,0.6697 -1.40955,0.80509 c -1.11964,0.63949 -1.59901,0.8437 -2.33071,0.99284 -1.69184,0.34485 -3.11232,1.07095 -4.31631,2.20636 -0.43226,0.40763 -0.4968,0.44878 -0.20225,0.12892 z m 3.72578,-4.06133 c 0.6063,-0.2156 1.0475,-0.28823 1.76208,-0.29007 0.76182,-0.002 0.95325,-0.0369 0.95325,-0.17382 0,-0.56804 -1.85691,-0.7851 -2.73659,-0.31988 -0.48691,0.25751 -0.84534,0.64926 -0.84534,0.92392 0,0.18457 -0.0854,0.19838 0.8666,-0.14015 z m -1.86272,-1.88138 c 1.18102,-0.44539 2.56247,-0.44723 3.76268,-0.005 0.98113,0.36148 1.24365,0.28896 0.85599,-0.23646 -1.13385,-1.53674 -3.93596,-1.64584 -5.4244,-0.2112 -0.86228,0.83112 -0.59537,0.98108 0.80573,0.45269 z m -21.47762,5.65699 c 0.11502,-0.12785 0.23513,-0.23246 0.26691,-0.23246 0.0318,0 -0.0363,0.10461 -0.15136,0.23246 -0.11503,0.12786 -0.23514,0.23247 -0.26691,0.23247 -0.0318,0 0.0363,-0.10461 0.15136,-0.23247 z m 1.99317,-1.00683 c 0.0794,-0.0323 0.20943,-0.0323 0.28887,0 0.0794,0.0322 0.0144,0.0586 -0.14444,0.0586 -0.15887,0 -0.22387,-0.0264 -0.14443,-0.0586 z m 1.03992,0 c 0.0794,-0.0323 0.20943,-0.0323 0.28886,0 0.0794,0.0322 0.0145,0.0586 -0.14443,0.0586 -0.15888,0 -0.22387,-0.0264 -0.14443,-0.0586 z m 28.46899,-3.32282 c -0.0195,-0.3955 -0.3768,-0.77004 -0.81965,-0.85914 -0.37746,-0.0759 -0.36675,-0.26327 0.0412,-0.72068 0.47722,-0.53507 1.26399,-0.7737 1.94707,-0.59054 0.46584,0.12492 0.52908,0.23127 0.26741,0.44973 -0.27568,0.23015 -0.3399,0.79368 -0.12759,1.11963 0.18266,0.28043 0.18136,0.28548 -0.038,0.14765 -0.30746,-0.19315 -1.1367,0.16861 -1.20652,0.52635 -0.0378,0.1935 -0.0515,0.17778 -0.0639,-0.073 z m 1.69579,-0.28281 c 0.0834,-0.0336 0.18307,-0.0294 0.22147,0.009 0.0384,0.0386 -0.0299,0.0661 -0.15166,0.061 -0.1346,-0.006 -0.16198,-0.0331 -0.0698,-0.0702 z m 0.73747,-0.90858 c 0.002,-0.19178 0.0282,-0.25617 0.0575,-0.14308 0.0293,0.11309 0.0274,0.27001 -0.004,0.3487 -0.0316,0.0787 -0.0556,-0.0138 -0.0533,-0.20562 z m -1.77738,-2.46216 c 0.0834,-0.0336 0.18307,-0.0294 0.22146,0.009 0.0384,0.0386 -0.0299,0.0661 -0.15165,0.0611 -0.13461,-0.006 -0.16199,-0.0331 -0.0698,-0.0702 z m -8.72877,-5.81277 c 0.11243,-0.0295 0.26841,-0.0275 0.34664,0.004 0.0782,0.0318 -0.0138,0.0559 -0.2044,0.0536 -0.19065,-0.002 -0.25466,-0.0284 -0.14224,-0.0579 z m 2.37372,0.001 c 0.0834,-0.0336 0.18307,-0.0294 0.22147,0.009 0.0384,0.0386 -0.0298,0.0661 -0.15166,0.0611 -0.1346,-0.006 -0.16198,-0.0331 -0.0698,-0.0702 z m 3.43028,-1.54787 c 0.11503,-0.12786 0.23514,-0.23247 0.26691,-0.23247 0.0318,0 -0.0363,0.10461 -0.15136,0.23247 -0.11503,0.12786 -0.23514,0.23246 -0.26691,0.23246 -0.0318,0 0.0363,-0.1046 0.15136,-0.23246 z m 2.11594,-1.24172 c 0.0834,-0.0336 0.18307,-0.0294 0.22147,0.009 0.0384,0.0386 -0.0298,0.0661 -0.15166,0.061 -0.1346,-0.006 -0.16198,-0.0331 -0.0698,-0.0702 z m 0.57773,0 c 0.0834,-0.0336 0.18307,-0.0294 0.22147,0.009 0.0384,0.0386 -0.0299,0.0661 -0.15166,0.061 -0.1346,-0.006 -0.16198,-0.0331 -0.0698,-0.0702 z"
       id="path6163"
       inkscape:connector-curvature="0"
       sodipodi:nodetypes="csscsscssccccccccccccsscsssccccsssscccsccsscsccccccccccscsccccccccccsccccsscsccscsscccccccccccscsccccccssssssscccscscccsccsssccscssssccsscccscscccscccscccsccsccccccccccscccccccccccccccccccscsccccccccccc" />
    <path
       style="fill:#ffd14f;fill-opacity:1"
       d="m 454.28256,206.33238 c -1.08035,-0.90083 -1.97804,-1.67245 -1.99485,-1.71472 -0.0426,-0.10712 0.97072,-0.58976 1.23821,-0.58976 0.12062,0 0.90372,0.23951 1.74021,0.53225 0.83649,0.29273 1.55017,0.5028 1.58595,0.4668 0.0358,-0.036 -0.0671,-0.55823 -0.22873,-1.16053 l -0.29379,-1.09508 0.52561,-0.20192 c 0.63449,-0.24375 0.51182,-0.30896 2.34591,1.24692 l 1.38715,1.17673 -0.48905,0.32568 -0.48904,0.32569 -0.60239,-0.51769 c -0.33131,-0.28473 -0.62941,-0.51769 -0.66246,-0.51769 -0.033,0 0.0392,0.34903 0.16043,0.77562 0.34689,1.22021 0.18058,1.29353 -1.64204,0.72393 -0.63387,-0.1981 -1.17133,-0.34122 -1.19436,-0.31805 -0.023,0.0232 0.34067,0.36006 0.80823,0.74864 l 0.8501,0.70652 -0.47474,0.36704 c -0.26112,0.20187 -0.5043,0.36489 -0.54041,0.36226 -0.0361,-0.003 -0.94958,-0.74182 -2.02994,-1.64264 z"
       id="path6161"
       inkscape:connector-curvature="0"
       sodipodi:nodetypes="sssccccsscccsscscscccs" />
    <path
       style="fill:#44b6e1"
       d="m 439.59424,219.70668 c -1.13623,-0.89937 -2.14101,-1.70803 -2.23284,-1.79703 -0.14464,-0.1402 -0.0494,-0.33686 0.71292,-1.47169 2.73441,-4.07072 6.89343,-8.35629 10.60425,-10.92692 1.37089,-0.94966 3.03204,-1.84571 4.29095,-2.31459 0.74907,-0.27899 1.21976,-0.37324 2.09298,-0.41906 0.61989,-0.0325 1.12601,-0.0129 1.12533,0.0436 -7e-4,0.0565 -0.0709,0.33808 -0.1559,0.62576 -0.0983,0.33261 -0.12031,0.64787 -0.0603,0.8659 0.0519,0.18857 0.0707,0.36659 0.0419,0.39559 -0.0288,0.029 -0.61753,-0.1299 -1.30821,-0.35313 l -1.25578,-0.40587 -0.66277,0.33713 -0.66277,0.33712 0.0815,0.71925 c 0.0448,0.39558 0.12002,0.79769 0.16708,0.89359 0.10486,0.21372 0.52289,3.12431 0.45594,3.17459 -2.65185,1.99132 -3.81618,3.00725 -5.69559,4.96963 -1.70027,1.77535 -3.27649,3.71435 -4.55056,5.59794 l -0.92221,1.3634 -2.06588,-1.6352 z"
       id="path6159"
       inkscape:connector-curvature="0" />
    <path
       style="fill:#987157"
       d="m 443.29627,241.33309 c -0.19582,-0.0592 -0.45085,-0.21301 -0.56675,-0.34183 -0.20906,-0.23238 -0.20516,-0.23422 0.49645,-0.23422 0.62517,0 0.7542,-0.0415 1.11279,-0.35826 0.48277,-0.4264 0.66906,-0.98754 0.51462,-1.55018 -0.0812,-0.29593 -0.26958,-0.50458 -0.73758,-0.81706 -0.78895,-0.52679 -0.98345,-0.80537 -0.98345,-1.4086 0,-0.5559 0.26071,-0.8639 0.73126,-0.8639 0.36676,0 0.39608,0.12163 0.0776,0.32173 -0.48225,0.30295 -0.27538,0.66001 0.70998,1.22546 1.01943,0.58501 1.40965,1.39271 1.14696,2.37407 -0.33313,1.24451 -1.43789,1.97434 -2.50185,1.65279 z m -3.86209,-2.06989 c -0.70356,-0.70774 -0.88545,-2.4787 -0.37402,-3.64173 0.79535,-1.8087 3.06564,-2.65038 4.82001,-1.78695 1.03836,0.51104 1.67488,1.62079 1.34604,2.34678 -0.15556,0.34344 -0.30902,0.27578 -0.51852,-0.22861 -0.23588,-0.56789 -0.89292,-1.08166 -1.57012,-1.22776 -1.3633,-0.29411 -2.785,0.51539 -3.22455,1.83603 -0.18242,0.54805 -0.16452,1.86431 0.033,2.42747 0.24548,0.69989 0.0272,0.81705 -0.51184,0.27477 z m 22.7633,-8.45136 c 0,-0.3924 0.72627,-0.90864 1.53471,-1.09089 0.83169,-0.1875 2.04722,0.16489 2.04722,0.5935 0,0.054 -0.43382,0.0982 -0.96405,0.0982 -0.66313,0 -1.17372,0.0726 -1.63574,0.23246 -0.67957,0.2352 -0.98214,0.28656 -0.98214,0.16671 z m 7.89276,-0.16782 c -0.64373,-0.26084 -0.7882,-1.1997 -0.20718,-1.34639 0.65281,-0.16482 1.32702,0.28151 1.32702,0.87848 0,0.51196 -0.49779,0.71996 -1.11984,0.46791 z m 2.52951,-0.95199 c -0.19633,-0.1975 -0.172,-0.92323 0.0412,-1.22945 0.35192,-0.50541 0.97559,-0.1988 0.97559,0.47962 0,0.69774 -0.61658,1.15243 -1.01679,0.74983 z m -12.61765,-0.71659 c 0,-0.3009 0.44956,-0.73205 1.17699,-1.1288 0.69229,-0.37759 0.78849,-0.3979 1.88499,-0.3979 1.06552,0 1.20376,0.0269 1.77597,0.34572 0.66016,0.36781 1.27778,1.05 1.10157,1.21673 -0.0583,0.0551 -0.56416,-0.0552 -1.14435,-0.24964 -0.8894,-0.29802 -1.16535,-0.34084 -1.90651,-0.29585 -0.51665,0.0314 -1.22006,0.17695 -1.74188,0.36051 -0.99858,0.35127 -1.14678,0.37056 -1.14678,0.14923 z m -9.98958,-7.57075 c 1.45765,-2.36609 4.16818,-5.09912 6.58374,-6.63841 0.4751,-0.30275 0.86382,-0.59409 0.86382,-0.64742 0,-0.0533 -0.29897,-0.0668 -0.66439,-0.0299 -0.63386,0.064 -0.65377,0.0581 -0.4333,-0.12888 0.37107,-0.31468 1.58742,-0.84141 2.67547,-1.15859 0.55436,-0.1616 1.02608,-0.31209 1.04828,-0.33442 0.0669,-0.0673 -0.96764,-0.30219 -1.37733,-0.31269 l -0.38213,-0.01 0.47451,-0.21981 c 0.7752,-0.35908 2.50051,-0.60924 3.71518,-0.53866 1.20238,0.0699 1.26505,-0.0159 0.33134,-0.45319 l -0.59246,-0.2775 1.10019,-0.001 c 0.73537,-7.5e-4 1.36702,0.0733 1.90485,0.22332 0.44257,0.12344 0.82162,0.20739 0.84234,0.18655 0.0207,-0.0208 -0.12955,-0.22948 -0.33393,-0.46363 l -0.37159,-0.42574 0.33558,0.0815 c 0.55917,0.13579 1.45598,0.50868 2.10908,0.87694 0.59438,0.33516 0.65589,0.29353 0.25988,-0.17588 -0.17482,-0.20722 -0.16928,-0.21415 0.10423,-0.13038 0.87658,0.26849 2.14097,1.25061 2.49389,1.93713 l 0.16279,0.31667 -0.6184,-0.2848 c -0.94375,-0.43462 -1.7953,-0.54967 -3.54038,-0.47831 -2.58438,0.10568 -4.77761,0.73162 -7.79937,2.22594 -3.18549,1.57529 -5.77929,3.55272 -8.31354,6.33801 -0.43625,0.47946 -0.69651,0.71483 -0.57835,0.52305 z"
       id="path6157"
       inkscape:connector-curvature="0"
       sodipodi:nodetypes="ccscccsscsscccssssscsccssscccssssscsssssccccsscssccsccccccccccccccscsccssscc" />
    <path
       style="fill:#0686bd"
       d="m 435.14646,232.28631 c -1.79245,-1.43556 -2.06663,-1.94484 -2.06663,-3.83875 0,-2.31375 1.13631,-5.52734 3.29976,-9.332 l 0.77289,-1.35923 0.76567,0.6119 c 0.42112,0.33654 1.43511,1.14362 2.25331,1.79352 l 1.48764,1.18163 0.92272,-1.36415 c 2.47554,-3.65984 6.11125,-7.5115 9.29823,-9.85052 0.63332,-0.46481 0.94937,-0.77322 0.95148,-0.92847 0.002,-0.12785 -0.0916,-0.84388 -0.2075,-1.59118 l -0.21064,-1.35871 0.36833,0.31262 c 0.20258,0.17194 0.87284,0.75721 1.48947,1.3006 1.11096,0.97901 1.11875,0.98956 0.85782,1.16232 -2.25045,1.4901 -4.29869,3.17432 -6.21935,5.11404 -4.56478,4.61008 -8.0898,10.08244 -9.83226,15.26392 -0.362,1.07649 -0.40574,1.14596 -0.93744,1.48918 -0.53997,0.34856 -1.94038,1.77563 -1.94038,1.97733 0,0.20455 -0.22262,0.0811 -1.05312,-0.58405 z m 6.48379,-20.51472 c 0,-0.0241 0.091,-0.11567 0.20221,-0.20341 0.18326,-0.14458 0.18735,-0.14046 0.0436,0.0439 -0.15094,0.19361 -0.24583,0.25518 -0.24583,0.15952 z m 3.2353,-3.25451 c 0,-0.0241 0.091,-0.11567 0.2022,-0.20341 0.18327,-0.14457 0.18735,-0.14046 0.0436,0.0439 -0.15095,0.19361 -0.24583,0.25518 -0.24583,0.15952 z m 7.40408,-2.58103 c 0.006,-0.13541 0.0329,-0.16295 0.0698,-0.0702 0.0334,0.0839 0.0293,0.18416 -0.009,0.22278 -0.0384,0.0386 -0.0657,-0.03 -0.0607,-0.15255 z m 2.96754,-3.26891 c 0.14373,-0.0278 0.35171,-0.0267 0.46218,0.002 0.11047,0.0291 -0.007,0.0518 -0.26132,0.0506 -0.25421,-0.001 -0.34459,-0.0251 -0.20086,-0.0529 z"
       id="path6155"
       inkscape:connector-curvature="0" />
    <path
       style="fill:#111f2f"
       d="m 438.87636,229.98668 c 0.25834,-0.94727 1.31463,-3.50966 2.00009,-4.85192 3.15003,-6.16836 8.22171,-12.00932 13.57943,-15.63921 0.22243,-0.1507 -0.40391,0.55809 -1.39186,1.57507 -2.67624,2.75489 -4.882,5.42632 -6.51726,7.89315 -0.83964,1.26662 -1.87402,3.08016 -1.75681,3.08016 0.0335,0 1.12312,-1.26839 2.42147,-2.81864 6.38723,-7.62648 7.48031,-8.73122 12.0974,-12.22642 3.29528,-2.49457 5.37686,-3.69153 7.91129,-4.54917 1.19245,-0.40352 1.32907,-0.42512 2.31092,-0.3654 3.62819,0.22069 4.81754,2.69728 3.3425,6.96011 -0.42861,1.23868 -0.8262,2.1054 -1.52078,3.3152 l -0.4125,0.71848 -0.31076,-0.49292 c -0.47051,-0.74633 -1.61652,-1.59605 -2.5276,-1.87412 l -0.2773,-0.0846 0.24834,0.35084 0.24835,0.35084 -0.65204,-0.35525 c -0.59003,-0.32147 -2.2475,-0.92576 -2.32653,-0.84822 -0.0178,0.0174 0.12677,0.20296 0.32116,0.41229 0.19439,0.20933 0.33649,0.39765 0.31577,0.41848 -0.0207,0.0208 -0.32121,-0.0389 -0.66779,-0.13283 -0.83082,-0.22508 -2.16384,-0.33848 -2.7238,-0.23172 l -0.44834,0.0855 0.69327,0.32713 0.69328,0.32713 -1.33645,0.01 c -1.49094,0.0111 -2.38528,0.14611 -3.33408,0.50321 -0.52669,0.19823 -0.59915,0.2565 -0.41093,0.33048 0.12569,0.0494 0.4365,0.0972 0.6907,0.10614 0.25421,0.009 0.56526,0.0568 0.69123,0.10634 0.18044,0.0709 0.0946,0.12175 -0.40441,0.23967 -0.3484,0.0823 -0.97143,0.27562 -1.3845,0.42956 -0.75025,0.27959 -1.96429,0.95278 -1.96429,1.08922 0,0.0397 0.29898,0.0483 0.66439,0.0191 0.36542,-0.0292 0.63839,-0.0266 0.60662,0.006 -0.0318,0.0323 -0.49974,0.35965 -1.03992,0.72737 -2.50904,1.70803 -5.18794,4.48016 -6.4316,6.65543 -0.17268,0.30205 -0.71912,1.1695 -1.2143,1.92768 -0.97179,1.48794 -2.09179,3.62435 -2.87245,5.47921 -0.26905,0.63928 -0.49975,1.17554 -0.51267,1.19169 -0.0129,0.0161 -0.33101,-0.0847 -0.70685,-0.22398 -0.57327,-0.21253 -0.93461,-0.25413 -2.24322,-0.25825 -1.57542,-0.005 -1.9133,0.0632 -3.37313,0.68051 -0.17534,0.0742 -0.18301,0.0365 -0.074,-0.36305 z m 15.16961,-22.30862 c -0.69603,-0.61346 -1.35551,-1.20234 -1.46551,-1.30863 -0.19533,-0.18874 -0.48704,-1.68585 -0.31537,-1.61851 0.0455,0.0179 0.96611,0.76794 2.04568,1.66682 l 1.96286,1.63433 -0.43892,0.37068 c -0.2414,0.20387 -0.45789,0.37068 -0.48108,0.37068 -0.0232,0 -0.61163,-0.50192 -1.30766,-1.11537 z m 2.52669,-1.12636 c -0.39276,-0.33154 -0.70051,-0.61648 -0.6839,-0.63319 0.0272,-0.0274 1.73845,0.4629 2.14072,0.61336 0.11506,0.043 0.0382,0.14836 -0.25385,0.34801 -0.23036,0.15746 -0.43459,0.28367 -0.45385,0.28046 -0.0193,-0.003 -0.35636,-0.2771 -0.74912,-0.60864 z m 2.01202,-1.09821 c -0.10144,-0.36662 -0.17287,-0.67822 -0.15873,-0.69245 0.0141,-0.0142 0.25756,0.17981 0.54095,0.43118 l 0.51524,0.45704 -0.28886,0.23283 c -0.15888,0.12805 -0.31931,0.23399 -0.35651,0.23541 -0.0372,0.001 -0.15065,-0.29738 -0.25209,-0.66401 z m -2.1288,-0.55517 c -0.28891,-0.12226 -0.38592,-0.24829 -0.44821,-0.5823 -0.0776,-0.41621 0.14541,-1.40916 0.28499,-1.26876 0.0711,0.0715 0.59569,1.9433 0.55582,1.98318 -0.0131,0.0131 -0.18982,-0.0463 -0.3926,-0.13212 z"
       id="path6151"
       inkscape:connector-curvature="0"
       sodipodi:nodetypes="cssssssssssscsccccscscccccccsccccssscscssccccccsscscssssccccsssccccsccccc" />
  </g>
  <path
     inkscape:connector-curvature="0"
     id="rect5933"
     d="M 8.9999999,200.30846 C 4.014,200.30846 0,204.32246 0,209.30846 l 0,40 c 0,4.986 4.014,9 8.9999999,9 l 40.0000001,0 c 4.986,0 9,-4.014 9,-9 l 0,-40 c 0,-4.986 -4.014,-9 -9,-9 l -40.0000001,0 z m 1.3750001,9.25 12.75,0 c 1.385,0 2.5,1.115 2.5,2.5 l 0,34.125 c 0,1.385 -1.115,2.5 -2.5,2.5 l -12.75,0 c -1.3850001,0 -2.5,-1.115 -2.5,-2.5 l 0,-34.125 c 0,-1.385 1.1149999,-2.5 2.5,-2.5 z m 24.75,0 12.75,0 c 1.385,0 2.5,1.115 2.5,2.5 l 0,19.375 c 0,1.385 -1.115,2.5 -2.5,2.5 l -12.75,0 c -1.385,0 -2.5,-1.115 -2.5,-2.5 l 0,-19.375 c 0,-1.385 1.115,-2.5 2.5,-2.5 z"
     style="opacity:0.9;fill:url(#linearGradient5949);fill-opacity:1;fill-rule:evenodd;stroke:none;stroke-width:1;stroke-linecap:round;stroke-linejoin:round;stroke-miterlimit:4;stroke-dasharray:none;stroke-dashoffset:0;stroke-opacity:0" />
  <g
     id="g6083"
     transform="translate(9.5617009,-64.032764)">
    <path
       sodipodi:nodetypes="cscccccscccscccccscccsccccccsccccscccccsccccccccccccsccccccsccccccccccccccccccccccsccccccsccccccccccccccccccccccccc"
       inkscape:connector-curvature="0"
       id="rect6056"
       d="m 159.60352,264.35742 c -0.90988,-0.0622 -1.85021,0.0537 -2.75782,0.36524 -3.62683,1.24494 -5.59257,5.26778 -4.34765,8.89453 l 0.92968,2.70703 -5.3164,1.82422 -0.95703,-2.78906 0,-0.002 c -1.24535,-3.628 -5.26934,-5.59271 -8.89649,-4.34765 -3.62683,1.24494 -5.59257,5.26778 -4.34765,8.89453 l 0.95898,2.79101 -2.70898,0.92969 c -3.62683,1.24496 -5.59258,5.26779 -4.34766,8.89453 1.24496,3.62682 5.26779,5.59257 8.89453,4.34766 l 2.70703,-0.92969 1.82422,5.31836 -2.78906,0.95703 -0.002,0 c -3.62683,1.24496 -5.59258,5.26779 -4.34766,8.89453 1.24474,3.62619 5.26632,5.59125 8.89258,4.34766 l 2.79297,-0.95899 0.92968,2.70899 c 1.24495,3.62683 5.26778,5.59257 8.89454,4.34765 3.6262,-1.24473 5.59123,-5.26632 4.34765,-8.89257 l 0,-0.002 -0.92969,-2.70898 5.31836,-1.82422 0.95703,2.79102 0,0.002 c 1.24495,3.62683 5.26779,5.59257 8.89454,4.34765 3.62619,-1.24472 5.59122,-5.26632 4.34765,-8.89257 l 0,-0.002 -0.95898,-2.79101 2.70898,-0.92969 c 3.62682,-1.24496 5.59259,-5.26778 4.34766,-8.89453 -1.24495,-3.62683 -5.26779,-5.59257 -8.89453,-4.34766 l -2.70703,0.92969 -1.82422,-5.31836 2.78906,-0.95703 0.002,0 c 3.62682,-1.24496 5.59259,-5.26778 4.34766,-8.89453 -1.24495,-3.62683 -5.26779,-5.59257 -8.89453,-4.34766 l -2.79102,0.95899 -0.92773,-2.70703 0,-0.002 c -0.93389,-2.72065 -3.41031,-4.52625 -6.13867,-4.71289 z m -0.33985,4.98828 c 0.77136,0.0528 1.46786,0.53335 1.74805,1.34961 l 1.74023,5.07031 c 0.44765,1.30629 1.8695,2.00235 3.17578,1.55469 l 5.15625,-1.76953 0.002,0 c 1.08915,-0.37386 2.16523,0.15312 2.53906,1.24219 0.37387,1.08915 -0.15311,2.16522 -1.24219,2.53906 l -5.15429,1.76953 c -1.30732,0.44763 -2.00363,1.87087 -1.55469,3.17774 l 3.44922,10.04882 c 0.44844,1.30654 1.87142,2.00185 3.17773,1.55274 l 5.07227,-1.74219 c 1.08915,-0.37386 2.16523,0.15312 2.53906,1.24219 0.37386,1.08915 -0.15311,2.16522 -1.24219,2.53906 l -5.07226,1.74219 c -1.30551,0.44846 -2.00058,1.87006 -1.55274,3.17578 l 1.76953,5.15625 0,0.002 c 0.37387,1.08917 -0.15311,2.16523 -1.24218,2.53907 -1.08865,0.37368 -2.16474,-0.15223 -2.53907,-1.24024 l 0,-0.002 -1.76953,-5.1543 c -0.44765,-1.30629 -1.8695,-2.00235 -3.17578,-1.55469 l -10.04687,3.44727 c -1.01066,0.34646 -1.6895,1.29683 -1.68946,2.36523 l 0,0.002 c -8e-5,0.27576 0.0455,0.54964 0.13477,0.81054 l 1.74023,5.07227 0,0.002 c 0.37386,1.08916 -0.15312,2.16523 -1.24218,2.53907 -1.08917,0.37386 -2.16523,-0.15312 -2.53907,-1.24219 l -1.74219,-5.07227 c -0.44846,-1.30551 -1.87006,-2.00057 -3.17578,-1.55273 l -5.15625,1.76953 -0.002,0 c -1.08915,0.37386 -2.16522,-0.15311 -2.53906,-1.24219 -0.37368,-1.08863 0.15221,-2.16472 1.24023,-2.53906 l 5.15625,-1.76953 c 1.30732,-0.44763 2.00363,-1.87087 1.55469,-3.17774 l -3.44922,-10.04882 c -0.44844,-1.30654 -1.87142,-2.00185 -3.17773,-1.55274 l -5.07227,1.74219 c -1.08915,0.37386 -2.16522,-0.15311 -2.53906,-1.24219 -0.37386,-1.08915 0.1531,-2.16522 1.24219,-2.53906 l 5.07226,-1.74219 c 1.30551,-0.44846 2.00058,-1.87006 1.55274,-3.17578 l -1.76954,-5.15625 0,-0.002 c -0.37386,-1.08916 0.15313,-2.16523 1.24219,-2.53907 1.08875,-0.37372 2.16759,0.15429 2.54102,1.24219 l 1.76953,5.1543 c 0.44763,1.30732 1.87086,2.00363 3.17773,1.55469 l 10.04688,-3.44922 c 1.30654,-0.44844 2.00185,-1.87143 1.55273,-3.17774 l -1.74218,-5.07226 c -0.37387,-1.08915 0.15312,-2.16523 1.24218,-2.53907 0.27138,-0.0932 0.53629,-0.12498 0.79297,-0.10742 z m 0.36328,14.54492 c -0.30964,-0.0126 -0.61893,0.0324 -0.91211,0.13282 l -10.04687,3.44922 c -1.30654,0.44844 -2.00185,1.87142 -1.55274,3.17773 l 3.44922,10.04883 c 0.44844,1.30654 1.87143,2.00185 3.17774,1.55273 l 10.04687,-3.44922 c 1.30654,-0.44844 2.00185,-1.87142 1.55274,-3.17773 l -3.44922,-10.04883 c -0.33527,-0.97537 -1.23505,-1.64478 -2.26563,-1.68555 z"
       style="color:#000000;font-style:normal;font-variant:normal;font-weight:normal;font-stretch:normal;font-size:medium;line-height:normal;font-family:sans-serif;text-indent:0;text-align:start;text-decoration:none;text-decoration-line:none;text-decoration-style:solid;text-decoration-color:#000000;letter-spacing:normal;word-spacing:normal;text-transform:none;direction:ltr;block-progression:tb;writing-mode:lr-tb;baseline-shift:baseline;text-anchor:start;white-space:normal;clip-rule:nonzero;display:inline;overflow:visible;visibility:visible;opacity:1;isolation:auto;mix-blend-mode:normal;color-interpolation:sRGB;color-interpolation-filters:linearRGB;solid-color:#000000;solid-opacity:1;fill:#ffffff;fill-opacity:1;fill-rule:evenodd;stroke:none;stroke-width:5;stroke-linecap:round;stroke-linejoin:round;stroke-miterlimit:4;stroke-dasharray:none;stroke-dashoffset:0;stroke-opacity:1;color-rendering:auto;image-rendering:auto;shape-rendering:auto;text-rendering:auto;enable-background:accumulate" />
    <g
       id="g6023"
       transform="translate(23.157747,211.50605)"
       style="fill:none;fill-rule:evenodd;stroke:none;stroke-width:1">
      <rect
         transform="matrix(0.94582886,-0.32466563,0.32466563,0.94582886,0,0)"
         rx="4.5"
         ry="4.5"
         y="96.150032"
         x="85.047493"
         height="48.4375"
         width="9"
         id="rect5957"
         style="opacity:1;fill:#3eb991;fill-opacity:1;stroke:none;stroke-width:1;stroke-linecap:round;stroke-linejoin:round;stroke-miterlimit:4;stroke-dasharray:none;stroke-dashoffset:0;stroke-opacity:0" />
      <rect
         transform="matrix(0.94582886,-0.32466563,0.32466563,0.94582886,0,0)"
         rx="4.5"
         style="opacity:1;fill:#e8a920;fill-opacity:1;stroke:none;stroke-width:1;stroke-linecap:round;stroke-linejoin:round;stroke-miterlimit:4;stroke-dasharray:none;stroke-dashoffset:0;stroke-opacity:0"
         id="rect5959"
         width="9"
         height="48.4375"
         x="104.66969"
         y="96.238426"
         ry="4.5" />
      <rect
         transform="matrix(0.32466563,0.94582886,-0.94582886,0.32466563,0,0)"
         ry="4.5"
         y="-123.53313"
         x="125.72408"
         height="48.4375"
         width="9"
         id="rect5961"
         style="opacity:1;fill:#e01563;fill-opacity:1;stroke:none;stroke-width:1;stroke-linecap:round;stroke-linejoin:round;stroke-miterlimit:4;stroke-dasharray:none;stroke-dashoffset:0;stroke-opacity:0"
         rx="4.5" />
      <rect
         transform="matrix(0.32466563,0.94582886,-0.94582886,0.32466563,0,0)"
         rx="4.5"
         style="opacity:1;fill:#6ec9dc;fill-opacity:1;stroke:none;stroke-width:1;stroke-linecap:round;stroke-linejoin:round;stroke-miterlimit:4;stroke-dasharray:none;stroke-dashoffset:0;stroke-opacity:0"
         id="rect5963"
         width="9"
         height="48.4375"
         x="106.10188"
         y="-123.62151"
         ry="4.5" />
      <path
         inkscape:connector-curvature="0"
         id="rect5965"
         d="m 114.88782,72.741703 2.92199,8.51246 8.51246,-2.92199 -2.92199,-8.51246 -8.51246,2.92199 z"
         style="opacity:1;fill:#1b947c;fill-opacity:1;stroke:none;stroke-width:1;stroke-linecap:round;stroke-linejoin:round;stroke-miterlimit:4;stroke-dasharray:none;stroke-dashoffset:0;stroke-opacity:0" />
      <path
         inkscape:connector-curvature="0"
         id="rect5970"
         d="m 133.44787,66.370773 2.92199,8.51246 8.51246,-2.92199 -2.92199,-8.51246 -8.51246,2.92199 z"
         style="opacity:1;fill:#64851c;fill-opacity:1;stroke:none;stroke-width:1;stroke-linecap:round;stroke-linejoin:round;stroke-miterlimit:4;stroke-dasharray:none;stroke-dashoffset:0;stroke-opacity:0" />
      <path
         inkscape:connector-curvature="0"
         id="rect5975"
         d="m 139.81879,84.930811 2.92199,8.51246 8.51246,-2.921991 -2.92199,-8.51246 -8.51246,2.921991 z"
         style="opacity:1;fill:#ce0e0b;fill-opacity:1;stroke:none;stroke-width:1;stroke-linecap:round;stroke-linejoin:round;stroke-miterlimit:4;stroke-dasharray:none;stroke-dashoffset:0;stroke-opacity:0" />
      <path
         inkscape:connector-curvature="0"
         id="rect5980"
         d="m 121.25874,91.30174 2.922,8.51246 8.51246,-2.92199 -2.92199,-8.51246 -8.51247,2.92199 z"
         style="opacity:1;fill:#371039;fill-opacity:1;stroke:none;stroke-width:1;stroke-linecap:round;stroke-linejoin:round;stroke-miterlimit:4;stroke-dasharray:none;stroke-dashoffset:0;stroke-opacity:0" />
    </g>
  </g>
  <path
     inkscape:connector-curvature="0"
     id="path5083"
     d="m 579.69003,255.56006 c -5.11237,-0.29546 -10.18282,-1.80209 -14.6002,-4.33829 -0.57189,-0.32835 -1.40776,-0.83932 -1.39457,-0.85251 0.005,-0.005 0.11829,0.002 0.25118,0.017 1.30211,0.14324 3.16148,0.16115 4.50716,0.0434 4.06428,-0.35557 7.85576,-1.69345 11.2078,-3.95484 0.5417,-0.36545 1.34387,-0.95081 1.34492,-0.98143 3.3e-4,-0.009 -0.18127,-0.0257 -0.40353,-0.0363 -2.28808,-0.10912 -4.59214,-0.95567 -6.46022,-2.37361 -1.56264,-1.18609 -2.84952,-2.81178 -3.63703,-4.5946 -0.18066,-0.40901 -0.44526,-1.11419 -0.42548,-1.13396 0.006,-0.006 0.12006,0.007 0.25243,0.0302 0.64236,0.11192 1.06594,0.14396 1.9143,0.14481 0.86036,8.5e-4 1.20382,-0.0229 1.88944,-0.13087 0.37711,-0.0594 1.10306,-0.21668 1.17061,-0.25367 0.0247,-0.0135 -0.0457,-0.0405 -0.18609,-0.0713 -1.76579,-0.38682 -3.51439,-1.24329 -4.92085,-2.41027 -2.59195,-2.15061 -4.13717,-5.28753 -4.24279,-8.61318 -0.0105,-0.32985 -0.007,-0.54942 0.008,-0.54199 0.0143,0.007 0.25149,0.12303 0.52704,0.25813 1.38107,0.67716 2.76932,1.04957 4.34934,1.16675 0.21141,0.0157 0.3893,0.0236 0.3953,0.0176 0.006,-0.006 -0.12832,-0.11079 -0.2985,-0.23287 -0.68328,-0.49017 -1.49278,-1.22813 -2.03912,-1.85892 -2.85465,-3.29589 -3.64457,-7.92 -2.04454,-11.96847 0.18202,-0.46054 0.61974,-1.37703 0.7221,-1.51188 l 0.0512,-0.0675 0.37194,0.43934 c 1.23503,1.45885 2.69035,2.90374 4.13937,4.10972 5.18395,4.31447 11.47703,6.94453 18.14259,7.58235 0.7227,0.0692 1.51847,0.12455 1.5361,0.10694 0.007,-0.007 -0.0256,-0.21078 -0.0729,-0.45238 -0.15487,-0.79123 -0.18787,-1.1733 -0.18863,-2.18395 -7.2e-4,-0.96838 0.0227,-1.29246 0.14568,-2.01638 0.53511,-3.14975 2.38217,-5.99005 5.04959,-7.76497 2.67177,-1.77782 5.86164,-2.38427 9.01163,-1.71327 2.12904,0.45352 4.11946,1.51726 5.67445,3.03259 l 0.41511,0.40452 0.37216,-0.0796 c 2.2628,-0.48402 4.54242,-1.34269 6.55577,-2.46938 0.26767,-0.14979 0.49044,-0.26194 0.49504,-0.24922 0.0107,0.0297 -0.25332,0.73853 -0.39471,1.05954 -0.60366,1.37049 -1.37748,2.49568 -2.4602,3.57731 -0.62944,0.6288 -1.11475,1.02979 -1.80067,1.4878 -0.25715,0.17171 -0.45039,0.31214 -0.42941,0.31208 0.021,-6e-5 0.26049,-0.0324 0.53226,-0.0719 1.97045,-0.28629 3.90508,-0.81698 5.68535,-1.55952 0.22141,-0.0924 0.4071,-0.16338 0.41264,-0.15784 0.0171,0.0171 -0.54737,0.80663 -0.92382,1.29218 -1.2905,1.66445 -2.82412,3.17547 -4.49182,4.42565 l -0.36941,0.27693 0.006,1.2508 c 0.006,1.24557 -0.0173,1.93035 -0.0993,2.90966 -0.55921,6.67799 -3.22245,13.34361 -7.43879,18.61799 -3.95754,4.95064 -9.07225,8.5216 -14.97175,10.45289 -2.82922,0.92619 -5.6904,1.45075 -8.90247,1.63217 -0.59837,0.0338 -3.33733,0.0314 -3.94031,-0.004 z"
     style="fill:#00aced;fill-opacity:0.90196078;fill-rule:evenodd;stroke:none;stroke-width:1" />
  <g
     id="g6297">
    <g
       transform="translate(0.16789322,-60.02197)"
       id="g6289">
      <path
         inkscape:connector-curvature="0"
         style="opacity:1;fill:#4b4b4c;fill-opacity:0.99978213;stroke:none;stroke-width:5;stroke-linecap:round;stroke-linejoin:round;stroke-miterlimit:4;stroke-dasharray:none;stroke-dashoffset:0;stroke-opacity:1"
         d="m 720.75,267.80859 a 22.5,22.5 0 0 0 -22.5,22.5 22.5,22.5 0 0 0 22.5,22.5 22.5,22.5 0 0 0 22.5,-22.5 22.5,22.5 0 0 0 -22.5,-22.5 z"
         id="path6215" />
      <path
         inkscape:connector-curvature="0"
         id="path6217"
         d="m 720.75,273.68359 a 16.624985,16.624985 0 0 1 16.625,16.625 16.624985,16.624985 0 0 1 -16.625,16.625 16.624985,16.624985 0 0 1 -16.625,-16.625 16.624985,16.624985 0 0 1 16.625,-16.625 z"
         style="opacity:0.5;fill:#ffffff;fill-opacity:0.99978213;stroke:none;stroke-width:5;stroke-linecap:round;stroke-linejoin:round;stroke-miterlimit:4;stroke-dasharray:none;stroke-dashoffset:0;stroke-opacity:1;filter:url(#filter6283)" />
      <path
         inkscape:connector-curvature="0"
         style="opacity:1;fill:#ffffff;fill-opacity:0.99978213;stroke:none;stroke-width:5;stroke-linecap:round;stroke-linejoin:round;stroke-miterlimit:4;stroke-dasharray:none;stroke-dashoffset:0;stroke-opacity:1"
         d="m 720.75,273.68359 a 16.624985,16.624985 0 0 1 16.625,16.625 16.624985,16.624985 0 0 1 -16.625,16.625 16.624985,16.624985 0 0 1 -16.625,-16.625 16.624985,16.624985 0 0 1 16.625,-16.625 z"
         id="path6172" />
      <g
         id="g6209"
         transform="translate(0.01517,60.26605)">
        <path
           transform="matrix(0,1,-1,0,0,0)"
           d="m 240.10928,-715.29309 a 4.625,4.625 0 0 1 -4.625,4.625 4.625,4.625 0 0 1 -4.625,-4.625 4.625,4.625 0 0 1 4.625,-4.625 4.625,4.625 0 0 1 4.625,4.625 z m -10.88345,-10.88348 a 4.625,4.625 0 0 1 -4.625,4.625 4.625,4.625 0 0 1 -4.625,-4.625 4.625,4.625 0 0 1 4.625,-4.625 4.625,4.625 0 0 1 4.625,4.625 z"
           style="opacity:1;fill:#d5d9df;fill-opacity:1;stroke:none;stroke-width:5;stroke-linecap:round;stroke-linejoin:round;stroke-miterlimit:4;stroke-dasharray:none;stroke-dashoffset:0;stroke-opacity:1"
           id="circle6185"
           inkscape:connector-curvature="0" />
        <path
           d="m -710.66809,-224.6008 a 4.625,4.625 0 0 1 -4.625,4.625 4.625,4.625 0 0 1 -4.625,-4.625 4.625,4.625 0 0 1 4.625,-4.625 4.625,4.625 0 0 1 4.625,4.625 z m -10.88342,-10.88348 a 4.625,4.625 0 0 1 -4.625,4.625 4.625,4.625 0 0 1 -4.625,-4.625 4.625,4.625 0 0 1 4.625,-4.625 4.625,4.625 0 0 1 4.625,4.625 z"
           style="opacity:1;fill:#ff0000;fill-opacity:1;stroke:none;stroke-width:5;stroke-linecap:round;stroke-linejoin:round;stroke-miterlimit:4;stroke-dasharray:none;stroke-dashoffset:0;stroke-opacity:1"
           transform="scale(-1,-1)"
           id="circle6197"
           inkscape:connector-curvature="0" />
      </g>
    </g>
    <path
       sodipodi:nodetypes="sssssssssssssscsscccccccccccccccscscccscsscccccccscscccscsscccccccccsccscsscccccccccccccccccccccccccccccccccccccc"
       inkscape:connector-curvature="0"
       id="path6287"
       d="m 843.64118,245.23874 c -2.48223,-0.61591 -4.70327,-1.91298 -6.28235,-3.66886 -2.03392,-2.26164 -2.84253,-4.09166 -3.01838,-6.83106 -0.45727,-7.12344 4.93893,-12.55198 12.4772,-12.55198 5.052,0 9.17543,2.3733 11.27647,6.49034 1.02953,2.01739 1.11176,2.39231 1.11176,5.06876 0,2.46604 -0.12402,3.15473 -0.84507,4.69247 -1.16402,2.48245 -3.0642,4.43418 -5.46975,5.61813 -3.2268,1.58815 -6.12234,1.95822 -9.24988,1.1822 z m 5.17231,-7.98672 c 2.81395,-1.97047 1.76969,-6.78692 -1.58963,-7.33192 -2.90451,-0.47122 -5.05391,3.07782 -3.5845,5.91864 0.67181,1.29881 1.68761,1.90891 3.17829,1.90891 0.70843,0 1.60656,-0.22303 1.99584,-0.49563 z m -90.93702,7.53347 c -1.68059,-0.80695 -2.64443,-1.76735 -3.36447,-3.35246 -0.49885,-1.0982 -0.59327,-2.11682 -0.59914,-6.4641 l -0.007,-5.16047 -1.42941,0 -1.42941,0 0,-3.47498 0,-3.47499 1.35,-0.0976 1.35,-0.0977 0.0918,-2.77872 0.0918,-2.77871 4.59351,0 4.59352,0 0,2.85811 0,2.8581 6.63799,0 6.638,0 1.05281,4.28627 c 0.57906,2.35745 1.15088,4.10804 1.27073,3.89021 0.11985,-0.21784 0.75233,-2.21812 1.40551,-4.44506 l 1.18761,-4.04898 3.72113,0 3.72112,0 1.20057,4.04898 c 0.66031,2.22694 1.30447,4.24497 1.43146,4.4845 0.14,0.26406 0.50623,-0.61107 0.93027,-2.22297 0.38466,-1.46217 0.90929,-3.40874 1.16585,-4.32572 l 0.46646,-1.66723 9.04406,0 9.04407,0 0,11.11487 0,11.11486 -4.60588,0 -4.60588,0 0,-11.00901 c 0,-6.05495 -0.0872,-10.92186 -0.1937,-10.81536 -0.10653,0.10651 -1.65983,5.02483 -3.45179,10.92962 l -3.2581,10.73597 -3.98536,0.0887 -3.98536,0.0887 -0.95448,-3.10557 c -0.52496,-1.70806 -1.13175,-3.71291 -1.34841,-4.45523 -0.21667,-0.74231 -0.4905,-1.34966 -0.6085,-1.34966 -0.11801,0 -0.84583,2.00347 -1.61737,4.45217 l -1.40281,4.45216 -3.93121,-0.0856 -3.93121,-0.0856 -2.8982,-9.62446 -2.89821,-9.62445 -0.0939,2.08222 -0.0939,2.08223 -2.52666,0 -2.52666,0 0,3.47056 c 0,4.17575 0.23996,4.59548 2.51174,4.39345 0.80236,-0.0713 1.70899,-0.24182 2.01473,-0.37882 0.51164,-0.22927 0.55588,0.0418 0.55588,3.40585 l 0,3.65494 -1.03235,0.38664 c -0.5678,0.21266 -2.60471,0.44691 -4.52647,0.52057 -2.97454,0.114 -3.68306,0.0432 -4.76471,-0.47616 z m 55.74706,-14.65946 0,-14.92568 4.60588,0 4.60588,0 0,14.92568 0,14.92567 -4.60588,0 -4.60588,0 z m 10.8,3.81081 0,-11.11487 4.60588,0 4.60588,0 0,11.11487 0,11.11486 -4.60588,0 -4.60588,0 z m -21.91765,-15.87838 0,-2.85811 4.76471,0 4.7647,0 0,2.85811 0,2.85811 -4.7647,0 -4.76471,0 z m 21.6,0 0,-2.85811 4.76471,0 4.7647,0 0,2.85811 0,2.85811 -4.7647,0 -4.76471,0 z"
       style="fill:#fe0202" />
  </g>
  <g
     id="g5073">
    <path
       sodipodi:nodetypes="cc"
       d="m 430.5,100.80846 0,28"
       id="Line"
       inkscape:connector-curvature="0"
       style="fill:none;fill-rule:evenodd;stroke:#dddddd;stroke-width:1;stroke-linecap:square" />
    <g
       id="g5069">
      <path
         style="fill:none;fill-rule:evenodd;stroke:#dddddd;stroke-width:1;stroke-linecap:square"
         d="m 30.164713,156.11109 373.516557,0"
         id="path31"
         inkscape:connector-curvature="0"
         sodipodi:nodetypes="cc" />
      <path
         style="fill:none;fill-rule:evenodd;stroke:#dddddd;stroke-width:1;stroke-linecap:square"
         inkscape:connector-curvature="0"
         id="Line-Copy-2"
         d="m 29.127294,156.11109 0,19.92983"
         sodipodi:nodetypes="cc" />
    </g>
    <g
       id="g5065">
      <path
         style="fill:none;fill-rule:evenodd;stroke:#dddddd;stroke-width:1;stroke-linecap:square"
         d="m 456.2116,156.11109 333.34377,0"
         id="path5061"
         inkscape:connector-curvature="0"
         sodipodi:nodetypes="cc" />
      <path
         style="fill:none;fill-rule:evenodd;stroke:#dddddd;stroke-width:1;stroke-linecap:square"
         inkscape:connector-curvature="0"
         id="Line-Copy-3"
         d="m 789.55537,156.11109 0,19.92983"
         sodipodi:nodetypes="cc" />
    </g>
    <use
       transform="translate(-290,-281.69154)"
       height="100%"
       width="100%"
       y="0"
       x="0"
       style="fill:none;fill-rule:evenodd;stroke:#dddddd;stroke-width:1;stroke-miterlimit:4;stroke-dasharray:none"
       id="use44"
       xlink:href="#path-1" />
  </g>
  <g
     id="g5001"
     transform="translate(-298.6742,-321.69154)">
    <path
       inkscape:connector-curvature="0"
       d="m 704.18183,321.69154 a 10.952113,10.952113 0 0 0 -1.77539,0.15039 l 0,6.51563 -4.60156,-4.60157 a 10.952113,10.952113 0 0 0 -2.51367,2.50782 l 4.60547,4.60547 -6.50782,0 a 10.952113,10.952113 0 0 0 -0.1582,1.77539 10.952113,10.952113 0 0 0 0.14844,1.77539 l 6.51758,0 -4.60157,4.60156 a 10.952113,10.952113 0 0 0 2.50782,2.51172 l 4.60351,-4.60352 0,6.50781 a 10.952113,10.952113 0 0 0 1.77539,0.15821 10.952113,10.952113 0 0 0 1.77539,-0.14844 l 0,-6.51758 4.60157,4.60157 a 10.952113,10.952113 0 0 0 2.51367,-2.50782 l -4.60352,-4.60351 6.50781,0 a 10.952113,10.952113 0 0 0 0.15821,-1.77539 10.952113,10.952113 0 0 0 -0.15039,-1.77539 l -6.51563,0 4.60157,-4.60157 a 10.952113,10.952113 0 0 0 -2.50977,-2.51367 l -4.60352,4.60352 0,-6.50782 a 10.952113,10.952113 0 0 0 -1.77539,-0.1582 z m 0,8.17383 a 9.1605186,9.1605186 0 0 1 2.4336,0.33984 9.1605186,9.1605186 0 0 1 0.3457,2.43946 9.1605186,9.1605186 0 0 1 -0.34375,2.44922 9.1605186,9.1605186 0 0 1 -2.43555,0.32812 9.1605186,9.1605186 0 0 1 -2.43359,-0.33789 9.1605186,9.1605186 0 0 1 -0.34375,-2.43945 9.1605186,9.1605186 0 0 1 0.34375,-2.44922 9.1605186,9.1605186 0 0 1 2.43359,-0.33008 z m -39.28153,71.53344 c -0.242,-0.0343 -0.7205,-0.0986 -1.06334,-0.14294 l -0.62333,-0.0807 0,-25.05939 c 0,-23.72906 0.0136,-25.06496 0.25667,-25.16412 0.4734,-0.19314 4.9559,-0.12322 5.20372,0.0812 0.15587,0.12855 0.30184,0.80272 0.47328,2.18579 0.13634,1.09995 0.29254,2.11381 0.34711,2.25302 0.0792,0.20195 0.26228,0.0445 0.90589,-0.77887 2.32284,-2.97167 5.54657,-4.4319 9.75333,-4.41791 7.90896,0.0263 12.65702,4.80817 13.72736,13.82512 0.24944,2.1014 0.0979,6.31109 -0.29818,8.28428 -0.76465,3.8091 -2.27526,6.71172 -4.72582,9.08061 -2.44777,2.3662 -5.1612,3.67583 -9.07003,4.37766 -2.58603,0.46432 -7.28345,0.30239 -9.64333,-0.33242 l -0.33,-0.0888 0,7.86763 0,7.86763 -0.44917,0.0892 c -0.59637,0.11851 -3.90637,0.23189 -4.46416,0.15292 z m 14.5682,-21.17517 c 4.71866,-1.37402 7.30597,-5.3409 7.60322,-11.65728 0.15818,-3.36135 -0.34235,-6.24905 -1.48011,-8.53904 -1.41556,-2.84915 -3.47625,-4.06305 -6.90465,-4.06735 -1.7882,-0.002 -2.74349,0.21503 -4.24566,0.96569 -1.28081,0.64003 -2.79809,2.22105 -3.49246,3.63917 -1.06518,2.17542 -1.06169,2.13866 -1.06179,11.18683 l -9e-5,8.08135 0.87724,0.26545 c 1.37918,0.41732 2.60357,0.53078 5.20943,0.48276 1.94938,-0.0359 2.62903,-0.10546 3.49487,-0.35758 z m -38.47487,5.87378 c -3.02085,-0.30331 -4.84372,-0.74055 -6.6,-1.5831 -3.05209,-1.46419 -4.85662,-4.04303 -5.35753,-7.6564 -0.46435,-3.34959 0.51127,-6.56517 2.68015,-8.8337 2.20191,-2.30306 5.08403,-3.62721 9.03406,-4.15056 1.27828,-0.16936 7.17225,-0.0934 8.22349,0.106 l 0.50016,0.0949 -0.0957,-1.66567 c -0.21655,-3.76703 -1.37867,-5.45241 -4.36772,-6.33433 -2.407,-0.71019 -7.52878,-0.42415 -10.96629,0.61244 -0.37248,0.11232 -0.76339,0.20493 -0.86868,0.2058 -0.50269,0.004 -1.40212,-3.01349 -1.31874,-4.42445 l 0.0435,-0.73639 0.88,-0.26588 c 1.50692,-0.45529 4.61311,-0.96226 7.02299,-1.14624 3.63863,-0.27779 7.14503,0.13488 9.49464,1.11743 3.83048,1.60181 5.89793,4.59727 6.43169,9.31867 0.18024,1.59428 0.20538,23.62863 0.0271,23.73811 -0.21175,0.13003 -5.45989,1.08497 -7.29601,1.32757 -1.70068,0.22471 -6.28837,0.39418 -7.46706,0.27583 z m 5.86667,-5.46692 c 0.726,-0.0793 1.6005,-0.21419 1.94333,-0.29986 l 0.62333,-0.15577 0,-5.50696 0,-5.50696 -1.28333,-0.12238 c -0.70583,-0.0673 -2.53733,-0.11959 -4.07,-0.11619 -2.20752,0.005 -2.98262,0.0601 -3.72953,0.26574 -2.07361,0.57087 -3.43224,1.5296 -4.11216,2.90178 -1.33131,2.68681 -0.73186,6.04676 1.34556,7.54191 1.63121,1.17401 4.67585,1.50157 9.2828,0.99869 z m 84.44355,5.39753 c -7.03339,-0.6757 -12.005,-4.33474 -13.94455,-10.26301 -0.7844,-2.39755 -0.97909,-3.87656 -0.97824,-7.43169 5.9e-4,-2.73774 0.0486,-3.44038 0.32808,-4.81219 1.18577,-5.81943 3.95284,-9.62838 8.56627,-11.79172 2.58069,-1.21015 5.78082,-1.72631 8.81489,-1.4218 2.15632,0.21641 3.25414,0.50284 4.95,1.2915 4.25404,1.97832 6.81131,5.64736 7.70252,11.05115 0.22138,1.34225 0.29637,5.28914 0.12421,6.53703 l -0.0933,0.67608 -11.75508,0 -11.75507,0 0.11345,1.42077 c 0.13961,1.74823 0.6961,3.74076 1.38869,4.9722 1.86263,3.31181 5.90978,4.84203 11.61641,4.39213 2.12051,-0.16717 4.7638,-0.68829 6.29832,-1.24169 l 0.929,-0.33503 0.27989,0.64872 c 0.61333,1.42162 1.14715,4.39377 0.82676,4.60323 -0.36371,0.23778 -3.45049,1.13033 -4.64918,1.34433 -2.66693,0.47611 -6.09044,0.61675 -8.76311,0.35999 z m 9.13134,-22.24844 c -0.4157,-4.41903 -2.68357,-7.38881 -6.20942,-8.13127 -2.05337,-0.43238 -4.29508,-0.16419 -6.13147,0.73357 -2.41177,1.17903 -4.17241,4.105 -4.67064,7.762 l -0.10422,0.76503 8.61099,0 8.611,0 z m -37.32823,21.7 -0.66,-0.0971 -0.0374,-14.60838 -0.0374,-14.60838 -2.1801,0 -2.18011,0 -0.0909,-0.54645 c -0.11853,-0.71246 -0.12022,-3.51343 -0.002,-4.09836 l 0.0917,-0.45537 5.40834,0 5.40833,0 0,17.11344 c 0,12.62731 -0.0437,17.14028 -0.16677,17.21584 -0.22476,0.13802 -4.72425,0.20667 -5.55323,0.0847 z m 52.14,-0.0107 -0.73333,-0.0864 -0.0373,-17.16281 c -0.0353,-16.24381 -0.0235,-17.16844 0.22,-17.26776 0.14149,-0.0577 1.32741,-0.10495 2.63537,-0.10495 1.92227,0 2.41855,0.0419 2.58916,0.21858 0.23244,0.2407 0.67941,3.17306 0.67941,4.45731 0,0.43372 0.0572,0.78859 0.12717,0.78859 0.0699,0 0.31278,-0.27864 0.53962,-0.61921 1.44019,-2.16222 3.91403,-3.93671 6.37321,-4.57151 0.96492,-0.24908 4.56604,-0.37595 4.77511,-0.16822 0.27131,0.26954 0.39206,2.60116 0.21786,4.20662 l -0.18036,1.66234 -1.92965,0.009 c -4.46708,0.0219 -7.07006,1.64213 -8.49474,5.28743 -0.87662,2.24301 -0.878,2.26164 -0.97369,13.20947 l -0.0879,10.05464 -0.73333,0.0965 c -0.88375,0.11632 -3.96651,0.11006 -4.98667,-0.0101 z m -158.27319,-0.57384 c -0.14992,-0.39462 0.2795,-1.0899 8.91451,-14.43358 4.98961,-7.71044 9.07202,-14.04847 9.07202,-14.0845 0,-0.036 -3.58875,-0.0655 -7.975,-0.0655 l -7.975,0 -0.0917,-0.45538 c -0.11684,-0.58044 -0.11625,-4.02881 7.8e-4,-4.46265 l 0.0884,-0.32787 12.94855,0 12.94855,0 0.14123,0.40251 c 0.13126,0.3741 -0.50423,1.39523 -9.00072,14.46266 l -9.14195,14.06015 8.55826,0.0376 8.55827,0.0376 0.0881,0.32671 c 0.11554,0.42832 0.11817,4.38847 0.003,4.68638 -0.0803,0.20786 -1.40928,0.2305 -13.53451,0.2305 l -13.44549,0 -0.1575,-0.41459 z"
       style="opacity:1;fill:#ff4a00;fill-opacity:1;stroke:none;stroke-width:1;stroke-linecap:round;stroke-linejoin:round;stroke-miterlimit:4;stroke-dasharray:none;stroke-dashoffset:0;stroke-opacity:0"
       id="rect4277" />
    <path
       style="font-style:normal;font-weight:normal;font-size:20.32156563px;line-height:100%;font-family:sans-serif;letter-spacing:0px;word-spacing:0px;fill:#ff4a00;fill-opacity:1;stroke:none;stroke-width:1px;stroke-linecap:butt;stroke-linejoin:miter;stroke-opacity:1"
       d="M 492.94336 28.712891 C 490.26091 28.712891 487.375 30.034124 487.375 33.224609 C 487.375 35.82577 489.22379 36.760284 491.05273 37.349609 C 492.94264 37.959256 494.03906 38.304979 494.03906 39.402344 C 494.03906 40.560673 493.10555 40.966797 492.04883 40.966797 C 490.91082 40.966797 489.63039 40.315234 488.93945 39.441406 L 486.66406 41.759766 C 487.924 43.080667 489.99635 43.832031 492.04883 43.832031 C 494.89385 43.832031 497.55469 42.347571 497.55469 39.035156 C 497.55469 36.169815 495.03485 35.337 493.08398 34.707031 C 491.72244 34.280278 490.86914 33.976598 490.86914 33.021484 C 490.86914 31.883477 491.98671 31.578125 492.88086 31.578125 C 493.77501 31.578125 494.85208 32.066461 495.44141 32.818359 L 497.65625 30.480469 C 496.39631 29.32214 494.56908 28.712891 492.94336 28.712891 z M 499.86719 29.078125 L 499.86719 43.466797 L 503.14062 43.466797 L 503.05859 33.285156 L 503.11914 33.285156 L 506.75781 43.466797 L 509.19531 43.466797 L 512.93555 33.285156 L 512.99609 33.285156 L 512.91406 43.466797 L 516.30859 43.466797 L 516.30859 29.078125 L 511.28906 29.078125 L 508.16016 38.304688 L 508.07812 38.304688 L 504.80664 29.078125 L 499.86719 29.078125 z M 523.54492 29.078125 L 517.50781 43.466797 L 521.28906 43.466797 L 522.3457 40.640625 L 527.91406 40.640625 L 529.03125 43.466797 L 532.89258 43.466797 L 526.91797 29.078125 L 523.54492 29.078125 z M 534.08203 29.078125 L 534.08203 43.466797 L 537.49609 43.466797 L 537.49609 37.755859 L 538.67383 37.755859 L 541.7832 43.466797 L 545.84766 43.466797 L 542.08789 37.308594 C 543.93715 36.73959 545.07617 35.358283 545.07617 33.427734 C 545.07617 30.135641 542.33209 29.078125 539.56836 29.078125 L 534.08203 29.078125 z M 545.91602 29.078125 L 545.91602 32.044922 L 549.98047 32.044922 L 549.98047 43.466797 L 553.45508 43.466797 L 553.45508 32.044922 L 557.51953 32.044922 L 557.51953 29.078125 L 545.91602 29.078125 z M 537.47461 31.882812 L 539.32422 31.882812 C 540.36062 31.882812 541.64062 32.147058 541.64062 33.488281 C 541.64062 34.951434 540.23878 35.236328 539.12109 35.236328 L 537.47461 35.236328 L 537.47461 31.882812 z M 525.16992 32.919922 L 526.95898 37.857422 L 523.3418 37.857422 L 525.16992 32.919922 z M 508.01367 49.013672 C 503.52261 49.013672 500.18945 51.920208 500.18945 56.533203 C 500.18945 61.085234 503.52261 64.173828 508.01367 64.173828 C 512.52506 64.173828 515.85742 61.085234 515.85742 56.533203 C 515.85742 51.920208 512.52506 49.013672 508.01367 49.013672 z M 542.44531 49.013672 C 538.05585 49.013672 534.64062 51.961223 534.64062 56.574219 C 534.64062 61.085606 537.95271 64.173828 542.38281 64.173828 C 544.80108 64.173828 546.71272 63.260028 547.97266 61.796875 L 545.55469 59.519531 C 544.94504 60.373037 543.8674 60.982422 542.50586 60.982422 C 540.10791 60.982422 538.41992 59.195701 538.41992 56.574219 C 538.41992 54.034023 540.14814 52.164062 542.56641 52.164062 C 543.66377 52.164062 544.82237 52.590226 545.47266 53.484375 L 547.83008 51.126953 C 546.63111 49.745087 544.45715 49.013672 542.44531 49.013672 z M 487.8418 49.400391 L 487.8418 63.787109 L 491.31641 63.787109 L 491.31641 58.361328 L 493.04492 58.361328 C 496.05251 58.361328 498.75391 57.162815 498.75391 53.830078 C 498.75391 50.537984 496.27484 49.400391 493.125 49.400391 L 487.8418 49.400391 z M 518.16602 49.400391 L 518.16602 63.787109 L 527.22852 63.787109 L 527.22852 60.759766 L 521.66016 60.759766 L 521.66016 49.400391 L 518.16602 49.400391 z M 528.8418 49.400391 L 528.8418 63.787109 L 532.33789 63.787109 L 532.33789 49.400391 L 528.8418 49.400391 z M 547.3125 49.400391 L 552.71875 57.691406 L 552.71875 63.787109 L 556.19336 63.787109 L 556.19336 57.691406 L 561.7207 49.400391 L 557.65625 49.400391 L 554.58789 54.724609 L 551.51953 49.400391 L 547.3125 49.400391 z M 508.01367 52.142578 C 510.45226 52.142578 512.13867 54.013329 512.13867 56.533203 C 512.13867 59.134364 510.43194 61.003906 508.01367 61.003906 C 505.59541 61.003906 503.9082 59.134364 503.9082 56.533203 C 503.9082 54.013329 505.57508 52.142578 508.01367 52.142578 z M 491.31641 52.205078 L 492.8418 52.205078 C 494.08141 52.205078 495.2793 52.467743 495.2793 53.849609 C 495.2793 55.211154 494.07988 55.597656 492.7793 55.597656 L 491.31641 55.597656 L 491.31641 52.205078 z "
       transform="translate(298.6742,321.69154)"
       id="text4991" />
  </g>
</svg>
